<svg version="1.1" xmlns="http://www.w3.org/2000/svg" xmlns:xlink="http://www.w3.org/1999/xlink" width="27.25" height="30.38532" viewBox="0,0,27.25,30.38532"><g transform="translate(-227.6875,-168.48968)"><g data-paper-data="{&quot;isPaintingLayer&quot;:true}" fill="#ffb900" fill-rule="nonzero" stroke="none" stroke-width="0.5" stroke-linecap="butt" stroke-linejoin="miter" stroke-miterlimit="10" stroke-dasharray="" stroke-dashoffset="0" style="mix-blend-mode: normal"><path d="M249.31448,172.47686l0.875,0.75l0.08375,0.11802l0.12125,0.079l1.625,1.75l0.20666,0.37525l0.25922,0.34107l1.5,3.5l0.0256,0.15873l0.08035,0.13927l0.75,2.625l0.01162,0.34851l0.08457,0.33829v0.75l-0.01552,0.06207l0.0124,0.06277l-0.125,2.5l-0.06083,0.20023l0.0062,0.20917l-0.875,4l-0.10278,0.20727l-0.03538,0.22863l-1,2.375l-0.24007,0.32009l-0.18258,0.35603l-1.75,2l-0.35326,0.24532l-0.31408,0.29381l-2.25,1.25l-0.38476,0.10323l-0.36157,0.16723l-2.625,0.5l-0.23725,-0.01348l-0.23053,0.05763h-3.875l-0.12732,-0.03183l-0.12992,0.01856l-3.4446,-0.35634l-0.02253,0.0121l-0.06535,-0.02119l-0.09253,-0.00957l-0.53072,-0.19256l-0.53703,-0.17417l-0.07888,-0.0493l-0.06458,-0.02343l-0.01034,-0.02339l-1.84621,-1.15388l-0.19808,-0.20541l-0.24469,-0.14682l-0.5,-0.5l-0.11691,-0.19486l-0.1708,-0.14989l-1.125,-1.625l-0.00796,-0.0211l-0.01669,-0.01517l-1.5,-2.25l-0.09699,-0.27156l-0.16371,-0.23738l-0.75,-2l-0.02774,-0.24275l-0.09742,-0.22406l-0.125,-0.75l0.01168,-0.14601l-0.04258,-0.14015l-0.125,-2.5l0.0124,-0.06277l-0.01552,-0.06207v-3.625l0.09428,-0.37713l0.02565,-0.38789l1.125,-3.5l0.15231,-0.24513l0.08403,-0.27609l0.75,-1.25l0.21762,-0.21762l0.15834,-0.26391l3.375,-3.375l0.37567,-0.2254l0.34095,-0.27511l4.91731,-2.27875l0.00884,-0.01547l0.05329,-0.01332l0.14556,-0.06745l0.52882,-0.10114l0.52233,-0.13058l0.16043,0l0.05395,-0.01032l0.01452,0.01032h1.3961l0.15326,0.03831l0.15683,-0.01901l0.9671,0.12089c0.4306,0.0475 0.82827,0.20435 1.1646,0.44219l0.06989,0.02706l0.01481,0.03555c0.28149,0.21734 0.51535,0.49336 0.68326,0.80974l1.19637,0.46526l0.31774,0.22486l0.35262,0.16486l2,1.625l0.02027,0.02703z"/></g></g></svg>