<svg version="1.1" xmlns="http://www.w3.org/2000/svg" xmlns:xlink="http://www.w3.org/1999/xlink" width="231.20225" height="133.96327" viewBox="0,0,231.20225,133.96327"><g transform="translate(-118.85608,-104.5)"><g data-paper-data="{&quot;isPaintingLayer&quot;:true}" fill-rule="nonzero" stroke="none" stroke-width="0.5" stroke-linecap="butt" stroke-linejoin="miter" stroke-miterlimit="10" stroke-dasharray="" stroke-dashoffset="0" style="mix-blend-mode: normal"><path d="M226.5,108.5c0.17261,0 0.34523,-0.00005 0.51786,-0.00015c0.71881,-0.07084 1.43875,-0.14117 2.16014,-0.21049c2.23361,-0.21464 4.73035,-1.39414 6.72203,-0.36057c0.25608,0.13289 0.46284,0.31121 0.63204,0.52368c3.61629,-0.03086 7.23541,-0.07294 10.85577,-0.11442c-0.24561,-0.38689 -0.38784,-0.84586 -0.38784,-1.33806c0,-1.38071 1.11929,-2.5 2.5,-2.5c1.38071,0 2.5,1.11929 2.5,2.5c0,0.4721 -0.13086,0.91363 -0.35828,1.29031c11.98879,-0.1298 23.98416,-0.20239 35.92764,0.21066c7.65601,0.26477 15.26618,1.00053 22.93064,0.99904c8.27671,0 16.74149,-0.51387 25,0c2.26471,0.14092 5.06144,-0.7635 6.76777,0.73223c1.47559,1.29348 0.65307,3.88049 0.73115,5.8412c0.19557,4.91102 -0.59527,10.13799 -0.88407,15.04749c-0.3574,6.07588 -1.51734,12.67789 -1.11839,18.74615c0.21257,3.23326 1.08082,6.38972 1.61351,9.58587c1.36999,8.21995 2.73998,16.4399 4.10997,24.65985c1.52769,9.16614 2.12788,18.36272 2.86699,27.62415c0.17354,2.17457 1.17178,10.5712 -0.40319,12.02969c-1.68662,1.56189 -4.59559,0.23698 -6.89374,0.18488c-3.27684,-0.07429 -6.53918,-0.49582 -9.81566,-0.58417c-16.66423,-0.44936 -33.15998,-0.69714 -49.82188,-0.1155c-3.21725,0.10597 -6.40521,0.67672 -9.58462,1.17999c-8.85151,1.40112 -17.67372,1.96331 -26.48967,3.52947c-0.08596,0.38504 -0.18841,0.6657 -0.31041,0.80646c-1.26927,1.46454 -3.83421,0.60075 -5.76777,0.73223c-3.32565,0.22615 -6.66667,0 -10,0c-13.33333,0 -26.66667,0 -40,0c-12.38397,0 -24.55563,1.64945 -36.91326,2.16522c-4.994,0.20843 -9.99087,0.47698 -14.987,0.62446c-1.41954,0.0419 -2.92233,-0.41199 -4.25997,0.06505c-3.36045,1.19845 -5.15608,6.83859 -9.59181,6.02947c-3.3725,-0.61517 -2.83259,-8.73411 -2.87991,-10.37817c-0.23973,-8.32979 -0.43729,-16.66102 -0.65593,-24.99139c-0.43732,-16.66209 -1.80533,-33.29511 -2.21139,-49.95372c-0.32506,-13.33553 -0.00074,-26.72088 -0.00074,-40.06092c0,0 0,-1.18458 0.81542,-1.92292l-0.31542,-1.57708c9.34633,0 18.74514,-0.28918 28.08591,0.00148c9.6949,0.30168 19.35545,1.66617 29.04929,1.99995c9.86637,0.33973 19.90467,-0.75655 29.75868,-1.24925c6.52418,-0.32621 12.88834,-0.98423 19.32723,-1.62396c0.43378,-0.12823 0.77889,-0.12823 0.77889,-0.12823z" fill="#067b00"/><path d="M306.40549,126.31094c1.8895,-0.36384 3.82945,-1.19267 5.68677,-0.73978c1.93882,0.47277 3.28954,2.26095 4.90774,3.42883c0.53083,0.38311 8.20424,6.14493 8.41938,6.39813c1.1162,1.31368 1.59136,3.05853 2.37242,4.59529c2.26461,4.45574 4.50172,8.9316 6.7082,13.41641c0.82104,1.66882 1.92906,3.23064 2.43425,5.02057c0.79609,2.82062 0.04498,5.86158 0.03346,8.79236c-0.0187,4.75889 0.85188,10.85297 -0.11097,15.49754c-0.98861,4.76886 -4.349,10.25913 -6.30843,14.71303c-3.46606,3.3334 -6.98803,7.49838 -10.89834,10.28714c-0.18063,0.12882 -8.76178,4.63718 -9.13642,4.83436c-0.63843,0.33602 -9.03054,4.77746 -9.41386,4.87218c-1.81222,0.44778 -3.73301,0.06014 -5.59969,0.07299c-4.65398,0.03205 -11.14843,0.99433 -15.65161,-0.08641c-1.48469,-0.35632 -2.67469,-1.47367 -4.00096,-2.23015c-2.89545,-1.65151 -5.76593,-3.34645 -8.64131,-5.03268c-4.39287,-2.57614 -9.60536,-6.44006 -12.00711,-11.17328c-0.57901,-1.14109 -0.30767,-2.54097 -0.42468,-3.81519c-0.4371,-4.75976 -0.77254,-9.4903 -0.77207,-14.26863c0.51502,-6.0826 0.23219,-12.9744 1.63736,-18.90089c0.05592,-0.23586 3.65432,-9.20908 3.82527,-9.63648c0.39791,-0.99478 3.72528,-9.41292 4.12755,-9.97223c0.69112,-0.96092 1.96408,-1.32224 2.96648,-1.95169c2.82292,-1.77264 5.69858,-3.45985 8.54788,-5.18978c4.27322,-2.59446 8.52629,-5.22734 12.82181,-7.78467c1.62524,-0.96759 3.10608,-2.25916 4.89774,-2.86545c3.05709,-1.03451 9.02454,0.55694 11.98373,0.92684c0,0 0.94483,0.1181 1.5954,0.79164z" fill="#00ffff"/><path d="M299.5,183.5c-2.5,0 -2.5,-2.5 -2.5,-2.5l0.06021,-5.54538c1.97318,-4.34883 3.95377,-8.70316 6.04875,-12.99502c0.61451,-1.25891 1.70559,-2.35863 1.90737,-3.74491c0.40903,-2.81021 -1.51819,-5.48964 -1.91319,-8.30185c-0.15893,-1.13152 0.70001,-2.6303 -0.12025,-3.42578c-0.65681,-0.63697 -1.73416,0.62615 -2.64096,0.74798c-1.65183,0.22192 -3.32627,0.23099 -4.99229,0.27755c-1.30813,0.03656 -2.7793,-0.65918 -3.92583,-0.02829c-1.14653,0.63089 -1.34613,2.24599 -2.07709,3.33146c-3.39104,5.03566 -6.27173,8.97299 -8.52552,14.61272c0,0 -0.92848,2.32119 -3.24967,1.39272c-2.32119,-0.92848 -1.39272,-3.24967 -1.39272,-3.24967c2.36992,-5.9195 5.26239,-10.53505 9.09924,-15.66195c1.21566,-1.62441 1.95771,-3.82774 3.73529,-4.80587c1.77758,-0.97813 4.03595,-0.42581 6.05875,-0.5834c1.27617,-0.09942 10.11965,-0.69682 10.94502,-0.00735c1.70177,1.42157 1.39926,4.21091 1.97505,6.35224c0.12542,0.46642 2.0505,9.48676 1.99151,9.92012c-0.2608,1.91595 -1.5486,3.54382 -2.3506,5.30327c-1.83023,4.01518 -3.74065,7.99986 -5.69328,11.9568l0.06021,4.45462c0,0 0,2.5 -2.5,2.5z" fill="#ffffff"/><path d="M296,204c0,-1.38071 1.11929,-2.5 2.5,-2.5c1.38071,0 2.5,1.11929 2.5,2.5c0,1.38071 -1.11929,2.5 -2.5,2.5c-1.38071,0 -2.5,-1.11929 -2.5,-2.5z" fill="#ffffff"/></g></g></svg>