<svg version="1.1" xmlns="http://www.w3.org/2000/svg" xmlns:xlink="http://www.w3.org/1999/xlink" width="200" height="188.75" viewBox="0,0,200,188.75"><g transform="translate(-140,-87.5)"><g data-paper-data="{&quot;isPaintingLayer&quot;:true}" fill-rule="nonzero" stroke="none" stroke-linecap="butt" stroke-linejoin="miter" stroke-miterlimit="10" stroke-dasharray="" stroke-dashoffset="0" style="mix-blend-mode: normal"><path d="M340,180c0,51.08634 -44.77153,92.5 -100,92.5c-55.22847,0 -100,-41.41366 -100,-92.5c0,-51.08634 44.77153,-92.5 100,-92.5c55.22847,0 100,41.41366 100,92.5z" fill="#0016ff" stroke-width="0"/><path d="M155.39801,139.5c10.66667,0 22.43532,0 33.10199,0c4.68991,0 9.95158,0.62415 14.59954,0.03228c1.04565,-0.13315 1.95602,-0.85438 3,-1c0.28402,-0.03962 6.42161,-0.03228 7.40046,-0.03228c6.00652,0 12.01052,-0.10557 18.00917,0.21274c1.09552,1.15167 2.62765,2.00851 3.28657,3.455c0.79428,1.74361 0.60095,3.78471 0.87519,5.68098c0.4732,3.27207 0.93216,6.54676 1.47305,9.80832c1.17567,7.08925 0.85638,14.16913 0.85601,21.34308c-0.00059,11.20862 0.30044,21.81065 -3.42448,32.53536c-1.08777,3.13188 -2.65727,6.08547 -3.69678,9.2337c-0.50712,1.53583 -1.3682,6.80369 -2.61097,7.99859c-1.12609,1.08272 -2.91154,1.1333 -4.36731,1.69995c-7.79953,0.07404 -15.6006,0.03228 -23.40046,0.03228c-4.66313,0 -9.67952,0.49933 -14.30407,-0.01856c-6.13151,-0.68665 -11.47883,-3.49928 -17.31524,-5.05936c-5.89155,-1.57482 -12.25232,-0.98223 -18.07965,-3.02177c-1.49235,-0.52232 -3.38733,-0.66851 -4.32914,-1.93852c-0.90512,-1.22055 -0.41671,-3.01564 -0.47085,-4.53421c-0.13487,-3.7832 0.97358,-7.50076 1.19249,-11.2739c0.84476,-5.03748 0.03947,-10.09844 0.83874,-15.05412c0.16784,-1.04064 0.82073,-1.96126 1,-3c0.33734,-1.9547 -0.24179,-3.98199 0.00009,-5.95078c0.20292,-1.65165 0.79477,-3.24136 0.9798,-4.89511c0.00235,-0.02104 -0.03519,-6.75969 0.00656,-7.05911c0.18982,-1.3612 0.82614,-2.63667 1,-4c0.39066,-3.06332 -0.01873,-6.59187 -0.01873,-9.69454c0,-5.98736 0.02562,-11.67406 -0.96598,-17.589c0,0 -0.411,-2.46598 2.05499,-2.87698c2.46598,-0.411 2.87698,2.05499 2.87698,2.05499c0.15992,0.96483 0.30378,1.93553 0.43203,2.911z" fill="#e7ff81" stroke-width="0.5"/><text transform="translate(221.5,270) scale(0.5,0.5)" font-size="40" xml:space="preserve" fill="#ff0000" fill-rule="nonzero" stroke="none" stroke-width="1" stroke-linecap="butt" stroke-linejoin="miter" stroke-miterlimit="10" stroke-dasharray="" stroke-dashoffset="0" font-family="Sans Serif" font-weight="normal" text-anchor="start" style="mix-blend-mode: normal"><tspan x="0" dy="0">rare</tspan></text><text transform="translate(206.5,129) scale(0.5,0.5)" font-size="40" xml:space="preserve" fill="#ff0000" fill-rule="nonzero" stroke="none" stroke-width="1" stroke-linecap="butt" stroke-linejoin="miter" stroke-miterlimit="10" stroke-dasharray="" stroke-dashoffset="0" font-family="Sans Serif" font-weight="normal" text-anchor="start" style="mix-blend-mode: normal"><tspan x="0" dy="0">old green</tspan></text><path d="M271.16667,184.5566c0,6.38254 -5.59644,11.5566 -12.5,11.5566c-6.90356,0 -12.5,-5.17407 -12.5,-11.5566c0,-6.38254 5.59644,-11.5566 12.5,-11.5566c6.90356,0 12.5,5.17407 12.5,11.5566z" fill="#ffffff" stroke-width="0"/><text transform="translate(174.3,247.0599) scale(0.49915,0.49915)" font-size="40" xml:space="preserve" fill="#000000" fill-rule="nonzero" stroke="none" stroke-width="1" stroke-linecap="butt" stroke-linejoin="miter" stroke-miterlimit="10" stroke-dasharray="" stroke-dashoffset="0" font-family="Sans Serif" font-weight="normal" text-anchor="start" style="mix-blend-mode: normal"><tspan x="0" dy="0">Blookstaition</tspan></text></g></g></svg>