<svg version="1.1" xmlns="http://www.w3.org/2000/svg" xmlns:xlink="http://www.w3.org/1999/xlink" width="131.12912" height="134.82208" viewBox="0,0,131.12912,134.82208"><g transform="translate(-174.43544,-112.24399)"><g data-paper-data="{&quot;isPaintingLayer&quot;:true}" fill-rule="nonzero" stroke-linecap="butt" stroke-linejoin="miter" stroke-miterlimit="10" stroke-dasharray="" stroke-dashoffset="0" style="mix-blend-mode: normal"><path d="M304.56456,180c0,36.48728 -28.90654,66.06607 -64.56456,66.06607c-35.65802,0 -64.56456,-29.57879 -64.56456,-66.06607c0,-36.48728 28.90654,-66.06607 64.56456,-66.06607c35.65802,0 64.56456,29.57879 64.56456,66.06607z" fill="#52e1ff" stroke="#000000" stroke-width="2"/><path d="M211.25375,150.49399l4.40046,0.03228c6.30413,2.10138 13.98357,0.96772 20.59954,0.96772c10.77014,0 21.2415,1 32,1c3.07011,0 6.30728,1.12983 9.20943,0.12829c4.13025,-1.42536 4.6888,-6.71424 9.81867,-1.09007c1.00813,1.10527 0.38024,2.96989 0.47189,4.46306c0.07713,1.25656 -0.11088,7.87194 -0.11919,8.23544c-0.28286,5.07564 -1.52876,9.89715 -1.8871,14.9405c-0.38501,5.41882 -0.79017,11.48215 -2.21964,16.81878c-0.69799,2.60579 -2.36934,4.84964 -3.43268,7.32888c-1.71963,4.00941 -1.32687,7.20261 -5.72336,9.91118c-2.99731,1.84658 -4.88672,-0.38244 -7.51849,-0.76835c-2.30865,-0.33853 -4.69643,0.37153 -7,0c-1.04163,-0.168 -1.95863,-0.85042 -3.00299,-1.00049c-7.74757,-1.11327 -15.97567,-1.19258 -23.81682,-1.97695c-5.93931,-0.45655 -11.82147,-0.97079 -17.77974,-0.99028c-2.62268,-0.00858 -7.01908,0.50981 -9.02811,-2.03822c-0.92598,-1.17441 -0.38862,-2.96854 -0.47189,-4.46178c-0.21998,-3.94455 0,-8.05489 0,-12c0,-11.17942 -0.94754,-22.84874 0.44955,-34h-0.44955v-5c0,-1.38071 1.11929,-2.5 2.5,-2.5c0.88153,0 1.6565,0.45626 2.10163,1.14551l0.58751,0.88126c0.18939,-0.02677 0.31086,-0.02677 0.31086,-0.02677z" fill="#ffd2d2" stroke="none" stroke-width="0.5"/><text transform="translate(213.25375,133.99399) scale(0.5,0.5)" font-size="40" xml:space="preserve" fill="#ff0000" fill-rule="nonzero" stroke="none" stroke-width="1" stroke-linecap="butt" stroke-linejoin="miter" stroke-miterlimit="10" stroke-dasharray="" stroke-dashoffset="0" font-family="Sans Serif" font-weight="normal" text-anchor="start" style="mix-blend-mode: normal"><tspan x="0" dy="0">pink</tspan></text><text transform="translate(213.25375,232.99399) scale(0.5,0.5)" font-size="40" xml:space="preserve" fill="#ff0000" fill-rule="nonzero" stroke="none" stroke-width="1" stroke-linecap="butt" stroke-linejoin="miter" stroke-miterlimit="10" stroke-dasharray="" stroke-dashoffset="0" font-family="Sans Serif" font-weight="normal" text-anchor="start" style="mix-blend-mode: normal"><tspan x="0" dy="0">rare</tspan></text><text transform="translate(184.5,153.75) scale(0.43499,0.43499)" font-size="40" xml:space="preserve" fill="#000000" fill-rule="nonzero" stroke="none" stroke-width="1" stroke-linecap="butt" stroke-linejoin="miter" stroke-miterlimit="10" stroke-dasharray="" stroke-dashoffset="0" font-family="Sans Serif" font-weight="normal" text-anchor="start" style="mix-blend-mode: normal"><tspan x="0" dy="0">Blookstaition</tspan></text></g></g></svg>