<svg version="1.1" xmlns="http://www.w3.org/2000/svg" xmlns:xlink="http://www.w3.org/1999/xlink" width="31.23587" height="75.66409" viewBox="0,0,31.23587,75.66409"><g transform="translate(-227.85304,-155.24803)"><g data-paper-data="{&quot;isPaintingLayer&quot;:true}" fill="#00daff" fill-rule="nonzero" stroke="none" stroke-width="0.5" stroke-linecap="butt" stroke-linejoin="miter" stroke-miterlimit="10" stroke-dasharray="" stroke-dashoffset="0" style="mix-blend-mode: normal"><path d="M242.13559,194.50197c-6.11794,0 -6.11794,-2.5 -6.11794,-2.5l0.11881,-0.25971c-5.49835,-11.23542 -3.78684,-22.41015 -6.21374,-33.77372c0,0 -0.52999,-2.4906 5.56494,-2.70718c6.09494,-0.21657 6.62493,2.27403 6.62493,2.27403c2.36901,11.17175 0.61908,22.18824 6.02213,33.22628l0.11881,1.24029c0,0 0,2.5 -6.11794,2.5z"/><path d="M227.85304,214.95704c0,-8.81174 6.99239,-15.95507 15.61794,-15.95507c8.62555,0 15.61794,7.14333 15.61794,15.95507c0,8.81174 -6.99239,15.95507 -15.61794,15.95507c-8.62555,0 -15.61794,-7.14333 -15.61794,-15.95507z"/></g></g></svg>