<svg version="1.1" xmlns="http://www.w3.org/2000/svg" xmlns:xlink="http://www.w3.org/1999/xlink" width="85.51516" height="126.61129" viewBox="0,0,85.51516,126.61129"><g transform="translate(-197.2424,-116.69436)"><g data-paper-data="{&quot;isPaintingLayer&quot;:true}" fill-rule="nonzero" stroke="none" stroke-width="0.5" stroke-linecap="butt" stroke-linejoin="miter" stroke-miterlimit="10" stroke-dasharray="" stroke-dashoffset="0" style="mix-blend-mode: normal"><path d="M246.13407,227.75492c-0.05317,1.39156 -1.47133,1.39156 -1.47133,1.39156h-1.21293c-12.45702,0 -20.32685,-2.87429 -29.50054,-11.43825c-13.76945,-17.47257 -19.9533,-35.61452 -15.02922,-57.82916c2.12931,-9.56223 10.68279,-40.77681 21.24173,-43.16958c0,0 0.76286,-0.12713 1.27511,0.35561c15.34582,1.76601 34.84366,11.14767 38.88241,27.16494c2.36373,18.91865 -3.70694,38.03716 -9.3036,55.84967c-0.76605,3.50442 -1.43517,6.80732 -1.88227,10.17638c-0.13745,0.65982 -0.25282,1.33988 -0.34565,2.04026c-0.24841,1.87427 -0.89844,6.56883 -0.40238,9.53965c-0.04405,0.87724 -0.0617,1.73442 -0.06014,2.54312l0.05919,0.09701l-0.04809,0.00687l0.22353,1.56472c0.09182,0.72521 0.71098,1.286 1.46112,1.286c0.02699,0 0.05381,-0.00072 0.08044,-0.00216c8.85316,6.756 22.11458,7.09086 32.65612,10.47117c-0.32001,0.92981 -0.6275,1.85365 -0.90841,2.76966c-11.94257,-4.05178 -26.01364,-4.16984 -35.7151,-12.81748zM245.35408,224.94889c0.27413,-0.27413 0.54823,-0.40392 0.80336,-0.44643c-0.02978,-1.21756 -0.07273,-2.44915 -0.07153,-3.67613c-0.4701,-0.43555 -0.47013,-1.12347 -0.47013,-1.12347l0.00009,-2.09329c0.12104,-6.40065 1.18512,-12.0582 2.55299,-18.28665c5.43366,-17.35279 11.56143,-36.10899 9.25485,-54.552c-3.64182,-14.71806 -22.58217,-23.25846 -36.48931,-24.79821c0,0 -0.3866,-0.04294 -0.74038,-0.28337c-2.45037,0.67834 -3.75873,5.64384 -5.11049,7.89266c-6.04868,10.06271 -10.74016,21.44681 -13.28788,32.93607c-4.73978,21.27248 1.19993,38.44159 14.3218,55.19608c8.59804,7.97821 15.70638,10.4866 27.33238,10.4866h1.21293c0,0 0.10498,-0.00001 0.25887,0.02801c-0.08015,-0.36845 -0.02327,-0.82415 0.43246,-1.27988z" fill="#00ff66"/><path d="M245.00572,226.51109c-0.15389,-0.02802 -0.26008,-0.02766 -0.26008,-0.02766l-1.21891,0.00168c-11.626,0 -18.89653,-2.51078 -27.49457,-10.48898c-13.12186,-16.75449 -19.24428,-34.3279 -14.5045,-55.60038c2.54772,-11.48926 7.42052,-23.03258 13.4692,-33.09529c1.35176,-2.24882 2.69848,-7.22337 5.14884,-7.90171c0.35378,0.24043 0.74409,0.28279 0.74409,0.28279c13.90714,1.53975 33.10107,10.16372 36.74288,24.88178c2.30658,18.44301 -3.85721,37.6453 -9.29088,54.9981c-1.36787,6.22845 -2.50244,11.9237 -2.62348,18.32435l-0.00413,2.09472c0,0 0.00039,0.6878 0.47049,1.12335c-0.00121,1.22698 0.03577,2.46061 0.06555,3.67817c-0.25513,0.04251 -0.53388,0.17382 -0.80801,0.44796c-0.45573,0.45573 -0.51665,0.91267 -0.43649,1.28112z" data-paper-data="{&quot;noHover&quot;:false,&quot;origItem&quot;:[&quot;Path&quot;,{&quot;applyMatrix&quot;:true,&quot;segments&quot;:[[[481.64645,377.07502],[-0.15471,0.15471],[0.09306,-0.09306]],[[481.91917,376.92347],[-0.08661,0.01443],[-0.01011,-0.41333]],[[481.89489,375.67551],[-0.00041,0.41653],[-0.15959,-0.14786]],[481.73529,375.29412],[[481.73532,374.5835],[0,0],[0.04109,-2.17287]],[[482.602,368.37562],[-0.46436,2.11441],[1.8446,-5.89086]],[[485.7438,349.85652],[0.78303,6.26096],[-1.23631,-4.99643]],[[473.35655,341.43812],[4.72114,0.52271],[0,0]],[[473.10521,341.34192],[0.1201,0.08162],[-0.83184,0.23028]],[[471.37032,344.02129],[0.45889,-0.76342],[-2.05338,3.41605]],[[466.8594,355.2023],[0.86489,-3.90033],[-1.60904,7.2215]],[[471.72131,373.94005],[-4.45456,-5.68775],[2.91883,2.70841]],[[481,377.5],[-3.94675,0],[0,0]],[481.41176,377.5],[[481.49964,377.50951],[-0.05224,-0.00951],[-0.02721,-0.12508]]],&quot;closed&quot;:true}]}" fill="#00ff66"/><path d="M235.66471,152.34747c0,-0.81343 0.65942,-1.47286 1.47286,-1.47286c0.81343,0 1.47286,0.65943 1.47286,1.47286c0,0.81343 -0.65943,1.47286 -1.47286,1.47286c-0.81343,0 -1.47286,-0.65942 -1.47286,-1.47286z" fill="#66ffa3"/><path d="M242.02948,228.8889c-1.98146,-1.50549 -2.88659,-3.16272 -4.04073,-5.49076c-10.42703,-13.81564 -12.77038,-33.3873 -16.81273,-49.76577c-3.53197,-15.04736 -1.81772,-33.4212 2.34166,-48.20097c0,0 0.40466,-1.41618 1.82084,-1.01156c1.41618,0.40462 1.01156,1.82081 1.01156,1.82081c-4.1184,14.17154 -5.72317,32.25372 -2.31044,46.70125c3.9821,16.13336 6.27078,35.25323 16.45488,48.90759c1.09973,2.18333 1.70486,3.6567 3.77228,5.01944l0.65587,1.6463c0,0 0,0.30931 -0.14175,0.64445c-0.06481,-0.00871 -0.13094,-0.01321 -0.19814,-0.01321c-0.15228,0 -0.29916,0.02311 -0.43733,0.06601l-0.5662,0.16177c-0.50098,-0.15344 -0.92049,-0.22826 -1.2441,-0.21299c-0.06789,0.00987 -0.13564,0.01946 -0.20324,0.02877c-0.04692,-0.10493 -0.07962,-0.20818 -0.10243,-0.30114z" fill="#00b749"/><path d="M230.59722,205.58497c-3.83344,-7.60063 -4.79165,-15.46159 -4.98777,-24.56441c-0.09476,0.04265 -0.20048,0.07942 -0.31834,0.10888c-1.42888,0.35722 -1.7861,-1.07168 -1.7861,-1.07168l-0.39334,-1.58733c-1.02764,-2.64151 -0.91309,-4.81521 -0.91309,-7.60701c0,-16.97109 -2.18846,-36.7911 17.94831,-41.82727c0,0 1.42888,-0.35722 1.7861,1.07165c0.35722,1.42888 -1.07165,1.7861 -1.07165,1.7861c-18.40327,4.59905 -15.71705,23.53329 -15.71705,38.96952c0,2.12359 -0.13582,3.81918 0.42092,5.71215c-0.00006,-0.08042 -0.00009,-0.16092 -0.00009,-0.24155c0.00634,-12.62345 1.7398,-42.70981 21.11928,-38.89694c0,0 1.44425,0.28886 1.15539,1.73311c-0.28886,1.44425 -1.73311,1.15539 -1.73311,1.15539c-16.67738,-3.39765 -17.60127,25.68128 -17.59585,36.00843c0,6.71643 0.14538,12.62301 1.30053,18.17212c-0.02616,-1.14632 -0.03809,-2.29451 -0.03809,-3.44355c0.00577,-11.50496 4.16207,-21.13574 10.33835,-30.68189c2.57603,-3.98157 6.02075,-11.31829 10.40792,-7.23368c0,0 0.88371,1.17829 -0.29457,2.062c-1.17828,0.88371 -2.062,-0.29458 -2.062,-0.29458c-0.093,-1.2091 -5.67934,7.22723 -7.15611,9.5461c-5.23259,8.21636 -8.29298,16.8279 -8.28786,26.60205c0,4.81849 0.25854,9.46057 0.88321,13.97435c1.27827,2.37357 2.87514,4.73454 4.86938,7.12407l0.21828,0.26193c0,0 0.9429,1.13151 -0.18858,2.0744c-1.13148,0.94289 -2.07438,-0.18858 -2.07438,-0.18858l-0.21828,-0.26193c-0.40724,-0.48937 -0.79905,-0.9783 -1.17602,-1.46706c1.39392,5.69431 3.50826,11.21809 6.5788,16.67672c-0.23782,0.02799 -0.47386,0.05248 -0.7082,0.07362c-0.92614,-0.1301 -1.84566,-0.22894 -2.76447,-0.28671c-4.28351,-7.30138 -6.49463,-15.24682 -7.54153,-23.45843z" fill="#00b749"/><path d="M229.89985,173.3888c-1.26298,0.75779 -2.02076,-0.50516 -2.02076,-0.50516l-1.29329,-2.15803c-6.16002,-12.53564 -6.66524,-22.22993 -18.10584,-30.66599c0,0 -1.17829,-0.88372 -0.29457,-2.062c0.88371,-1.17828 2.062,-0.29457 2.062,-0.29457c11.77346,9.01881 12.55641,18.60644 18.92602,31.61486l1.23161,2.05016c0,0 0.75781,1.26294 -0.50516,2.02073z" fill="#00b749"/><path d="M259.35506,236.6313c-8.66117,-3.46716 -14.71512,-9.15817 -19.82369,-15.90884c-0.29348,0.07423 -0.55144,0.03895 -0.76809,-0.04577c0.22443,0.8666 0.4489,1.7332 0.67333,2.5998l0.38925,1.50296c0,0 0.36925,1.42582 -1.05657,1.79509c-1.42581,0.36927 -1.79509,-1.05657 -1.79509,-1.05657c-0.24617,-0.95056 -0.88159,-3.40403 -1.12776,-4.35459c-0.7982,-3.08414 -1.73494,-6.61661 -2.89909,-10.27153c-1.13125,-1.84231 -2.25126,-3.71652 -3.38498,-5.60534c0,0 -0.50593,-0.84324 -0.00201,-1.56509c-4.61414,-5.98979 -10.48777,-10.21323 -17.85471,-6.29166c0,0 -1.31735,0.65866 -1.97604,-0.65869c-0.65869,-1.31735 0.65866,-1.97604 0.65866,-1.97604c6.86234,-3.28029 12.40317,-1.46185 16.97964,2.50114c-3.85745,-7.13154 -9.15611,-13.05532 -16.67817,-14.90428c0,0 -1.42888,-0.35722 -1.07165,-1.7861c0.35722,-1.42888 1.78611,-1.07165 1.78611,-1.07165c6.43895,1.63369 11.38333,5.83723 15.24599,11.2197l-0.12104,-0.36586c-0.67925,-1.23753 -1.31839,-2.75227 -1.94176,-4.45681c-4.59699,-8.10316 -11.04846,-14.8518 -19.14299,-13.2027c0,0 -1.44426,0.28886 -1.73311,-1.1554c-0.28886,-1.44425 1.1554,-1.73311 1.1554,-1.73311c6.63973,-1.30636 12.25695,1.90238 16.80887,7.00317c-3.19339,-10.50572 -6.9556,-22.3477 -14.39974,-24.34192c0,0 -1.41619,-0.40463 -1.01156,-1.82081c0.40463,-1.41618 1.8208,-1.01156 1.8208,-1.01156c11.55937,3.46599 14.54167,22.9957 19.15888,35.10129c3.60102,6.33783 6.09792,13.38153 7.44679,18.438c0.48516,1.82157 0.90446,3.52028 1.36364,5.156c1.8115,2.98498 3.41791,5.96071 4.87574,8.45992l1.25779,2.09629c0,0 0.20714,0.3452 0.22434,0.78294c1.92981,2.48607 4.01023,4.81019 6.33668,6.90036c0.15978,0.27308 0.40499,0.49009 0.69894,0.6144c3.12564,2.68754 6.69337,4.95792 10.92042,6.6473c7.07441,2.35622 14.45969,4.13788 21.51266,6.60385c-0.29461,0.9546 -0.56096,1.90078 -0.78314,2.83646c-7.11267,-2.51932 -14.5987,-4.29111 -21.74273,-6.67434z" fill="#00b749"/><path d="" fill="#00ff66"/><path d="" fill="#00ff66"/><path d="" fill="#00ff66"/><path d="" fill="#00ff66"/><path d="" fill="#00ff66"/><path d="" fill="#00ff66"/><path d="" fill="#00ff66"/><path d="" fill="#00ff66"/><path d="" fill="#00ff66"/><path d="" fill="#00ff66"/><path d="" fill="#00ff66"/><path d="" fill="#00ff66"/><path d="" fill="#00ff66"/></g></g></svg>