<svg version="1.1" xmlns="http://www.w3.org/2000/svg" xmlns:xlink="http://www.w3.org/1999/xlink" width="49.94126" height="38.71018" viewBox="0,0,49.94126,38.71018"><g transform="translate(-211.4089,-166.87252)"><g data-paper-data="{&quot;isPaintingLayer&quot;:true}" fill="#000000" fill-rule="nonzero" stroke="none" stroke-width="0.5" stroke-linecap="butt" stroke-linejoin="miter" stroke-miterlimit="10" stroke-dasharray="" stroke-dashoffset="0" style="mix-blend-mode: normal"><path d="M213.56729,169.848c2.682,-4.90133 6.84375,1.94143 8.5539,4.06314c0.67123,0.83277 0.98695,2.77241 2.01956,2.49355c1.8342,-0.49534 -0.13231,-11.04943 4.97674,-9.34641c1.91319,0.63773 1.77155,1.83803 1.58114,3.16228c-0.62174,4.32389 -1.27173,10.46604 -3.42306,14.24702c-1.09233,1.91978 -3.6718,0.08147 -4.35723,-0.92734c-1.03818,-1.52797 -1.43369,-2.44129 -2.88862,-4.23954c-0.59956,-0.74104 -1.18484,-1.49359 -1.7864,-2.23301c-0.11667,-0.14341 -0.26399,-0.47005 -0.39026,-0.64346c-0.16711,0.7858 -0.35877,1.57235 -0.54236,2.33305c0.03385,0.81836 0.13237,1.6537 0.06648,2.45206c-0.10667,1.29239 -0.36853,2.28204 -0.06692,3.63933c0.04655,0.19068 0.07123,0.38994 0.07123,0.59496c0,1.38071 -1.11929,2.5 -2.5,2.5c-0.56177,0 -1.08027,-0.18529 -1.49771,-0.4981c-2.79922,-0.28196 -1.82311,-3.34749 -1.75766,-5.62764c0.01803,-0.62807 0.1685,-1.24763 0.33484,-1.86718c0.05993,-2.49875 0.31682,-5.2354 0.74008,-7.33133c0.14537,-1.2632 0.3919,-2.33956 0.83148,-2.70631c0.01153,-0.02212 0.02312,-0.04383 0.03476,-0.06511z"/><path d="M239.23309,186.80439c0.07451,0.07697 0.14011,0.16278 0.19459,0.25964c1.18478,2.10624 1.35786,9.49075 -1.73428,9.49075c-2.31722,0 -4.01889,-8.70322 -2.60776,-9.50958l1.79608,-1.02633l-0.00421,-0.00094l-0.06231,-0.03115l-0.06966,-0.01742l-0.01393,-0.02438l-1.06268,-0.53134l-0.27931,-0.23941l-0.16946,-0.02365l-0.23054,-0.31921l-0.29897,-0.25626l-0.00949,-0.17084l-0.21539,-0.29823l-0.30214,-0.75536l-0.06397,-0.46914l-0.11484,-0.45934v-0.75536l0.04364,-0.17457l-0.01852,-0.17899l0.13637,-0.95456l0.14497,-2.46442l0.0405,-0.12921l-0.0108,-0.13498l0.15107,-0.90643l0.10815,-0.24874l0.03665,-0.26874l0.55028,-1.37571l-0.006,-0.02966l0.04215,-0.06069l0.01786,-0.04466l0.34187,-0.47336l0.33306,-0.4796l0.0362,-0.03167l0.04326,-0.0599l0.02998,-0.00418l1.09915,-0.96175l0.0856,-0.0439l0.06066,-0.07466l0.44248,-0.33186l0.00708,-0.02123l0.05762,-0.0273l0.09711,-0.07283l0.5098,-0.21465l0.4999,-0.2368l0.11902,-0.0238l0.05877,-0.02474l0.02054,0.00888l0.55703,-0.11141l0.34686,0.01652l0.14343,-0.08452l0.39101,0.10997l0.40572,0.01932l0.10934,0.12554l0.33428,0.09402l1.01537,0.58021c0.30954,0.16935 0.57933,0.40229 0.7918,0.68124l1.20067,0.24013l0.69175,1.08703l0.02203,0.06609l0.03401,0.05668l0.26154,0.30513l0.07812,0.15625l0.02438,0.01393l0.01742,0.06966l0.03115,0.06231l0.02838,0.12771l0.01516,0.02526l-0.00526,0.01928l0.08633,0.38849l0.13932,0.55728v0.06966l0.01558,0.07009l-0.01558,0.02336v1.04546l-0.06678,0.2671l0.00724,0.27523l-0.30214,1.35965l-0.04158,0.08316l-0.00432,0.09288l-0.45322,1.51072l-0.1464,0.24622l-0.07756,0.27576l-0.60429,1.05751l-0.1093,0.11406l-0.0613,0.1456l-0.45322,0.60429l-0.06462,0.05251l-0.03724,0.07447l-0.75972,0.88634l-0.0017,0.01836l-0.04404,0.03501l-0.10097,0.1178l-0.44065,0.31272l-0.42299,0.33622l-0.14124,0.0642l-0.04588,0.03256l-0.01811,-0.00347l-1.23371,0.56078l-0.00736,0.01288l-0.04662,0.01165l-0.16888,0.07676l-0.5208,0.09566l-0.5137,0.12843h-0.1855l-0.04726,0.00868l-0.01203,-0.00868h-0.29965c0.33331,0.13299 0.64653,0.28595 0.87555,0.52253zM240.01289,176.78414l-0.37238,0.32584l-0.28091,0.70227l-0.08476,0.50856l-0.14326,2.43534l-0.03173,0.10123l0.00328,0.03173l0.41593,-0.48526l0.31097,-0.41463l0.38525,-0.67418l0.34492,-1.14974l0.22287,-1.0029v-0.1254c-0.27395,-0.04234 -0.53322,-0.12916 -0.77019,-0.25285z"/><path d="M261.3032,179.09262l-0.30214,1.6618l-0.04786,0.10581l-0.00302,0.11609l-0.69627,2.50658l0.00648,0.01814l-0.02592,0.05184l-0.03965,0.14273l-0.26785,0.47226l-0.2428,0.48561l-0.09641,0.11248l-0.02859,0.05041l-0.01868,0.00473l-0.76276,0.88988l-0.07994,0.05673l-0.05043,0.08406l-0.45322,0.45322l-0.21352,0.12811l-0.1675,0.18425l-0.77071,0.51381l-0.0108,0.02592l-0.06696,0.02592l-0.05796,0.03864l-0.54097,0.1932l-0.5357,0.20737l-0.06912,0.00864l-0.06762,0.02415l-0.02512,-0.01256l-1.04672,0.13084l-0.15683,-0.01901l-0.15326,0.03831h-1.35965l-0.47848,-0.11962l-0.18443,0.0503l-0.27545,-0.16527l-0.31164,-0.07791l-0.09485,-0.16598l-0.42292,-0.25375l-0.60429,-0.60429l-0.20676,-0.34461l-0.26154,-0.30513l-0.90643,-1.81287l-0.01631,-0.07338l-0.04549,-0.05985l-0.33849,-0.78981l-0.00436,-0.00249l-0.00461,-0.01845l-0.10575,-0.24675l-0.08011,-0.4967l-0.12202,-0.4881v-0.26845l-0.00303,-0.01878l0.00303,-0.00401v-1.97484l0.04364,-0.17457l-0.01852,-0.17899l0.15107,-1.05751l0.13454,-0.33023l0.06442,-0.35072l0.75536,-1.6618l0.22758,-0.28631l0.16689,-0.32544l1.05751,-1.20858l0.21578,-0.14985l0.16566,-0.20389l0.60429,-0.45322l0.02753,-0.01159l0.01937,-0.02274l1.05751,-0.75536l0.1845,-0.07268l0.15056,-0.12905l0.76054,-0.38027l0.01393,-0.02438l0.06966,-0.01742l0.06231,-0.03115l0.56075,-0.12461l0.55728,-0.13932h0.06966l0.07009,-0.01558l0.02336,0.01558h0.2901l0.38988,0.09747l0.40069,0.03082l1.75818,0.58606c0.40146,0.12347 0.75984,0.34531 1.04698,0.6374l0.01009,0.00865l0.15156,0.01535l0.27091,0.34677l0.33411,0.28638l0.00845,0.1521l0.17977,0.2301l0.49753,1.11943l0.00973,0.00556l0.00934,0.03735l0.08769,0.19731l0.08952,0.51154l0.12595,0.50381v0.21592l0.00664,0.03792l-0.00664,0.00904v2.15428l-0.05511,0.22046zM255.89589,176.57164l-0.86315,0.61654l-0.37181,0.27886l-0.64304,0.7349l-0.45485,1.00068l-0.07527,0.52689l0,1.57527l0.22214,0.51833l0.48245,0.9649l0.43188,-0.05398l0.20941,-0.13961l0.21028,-0.21028l0.48211,-0.56246l0.57605,-2.07379l0.24144,-1.3279l0,-1.6612l-0.01979,-0.04453z"/><path d="M228.02478,185.51188c1.13563,0.70008 1.91625,1.91537 2.37131,3.2939c1.13604,3.44138 0.24318,7.90006 -2.22024,7.90006c-3.34469,0 -3.30059,-9.57615 -2.21615,-10.10344z"/><path d="M237.87968,197.57488c1.47434,0.39395 5.29038,3.65181 4.24819,5.73619c-2.81967,5.63934 -3.94624,-0.99453 -6.04167,-1.01555c-1.96652,-0.01973 -4.04786,-0.40976 -5.89373,0.26874c-0.17162,0.06308 -0.32435,0.22827 -0.47222,0.44637c-0.11365,0.56487 -0.4177,1.06084 -0.84232,1.41808c-0.38739,0.54402 -0.87416,0.9125 -1.60851,0.58611c-1.01254,0 -1.88448,-0.60194 -2.2775,-1.4675c-0.18089,-0.25612 -0.27095,-0.5397 -0.21615,-0.85288c-0.00421,-0.05932 -0.00635,-0.11922 -0.00635,-0.17961c0,-0.56886 0.19,-1.09334 0.50999,-1.51345c2.04452,-4.36088 7.97689,-4.66187 12.60028,-3.42649z"/></g></g></svg>