<svg version="1.1" xmlns="http://www.w3.org/2000/svg" xmlns:xlink="http://www.w3.org/1999/xlink" width="244.68583" height="297.16589" viewBox="0,0,244.68583,297.16589"><g transform="translate(-127.27698,3.72035)"><g data-paper-data="{&quot;isPaintingLayer&quot;:true}" fill-rule="nonzero" stroke="none" stroke-linecap="butt" stroke-linejoin="miter" stroke-miterlimit="10" stroke-dasharray="" stroke-dashoffset="0" style="mix-blend-mode: normal"><path d="M219.5948,190.94098c-3.59529,-2.39685 -1.19843,-5.99214 -1.19843,-5.99214l1.273,-1.32274c0.31913,-1.59565 0.63826,-3.19132 0.95739,-4.78698c0,0 0.20393,-1.01967 0.91192,-1.95853c-1.6449,-0.14935 -3.36544,-0.24229 -4.4832,1.35943c-1.67001,2.39315 -0.78314,6.68412 -0.97523,9.09129c-0.35838,4.49106 -1.87399,8.81616 -2.98872,13.18141c-0.05636,0.2207 -0.10977,0.44193 -0.16046,0.66365c3.47438,-0.10778 7.30459,-0.47028 10.23289,-1.52754c8.40838,-3.03586 8.20142,-16.41619 7.01163,-23.08152c0,0 -0.09224,-0.5535 -0.0108,-1.29483c-0.89391,0.30038 -1.78597,0.60732 -2.68447,0.87882c2.2009,1.48111 1.62059,4.38264 1.62059,4.38264c-0.31913,1.59565 -0.63826,3.19132 -0.95739,4.78698l-2.55659,4.42161c0,0 -2.39685,3.59529 -5.99214,1.19843zM238.69999,175.14658c1.77876,11.29851 0.31453,27.16844 -12.13629,32.44739c-4.05395,1.71882 -9.88414,2.13785 -14.68062,2.23611c-0.14482,2.12427 -0.28767,4.24874 -0.59994,6.34253c-0.39902,2.67535 0.84705,6.0438 -0.95836,8.05805c-1.97756,2.20631 -5.56311,2.40309 -8.52363,2.52083c-1.85545,0.0738 -3.39054,-1.59889 -5.20905,-1.97466c-3.84507,-0.79453 -8.8915,0.07614 -12.85165,0.02218l-1.23815,0.42709c-0.20182,1.27882 -0.95698,2.88708 -3.39355,3.37438c-3.63763,0.72753 -4.77687,-2.29254 -5.02641,-3.16163c-0.34723,-0.41091 -0.65027,-0.9417 -0.87764,-1.62381c-0.39807,-1.19418 -0.33227,-2.15645 -0.03911,-2.92057c-4.139,-20.94389 -7.8418,-42.08243 -7.8418,-63.54871c0,-3.5573 0.57732,-7.14954 0.07797,-10.67161c-0.33705,-2.37741 -2.79094,-4.81182 -1.76664,-6.98358c3.24071,-6.87113 9.10656,-5.68825 14.62623,-5.81371c4.7722,0 10.80297,0.8793 15.45859,0.07797c1.69367,-0.29151 3.09915,-1.59111 4.78698,-1.91478c8.58583,-1.64656 18.88312,-0.07797 27.62419,-0.07797c21.38183,0 42.76364,0 64.14547,0c2.18716,0.026 4.40761,-0.30306 6.5615,0.07797c1.55673,0.27539 2.7921,1.69517 4.3649,1.85491c1.7967,0.18248 3.62185,-1.40014 5.34776,-0.86845c2.4594,0.75764 4.67531,2.46473 6.30339,4.45772c4.71354,5.77007 2.53168,14.58561 2.7851,21.35053c0.09091,2.4267 1.80987,5.25435 0.4568,7.27085c-1.69422,2.52493 -5.14102,3.55289 -8.12195,4.15264c-4.14087,0.83314 -9.10527,-2.07435 -12.94588,-2.96274c-3.59586,-0.83177 -7.24973,-1.4485 -10.92176,-1.82022c-6.77254,-0.68562 -18.30607,-1.5093 -24.76279,0.66386c-3.47568,1.16983 -6.14544,4.03324 -9.42233,5.67973c-1.91332,0.73868 -3.72969,1.80951 -5.73996,2.21603c-1.91458,0.38716 -3.89625,0.09669 -5.86584,-0.06226c0.29716,0.64993 0.3845,1.17394 0.3845,1.17394z" fill="#a7a7a7" stroke-width="0.5"/><text transform="translate(169.93291,67.4377) scale(1.63582,1.63582)" font-size="40" xml:space="preserve" fill="#8c8c8c" fill-rule="nonzero" stroke="none" stroke-width="1" stroke-linecap="butt" stroke-linejoin="miter" stroke-miterlimit="10" stroke-dasharray="" stroke-dashoffset="0" font-family="Sans Serif" font-weight="normal" text-anchor="start" style="mix-blend-mode: normal"><tspan x="0" dy="0">gun</tspan></text><text transform="translate(127.82846,279.65847) scale(1.10296,1.10296)" font-size="40" xml:space="preserve" fill="#8c8c8c" fill-rule="nonzero" stroke="none" stroke-width="1" stroke-linecap="butt" stroke-linejoin="miter" stroke-miterlimit="10" stroke-dasharray="" stroke-dashoffset="0" font-family="Sans Serif" font-weight="normal" text-anchor="start" style="mix-blend-mode: normal"><tspan x="0" dy="0">uncommon</tspan></text><path d="M233.31587,154.75876c0,6.32891 -6.32891,6.32891 -6.32891,6.32891l-3.84504,-0.08612c-5.69219,-0.96128 -11.09591,-3.31928 -16.80077,-4.20247c-3.45639,-0.5351 -7.10962,0.74362 -10.49163,-0.14792c-3.18091,-0.83853 -5.71883,-3.25275 -8.57823,-4.87913c0,0 -5.42699,-3.2562 -2.17079,-8.68318c3.2562,-5.42699 8.68318,-2.17079 8.68318,-2.17079c1.81488,1.17819 3.33693,3.04519 5.44463,3.53459c2.96823,0.68922 6.12818,-0.60836 9.14038,-0.14792c5.72427,0.87501 11.13989,3.27303 16.85413,4.21125l1.76412,-0.08612c0,0 6.32891,0 6.32891,6.32891z" fill="#000000" stroke-width="0.5"/><path d="M192.7294,196.38405c-6.84798,0 -6.84798,-6.84798 -6.84798,-6.84798v-6.0692c0.02232,-5.5327 0.58673,-11.08641 1.65028,-16.51598c0,0 1.343,-6.71499 8.05799,-5.37199c6.71499,1.343 5.37199,8.05799 5.37199,8.05799c-0.93004,4.53873 -1.40666,9.197 -1.3843,13.82998v6.0692c0,0 0,6.84798 -6.84798,6.84798z" fill="#000000" stroke-width="0.5"/><path d="M278.31252,145.94732c1.7129,4.87694 -3.4258,6.50259 -3.4258,6.50259l-5.31338,1.40283c-4.96009,-0.00942 -9.92704,0.41379 -14.8361,1.08737c0,0 -5.36222,0.727 -6.12827,-4.36206c-0.76602,-5.08907 4.59619,-5.81609 4.59619,-5.81609c5.41825,-0.72655 10.8961,-1.18136 16.36815,-1.1907l1.8876,-0.87522c0,0 5.1387,-1.62565 6.85161,3.25129z" fill="#000000" stroke-width="0.5"/></g></g></svg>