<svg version="1.1" xmlns="http://www.w3.org/2000/svg" xmlns:xlink="http://www.w3.org/1999/xlink" width="133.22449" height="139.44898" viewBox="0,0,133.22449,139.44898"><g transform="translate(-173.38777,-110.27551)"><g data-paper-data="{&quot;isPaintingLayer&quot;:true}" fill-rule="nonzero" stroke-linecap="butt" stroke-linejoin="miter" stroke-miterlimit="10" stroke-dasharray="" stroke-dashoffset="0" style="mix-blend-mode: normal"><path d="M304.11225,180c0,37.12706 -28.70403,67.22449 -64.11224,67.22449c-35.40821,0 -64.11224,-30.09743 -64.11224,-67.22449c0,-37.12706 28.70403,-67.22449 64.11225,-67.22449c35.40821,0 64.11224,30.09743 64.11224,67.22449z" fill="#29ff00" stroke="#000000" stroke-width="5"/><path d="M176.76532,177.15489l0.02512,-1.72128c-0.13832,-0.96825 -0.27665,-1.9365 -0.41496,-2.90476c0,0 -0.34456,-2.41196 2.02772,-2.81383c-0.10703,-3.30294 -0.52288,-7.12612 0.63387,-10.13128c0.64222,-1.66846 2.62619,-2.55733 3.34004,-4.19643c0.30875,-0.70895 0.04991,-1.57736 0.33765,-2.2951c2.49088,-6.21348 6.33825,-12.49322 11.06695,-17.22192c1.41244,-1.11945 2.42324,-2.68984 3.8303,-3.81604c1.48574,-1.18917 3.20324,-2.19073 4.94175,-3.16082c-0.16719,-0.24471 -0.30619,-0.54946 -0.40086,-0.92813c-0.60634,-2.42535 1.81902,-3.03169 1.81902,-3.03169l1.47564,-0.36132c1.17285,-0.32256 2.27904,-1.1064 2.98806,-2.09479c0,0 1.56174,-1.95217 3.51391,-0.39043c0.05018,0.04014 0.09804,0.08055 0.14366,0.12118c1.00448,-0.86551 2.05183,-1.69687 3.26427,-2.40611c3.40048,-1.98916 6.72953,-5.54301 10.63962,-6.49534c2.47338,-0.60241 5.87698,-0.54149 8.60634,-0.79294c0.55187,-0.4096 1.91595,-1.15068 3.28003,0.2134c1.28972,1.28972 0.69754,2.57943 0.28295,3.18265c0.44928,0.69373 0.44928,1.48987 0.44928,1.48987c0,0.471 0.0096,6.79545 -0.03228,7.03992c-0.67485,3.9391 -1.79659,7.71719 -2.04884,11.81078c-0.5845,9.48559 1.03902,19.26081 -0.00588,28.70178c-0.29641,2.67819 -1.34503,5.23504 -1.66262,7.9108c-0.25014,2.10744 0.01493,4.24444 0.01493,6.36666c0,11.96961 2.48397,23.93403 1.2348,35.91159c-0.45106,4.325 -1.34101,8.47479 -1.65605,12.81665c-0.28458,3.92212 0.41582,7.94681 0.00629,11.85679c-0.17504,1.67117 0.29362,3.90835 -1.03822,4.93287c-1.25947,0.96884 -3.16143,-0.32422 -4.74214,-0.48633c-1.46948,-0.48982 -2.83909,-1.43548 -4.38458,-1.53923c-1.9196,-0.12886 -3.95028,0.10646 -5.74074,-0.59761c-5.28397,-2.07785 -10.97709,-5.31789 -15.23806,-9.16443c-0.76407,-0.68976 -1.15908,-1.7381 -1.95606,-2.38956c-0.72473,-0.59241 -1.79118,-0.66013 -2.50931,-1.26051c-0.86417,-0.72248 -1.44323,-1.54817 -1.90781,-2.41531c-0.56011,-0.13178 -1.04757,-0.45192 -1.39186,-0.88992l-1.64543,-2.05679c-1.56112,-1.9514 -3.03674,-4.24473 -4.79519,-6.01846c-2.06815,-2.08612 -3.22943,-1.71069 -3.5087,-5.12686l-0.81148,-2.43444c-0.09499,-0.2642 -0.14674,-0.54902 -0.14674,-0.84593c0,-0.30425 0.05434,-0.5958 0.15386,-0.86548c-0.063,-0.1016 -0.12671,-0.20271 -0.19126,-0.30322c-1.31516,-2.04796 -3.24728,-3.91743 -3.66502,-6.31519c-0.18703,-1.07351 0.06374,-2.19583 0.20965,-3.29964c-2.31676,-0.11908 -2.31676,-2.49537 -2.31676,-2.49537c0.01046,-1.07056 0.11243,-2.04618 0.25968,-2.98982c-0.19736,-0.66386 -0.33883,-1.34837 -0.3273,-2.0171c-0.66735,-0.38923 -1.49432,-1.01421 -2.51988,-1.93959c-1.21393,-1.09536 -1.27016,-3.15693 -1.09153,-4.7822c0.17796,-1.61918 2.36444,-3.36354 3.15249,-5.00705c-1.54829,-0.53625 -1.54829,-2.35267 -1.54829,-2.35267z" fill="#ff0000" stroke="none" stroke-width="0.5"/><path d="M203.74831,213.25693v-14.10885h74.27891v14.10885z" fill="#ffffff" stroke="#000000" stroke-width="0"/><path d="M252.29933,192.71612c0,5.84408 -5.5736,10.58163 -12.44898,10.58163c-6.87538,0 -12.44898,-4.73755 -12.44898,-10.58163c0,-5.84408 5.5736,-10.58164 12.44898,-10.58164c6.87538,0 12.44898,4.73756 12.44898,10.58164z" fill="#ffffff" stroke="none" stroke-width="0"/><path d="M248.56464,176.53244c0,4.469 -3.62284,8.09184 -8.09184,8.09184c-4.469,0 -8.09184,-3.62284 -8.09184,-8.09184c0,-4.469 3.62284,-8.09184 8.09184,-8.09184c4.469,0 8.09184,3.62284 8.09184,8.09184z" fill="#ffffff" stroke="none" stroke-width="0"/><path d="M245.65988,163.6685c0,3.55228 -2.50812,6.43197 -5.60204,6.43197c-3.09392,0 -5.60205,-2.87969 -5.60205,-6.43197c0,-3.55228 2.50813,-6.43197 5.60205,-6.43197c3.09392,0 5.60204,2.87969 5.60204,6.43197z" fill="#ffffff" stroke="none" stroke-width="0"/><path d="M235.40772,159.39367c0.16025,0.01295 0.31426,0.03407 0.454,0.07347c0,0 0.48524,0.13864 0.751,0.54806c0.22755,-0.30927 0.59409,-0.50996 1.0075,-0.50996c0.69036,0 1.25,0.55964 1.25,1.25c0,0.69036 -0.55964,1.25 -1.25,1.25c-0.45359,0 -0.85075,-0.24159 -1.06982,-0.60312c-0.46168,0.72991 -1.37548,0.46883 -1.37548,0.46883c-0.99199,-0.28669 -3.07125,-0.72931 -3.66787,-1.67857c-0.64412,-1.02484 -0.3968,-6.42571 0.33039,-7.35401c1.78658,-2.28067 7.78855,-1.36654 10.25709,-1.35613c1.26357,0.00533 2.83261,-0.19573 3.93346,0.71015c1.9826,1.63147 1.62191,5.11708 1.59165,7.40325c-0.56554,0.76909 -0.78802,2.01443 -1.69663,2.30726c-0.59187,0.19075 -1.07655,-0.49609 -1.59216,-0.94291c0.00604,0.04982 0.00915,0.10053 0.00915,0.15198c0,0.69036 -0.55964,1.25 -1.25,1.25c-0.69036,0 -1.25,-0.55964 -1.25,-1.25c0,-0.52474 0.32334,-0.97396 0.78165,-1.1593c-1.1313,-0.5825 -2.3478,-1.10865 -3.45343,-1.51209c-1.15457,-0.4213 -4.40016,-1.49505 -3.76049,-0.26595z" fill="#000000" stroke="none" stroke-width="0.5"/><path d="M236.60803,167.65193c0,-0.69036 0.55964,-1.25 1.25,-1.25c0.69036,0 1.25,0.55964 1.25,1.25c0,0.69036 -0.55964,1.25 -1.25,1.25c-0.69036,0 -1.25,-0.55964 -1.25,-1.25z" fill="#000000" stroke="none" stroke-width="0.5"/><path d="M242.49546,166.0452c0.69036,0 1.25,0.55964 1.25,1.25c0,0.69036 -0.55964,1.25 -1.25,1.25c-0.34887,0 -0.66437,-0.14292 -0.89112,-0.37341c-0.02329,0.66987 -0.57368,1.20577 -1.24923,1.20577c-0.69036,0 -1.25,-0.55964 -1.25,-1.25c0,-0.69036 0.55964,-1.25 1.25,-1.25c0.34887,0 0.66437,0.14292 0.89112,0.37341c0.02329,-0.66987 0.57368,-1.20577 1.24923,-1.20577z" fill="#000000" stroke="none" stroke-width="0.5"/><path d="M238.51056,163.96577c0,-0.69036 0.55964,-1.25 1.25,-1.25c0.69036,0 1.25,0.55964 1.25,1.25c0,0.69036 -0.55964,1.25 -1.25,1.25c-0.69036,0 -1.25,-0.55964 -1.25,-1.25z" fill="#ffa000" stroke="none" stroke-width="0.5"/><path d="M217.35388,184.00274c-0.88388,0.88388 -1.76777,0 -1.76777,0l-0.32996,-0.39265l-0.38931,0.97484c0,0 -0.55902,1.11803 -1.67705,0.55902c-1.11803,-0.55901 -0.55902,-1.67705 -0.55902,-1.67705l0.32157,-0.34805c0,-0.78232 0,-1.56463 0,-2.34695c-0.47699,0.03107 -0.95257,0.08554 -1.42307,0.16486l-1.51884,0.43604c0,0 -1.20191,0.3434 -1.54531,-0.85851c-0.3434,-1.20191 0.8585,-1.5453 0.8585,-1.5453l1.65587,-0.47102c0.71274,-0.11773 1.43366,-0.19792 2.15598,-0.23463l0.0268,-0.14641c1.05427,-1.51034 1.05121,-2.04599 3.02053,-2.56408c1.70147,-0.44763 4.18241,-0.03343 5.95633,-0.03343c3.72457,0 7.47048,-0.24458 11.1299,0.4778c0,0 1.22573,0.24514 0.98058,1.47087c-0.24515,1.22573 -1.47087,0.98058 -1.47087,0.98058c-3.89543,-0.79035 -8.02781,-0.42925 -12.00021,-0.42925c-1.94581,0 -3.61477,-0.46512 -4.88559,0.68689c0.48558,1.08611 0.67453,2.12435 1.0826,3.33697l0.37833,0.1917c0,0 0.88388,0.88388 0,1.76777z" fill="#a97b00" stroke="none" stroke-width="0.5"/><path d="M258.85202,169.76286c0.88389,0.88388 0,1.76776 0,1.76776l-0.49232,0.43954c-2.37281,3.89837 -4.80499,6.95632 -9.68896,6.95632c0,0 -1.25,0 -1.25,-1.25c0,-1.25 1.25,-1.25 1.25,-1.25c3.87365,0 5.6673,-2.55509 7.54523,-5.74256l0.86828,-0.92106c0,0 0.88388,-0.88388 1.76776,0z" fill="#a97b00" stroke="none" stroke-width="0.5"/><path d="M259.85195,176.18205c-1,0.75 -1.75,-0.25 -1.75,-0.25l-0.75216,-1.01394c-0.59983,-1.03949 -0.91132,-2.24718 -1.07554,-3.43603c0,0 -0.06398,-0.51181 0.21904,-0.91899c0.01424,-0.30482 0.10628,-0.52997 0.23449,-0.69629c-0.00964,-0.07832 -0.00964,-0.12712 -0.00964,-0.12712c0,-0.98265 0,-1.9653 0,-2.94796v-0.90706c0,0 0,-1.25 1.25,-1.25c1.25,0 1.25,1.25 1.25,1.25c0,0.8679 0,2.4434 0,3.47656c1.04311,-0.07859 1.88741,-0.31528 2.98976,-0.98394l1.48763,-0.50374c0,0 1.18585,-0.39528 1.58114,0.79057c0.39528,1.18585 -0.79057,1.58114 -0.79057,1.58114l-1.23356,0.40332c-1.51389,0.89912 -2.80847,1.15625 -4.3973,1.22515c0.11435,0.62161 0.30481,1.23298 0.6383,1.75818l0.60843,0.80018c0,0 0.75,1 -0.25,1.75z" fill="#a97b00" stroke="none" stroke-width="0.5"/><text transform="translate(209.21348,136.70731) scale(0.24012,0.24012)" font-size="40" xml:space="preserve" fill="#000000" fill-rule="nonzero" stroke="none" stroke-width="1" stroke-linecap="butt" stroke-linejoin="miter" stroke-miterlimit="10" stroke-dasharray="" stroke-dashoffset="0" font-family="Sans Serif" font-weight="normal" text-anchor="start" style="mix-blend-mode: normal"><tspan x="0" dy="0">mini snowman</tspan></text><text transform="translate(220.55177,237.76941) scale(0.5,0.5)" font-size="40" xml:space="preserve" fill="#000000" fill-rule="nonzero" stroke="none" stroke-width="1" stroke-linecap="butt" stroke-linejoin="miter" stroke-miterlimit="10" stroke-dasharray="" stroke-dashoffset="0" font-family="Sans Serif" font-weight="normal" text-anchor="start" style="mix-blend-mode: normal"><tspan x="0" dy="0">rare</tspan></text></g></g></svg>