<svg version="1.1" xmlns="http://www.w3.org/2000/svg" xmlns:xlink="http://www.w3.org/1999/xlink" width="200" height="185" viewBox="0,0,200,185"><g transform="translate(-148.01952,-59.51952)"><g data-paper-data="{&quot;isPaintingLayer&quot;:true}" fill-rule="nonzero" stroke="none" stroke-linecap="butt" stroke-linejoin="miter" stroke-miterlimit="10" stroke-dasharray="" stroke-dashoffset="0" style="mix-blend-mode: normal"><path d="M348.01952,152.01952c0,51.08634 -44.77153,92.5 -100,92.5c-55.22847,0 -100,-41.41366 -100,-92.5c0,-51.08634 44.77153,-92.5 100,-92.5c55.22847,0 100,41.41366 100,92.5z" fill="#00ff52" stroke-width="0"/><path d="M179.55799,108.02017c8.06319,-1.31383 16.01751,-4.21499 24.16264,-5.02151c4.20271,-0.41615 9.0176,-0.01217 13.24634,-0.01217c6.50584,0 12.99157,-0.253 19.45648,0.51834c6.5775,0.79167 13.16926,1.49876 19.72074,2.48795c1.53183,0.23129 3.60846,-0.47219 4.59054,0.72594c1.22857,1.49884 0.57094,3.83647 0.73223,5.76777c0.3025,3.62216 0,7.3626 0,11c0,19.00548 -1.00068,37.99696 -1,57c0,3.33333 0.25535,6.67646 0,10c-0.12374,1.61058 0.53535,3.81155 -0.75198,4.78729c-1.69962,1.28825 -4.23683,0.55849 -6.36888,0.61004c-6.72104,0.16251 -13.44082,-1.19335 -20.05235,-1.96727c-11.53394,-1.35011 -23.36336,-0.20517 -34.92428,-1.31011c-9.93975,-0.94999 -19.91791,-3.10766 -29.78555,-4.64948c-0.99351,-0.15285 -8.05518,-1.23925 -8.05524,-1.23927c-2.1722,-0.45034 -4.9092,-0.01626 -6.45913,-1.60339c-1.31816,-1.3498 -0.49512,-3.74423 -0.60259,-5.62783c-0.24645,-4.31976 -0.2999,-8.51929 -0.65767,-12.84788c-1.51038,-18.27359 -1.63576,-36.73319 -2.34048,-55.05604c0,0 -0.09608,-2.49815 2.40207,-2.59424c2.49815,-0.09608 2.59424,2.40207 2.59424,2.40207c0.01368,0.35579 0.02715,0.71162 0.0404,1.06751c0.21809,-0.1574 0.46258,-0.28049 0.72557,-0.36137l2.94531,-0.98177c6.56594,-2.15492 13.58991,-1.98796 20.38159,-3.09461z" fill="#ffcd05" stroke-width="0.5"/><text transform="translate(197,90) scale(0.5,0.5)" font-size="40" xml:space="preserve" fill="#ffcd05" fill-rule="nonzero" stroke="none" stroke-width="1" stroke-linecap="butt" stroke-linejoin="miter" stroke-miterlimit="10" stroke-dasharray="" stroke-dashoffset="0" font-family="Sans Serif" font-weight="normal" text-anchor="start" style="mix-blend-mode: normal"><tspan x="0" dy="0">Yellow</tspan></text><text transform="translate(199,227) scale(0.5,0.5)" font-size="40" xml:space="preserve" fill="#ffcd05" fill-rule="nonzero" stroke="none" stroke-width="1" stroke-linecap="butt" stroke-linejoin="miter" stroke-miterlimit="10" stroke-dasharray="" stroke-dashoffset="0" font-family="Sans Serif" font-weight="normal" text-anchor="start" style="mix-blend-mode: normal"><tspan x="0" dy="0">Uncommon</tspan></text><path d="M288.16667,157.5566c0,6.38254 -5.59644,11.5566 -12.5,11.5566c-6.90356,0 -12.5,-5.17407 -12.5,-11.5566c0,-6.38254 5.59644,-11.5566 12.5,-11.5566c6.90356,0 12.5,5.17407 12.5,11.5566z" fill="#ffffff" stroke-width="0"/><text transform="translate(190.5,105.75001) scale(0.43499,0.43499)" font-size="40" xml:space="preserve" fill="#000000" fill-rule="nonzero" stroke="none" stroke-width="1" stroke-linecap="butt" stroke-linejoin="miter" stroke-miterlimit="10" stroke-dasharray="" stroke-dashoffset="0" font-family="Sans Serif" font-weight="normal" text-anchor="start" style="mix-blend-mode: normal"><tspan x="0" dy="0">Blookstaition</tspan></text></g></g></svg>