<svg version="1.1" xmlns="http://www.w3.org/2000/svg" xmlns:xlink="http://www.w3.org/1999/xlink" width="49.7279" height="38.37535" viewBox="0,0,49.7279,38.37535"><g transform="translate(-216.38769,-159.05874)"><g data-paper-data="{&quot;isPaintingLayer&quot;:true}" fill="#ffffff" fill-rule="nonzero" stroke="none" stroke-width="0.5" stroke-linecap="butt" stroke-linejoin="miter" stroke-miterlimit="10" stroke-dasharray="" stroke-dashoffset="0" style="mix-blend-mode: normal"><path d="M237.06947,163.95143c0.11786,-0.03214 0.23994,-0.04808 0.36472,-0.05115c3.93432,-7.94854 17.27545,-6.22081 15.79366,6.00397c-0.1109,0.91493 -1.94858,2.86001 -4.00353,4.12684l1.38366,1.96905l0.10718,0.27834l0.17336,0.24271l1.36334,3.4608c0.32335,-0.37892 0.71826,-0.75431 1.16742,-1.11571c4.44716,-3.57826 14.21228,-5.78505 12.49629,3.52663c-1.17233,6.36155 -5.67224,7.65948 -10.60307,10.23209c-0.60724,0.31682 -1.42262,0.48556 -2.24815,0.47666l0.01503,0.18535l-0.2231,0.25144l-0.1439,0.30379l-0.17844,0.05948l-0.30973,0.34906l-2.14007,1.46426l-0.00209,0.00617l-0.02183,0.0102l-0.21101,0.14437l-0.47528,0.17623l-0.45926,0.21454l-0.25097,0.0488l-0.02259,0.00838l-0.00586,-0.00284l-4.22058,0.82067l-0.17319,-0.00918l-0.16567,0.05131l-4.50624,0.24969l-0.13165,-0.02527l-0.13151,0.02598l-4.99376,-0.24969l-0.1578,-0.04794l-0.16457,0.01073l-1.375,-0.25l-0.14584,-0.06598l-0.15977,-0.00974l-2.375,-0.75l-0.22891,-0.14061l-0.25861,-0.07273l-0.66007,-0.37718l-0.51515,-0.17172l-0.32796,-0.2087l-0.35988,-0.14699l-1.875,-1.375l-0.27881,-0.33571l-0.3229,-0.29355l-0.5,-0.75l-0.0935,-0.26179l-0.15974,-0.22751l-0.625,-1.625l-0.05574,-0.45385l-0.1109,-0.4436v-0.85071c-2.88406,1.8559 -6.73794,1.80781 -7.14058,-2.91404c-0.3544,-4.1561 2.08282,-9.32631 5.46061,-11.84001c0.90055,-0.67018 4.98088,-2.64144 5.74098,-0.72311c0.02881,0.02306 0.05709,0.04674 0.08484,0.07102l0.41567,-0.83134c-0.02606,-0.03802 -0.0511,-0.0768 -0.07508,-0.1163c-3.37301,-2.9428 -7.27323,-10.23058 -2.43284,-10.5644c3.40717,-0.23498 5.41281,2.67311 7.32141,4.95639c0.18216,0.21792 0.35601,0.48789 0.50629,0.78664l1.18347,-0.72829l0.31125,-0.09856l0.28062,-0.16686l0.61379,-0.18414c-0.02053,-0.92878 0.32966,-1.78503 1.23654,-2.03236z"/></g></g></svg>