<svg version="1.1" xmlns="http://www.w3.org/2000/svg" xmlns:xlink="http://www.w3.org/1999/xlink" width="40" height="38" viewBox="0,0,40,38"><g transform="translate(-220,-161)"><g data-paper-data="{&quot;isPaintingLayer&quot;:true}" fill-rule="nonzero" stroke="none" stroke-linecap="butt" stroke-linejoin="miter" stroke-miterlimit="10" stroke-dasharray="" stroke-dashoffset="0" style="mix-blend-mode: normal"><path d="M220,199v-38h40v38z" fill="#000000" stroke-width="0"/><path d="M252.20966,181.87345c0.66383,1.99148 -0.42084,2.48002 -1.58114,3.16228c-4.13162,2.42938 -8.35708,5.07068 -12.53484,7.55328c-0.95694,0.56866 -4.68219,2.57871 -5.52457,1.10455c-0.15799,-0.09324 -0.30483,-0.20337 -0.43803,-0.32789c-0.33159,0.18221 -0.75429,0.29835 -1.29313,0.29835c-2.5,0 -2.5,-2.5 -2.5,-2.5v-2c0,-6.56397 -0.744,-12.98435 -0.75,-19.5c0,0 0,-1.94953 1.72157,-2.40545c0.39258,-0.86666 1.2651,-1.46955 2.27843,-1.46955c0.00187,0 0.00373,0 0.0056,0.00001c0.27793,-0.03942 0.59996,0.01307 0.9944,0.18749c1.18537,0.52418 2.15551,2.03426 3.13242,2.90939c3.89617,3.49021 9.39343,6.15612 13.86758,8.84061c1.28368,0.77021 3.16229,1.97694 2.50696,3.83854c0.04019,0.09687 0.07847,0.19957 0.11475,0.30839z" fill="#ff0000" stroke-width="0.5"/></g></g></svg>