<svg version="1.1" xmlns="http://www.w3.org/2000/svg" xmlns:xlink="http://www.w3.org/1999/xlink" width="200" height="185" viewBox="0,0,200,185"><g transform="translate(-148.01952,-59.51952)"><g data-paper-data="{&quot;isPaintingLayer&quot;:true}" fill-rule="nonzero" stroke="none" stroke-linecap="butt" stroke-linejoin="miter" stroke-miterlimit="10" stroke-dasharray="" stroke-dashoffset="0" style="mix-blend-mode: normal"><path d="M348.01952,152.01952c0,51.08634 -44.77153,92.5 -100,92.5c-55.22847,0 -100,-41.41366 -100,-92.5c0,-51.08634 44.77153,-92.5 100,-92.5c55.22847,0 100,41.41366 100,92.5z" fill="#00ff52" stroke-width="0"/><path d="M154.5,111l1.42297,-1.99215c-0.11491,-0.86766 -0.24407,-1.73336 -0.38895,-2.59685c0,0 -0.411,-2.46598 2.05499,-2.87698c2.46598,-0.411 2.87698,2.05499 2.87698,2.05499c0.10575,0.63851 0.20367,1.27802 0.29427,1.91844c6.52791,0.02913 12.97091,0.15942 19.4767,0.65311c5.56825,-0.22838 11.13324,-0.5133 16.71206,-0.66003c19.4363,-0.51121 38.7784,0.55997 58.14339,2.00119c3.88479,-0.00228 9.52294,-1.21374 12.72443,1.78099c0.92498,0.86525 0.91116,2.366 1.27969,3.57779c2.21746,7.29146 0.60132,13.26539 -0.13126,20.61159c-1.47494,14.79044 -3.79637,29.75264 -4.46624,44.59783c-0.29321,6.49792 1.16282,13.05837 1.40853,19.54602c-10.18226,1.52377 -20.61905,0.88406 -30.90755,0.88406c-24.96504,0 -50.79592,-1.09674 -74.92606,-7.90618c-0.32514,-3.09699 -1.03381,-6.14162 -1.54482,-9.21342c-0.71309,-4.28647 -0.55202,-8.93277 -0.81463,-13.2658c-0.40427,-6.67051 -0.99053,-13.36014 -1.21333,-20.03886c-0.4037,-12.10109 0.87238,-24.51744 -0.10879,-36.6312c-1.89236,-0.36813 -1.89236,-2.44455 -1.89236,-2.44455z" fill="#05bcff" stroke-width="0.5"/><text transform="translate(226,98) scale(0.5,0.5)" font-size="40" xml:space="preserve" fill="#05bcff" fill-rule="nonzero" stroke="none" stroke-width="1" stroke-linecap="butt" stroke-linejoin="miter" stroke-miterlimit="10" stroke-dasharray="" stroke-dashoffset="0" font-family="Sans Serif" font-weight="normal" text-anchor="start" style="mix-blend-mode: normal"><tspan x="0" dy="0">Blue</tspan></text><text transform="translate(221,236) scale(0.5,0.5)" font-size="40" xml:space="preserve" fill="#05bcff" fill-rule="nonzero" stroke="none" stroke-width="1" stroke-linecap="butt" stroke-linejoin="miter" stroke-miterlimit="10" stroke-dasharray="" stroke-dashoffset="0" font-family="Sans Serif" font-weight="normal" text-anchor="start" style="mix-blend-mode: normal"><tspan x="0" dy="0">Rare</tspan></text><path d="M288.16667,157.5566c0,6.38254 -5.59644,11.5566 -12.5,11.5566c-6.90356,0 -12.5,-5.17407 -12.5,-11.5566c0,-6.38254 5.59644,-11.5566 12.5,-11.5566c6.90356,0 12.5,5.17407 12.5,11.5566z" fill="#ffffff" stroke-width="0"/><text transform="translate(194.5,221.75001) scale(0.43499,0.43499)" font-size="40" xml:space="preserve" fill="#000000" fill-rule="nonzero" stroke="none" stroke-width="1" stroke-linecap="butt" stroke-linejoin="miter" stroke-miterlimit="10" stroke-dasharray="" stroke-dashoffset="0" font-family="Sans Serif" font-weight="normal" text-anchor="start" style="mix-blend-mode: normal"><tspan x="0" dy="0">Blookstaition</tspan></text></g></g></svg>