<svg version="1.1" xmlns="http://www.w3.org/2000/svg" xmlns:xlink="http://www.w3.org/1999/xlink" width="36.12329" height="27.85806" viewBox="0,0,36.12329,27.85806"><g transform="translate(-227.14286,-163.2848)"><g data-paper-data="{&quot;isPaintingLayer&quot;:true}" fill="#0077ff" fill-rule="nonzero" stroke="none" stroke-width="0.5" stroke-linecap="butt" stroke-linejoin="miter" stroke-miterlimit="10" stroke-dasharray="" stroke-dashoffset="0" style="mix-blend-mode: normal"><path d="M229.64286,165c0.85177,-0.24856 1.49414,0.22452 1.97786,0.97073c0.16706,0.21575 0.2996,0.45958 0.38934,0.7232c0.62446,1.37603 0.88851,3.10412 0.99391,3.40131c1.03277,2.91204 3.02966,6.13857 4.00212,8.81711c0.97986,2.69892 -2.05435,5.33682 -4.27095,3.52854c-1.35953,-1.10909 -2.82232,-6.77274 -2.96645,-7.11556c-0.96921,-2.30518 -1.80943,-4.66911 -2.50961,-7.06973c-0.07549,-0.23839 -0.11622,-0.49224 -0.11622,-0.7556c0,-0.17622 0.01823,-0.34818 0.05291,-0.51409c0.07032,-0.5965 0.18693,-0.98003 0.75931,-1.33022c0.35487,-0.21711 0.88494,-0.42141 1.68778,-0.65569z"/><path d="M236.42857,188.5c0,-1.38071 1.11929,-2.5 2.5,-2.5c1.38071,0 2.5,1.11929 2.5,2.5c0,1.38071 -1.11929,2.5 -2.5,2.5c-1.38071,0 -2.5,-1.11929 -2.5,-2.5z"/><path d="M260.94864,168.87261c-1.66262,3.65333 -2.52766,7.33139 -4.36113,10.90206c-0.87394,1.70199 -1.733,6.30257 -4.87313,5.04652c-2.46463,-0.98585 -1.46035,-3.13201 -0.82129,-4.67824c1.8413,-4.45504 3.82043,-8.7461 5.46194,-13.30586c0.35314,-0.98094 2.87163,-3.89605 3.8833,-3.51881c0.13167,-0.02142 0.2668,-0.03256 0.40453,-0.03256c1.38071,0 2.5,1.11929 2.5,2.5c0.30478,0.43285 0.00434,0.95225 -0.46298,1.44966c-0.19594,0.27483 -0.4461,0.50832 -0.73487,0.68486c-0.4672,0.40067 -0.90125,0.74336 -0.99636,0.95237z"/><path d="M248.28571,188.64286c0,-1.38071 1.11929,-2.5 2.5,-2.5c1.38071,0 2.5,1.11929 2.5,2.5c0,1.38071 -1.11929,2.5 -2.5,2.5c-1.38071,0 -2.5,-1.11929 -2.5,-2.5z"/></g></g></svg>