<svg version="1.1" xmlns="http://www.w3.org/2000/svg" xmlns:xlink="http://www.w3.org/1999/xlink" width="129.68794" height="124.52854" viewBox="0,0,129.68794,124.52854"><g transform="translate(-175.15603,-117.90123)"><g data-paper-data="{&quot;isPaintingLayer&quot;:true}" fill-rule="nonzero" stroke-linecap="butt" stroke-linejoin="miter" stroke-miterlimit="10" stroke-dasharray="" stroke-dashoffset="0" style="mix-blend-mode: normal"><path d="M176.91832,180.1655c0,-33.41432 28.24263,-60.50198 63.08168,-60.50198c34.83905,0 63.08168,27.08766 63.08168,60.50198c0,33.41432 -28.24263,60.50198 -63.08168,60.50198c-34.83905,0 -63.08168,-27.08766 -63.08168,-60.50198z" data-paper-data="{&quot;zoomLevel&quot;:0.70492}" fill="#ff0000" stroke="#050308" stroke-width="3.52458"/><path d="M296.05195,205.98896c-0.06247,0.10981 -0.12313,0.22015 -0.18137,0.33121c-1.42245,2.71241 -1.79301,5.82571 -3.49626,8.4705c-2.056,3.19253 -5.40207,5.57466 -8.28364,8.23047c-4.15997,3.83405 -7.62357,8.19662 -12.98326,10.52795c-3.52551,1.53351 -7.21689,2.53581 -10.72132,4.04762c-0.00341,0.00147 -0.00682,0.00294 -0.01024,0.00442c-1.52104,1.4189 -3.22397,2.54195 -5.33302,2.30129l-0.6819,0.13638c-2.63941,0.94469 -5.37279,1.69255 -7.06012,1.46323c-1.47043,-0.19985 -2.60418,-0.8842 -3.36609,-1.82049c-0.71266,0.10654 -1.40468,0.05612 -2.05368,-0.26961c-2.01843,-1.01304 -1.92622,-4.09898 -2.61916,-6.24843c-0.08472,-0.2628 0.0652,-3.28431 0.03715,-3.61515c-0.1537,-1.81331 -1.33646,-3.82327 -1.79238,-5.61505c0.08294,-0.22451 0.38533,-0.47694 0.24883,-0.67354c-0.40748,-0.58692 -1.36862,-0.70459 -1.65889,-1.35748c-0.4945,-1.11227 -0.34178,-2.41077 -0.54964,-3.61014c-0.14418,-0.83195 -0.50617,-1.63762 -0.50617,-2.48196c0,-1.04663 0.93885,-2.09087 0.60167,-3.08169c-0.22524,-0.66188 -0.78852,-1.19305 -0.93801,-1.87604c-0.16702,-0.76304 -0.13266,-4.36599 -0.13266,-5.36047c0,-3.10078 -0.20865,-5.9501 -0.45653,-9.02862c-0.27768,-3.44851 0.57303,-7.19767 0.01713,-10.59763c-0.44702,-2.73409 -0.72924,-5.6964 -1.39948,-8.37736c0.02099,-1.68436 -0.63155,-3.30953 -0.91114,-4.97065c-0.43058,-2.55822 -0.06403,-5.70059 -0.06403,-8.29851c0,-2.65108 -0.07832,-5.32333 0,-7.97315c0.01654,-0.55973 0.2856,-1.13599 0.13266,-1.67467c-0.28642,-1.00886 -1.16095,-1.79459 -1.40703,-2.81405c-0.59303,-2.45689 -0.13231,-5.45311 -0.55374,-7.95569c-0.189,-1.12234 -0.79739,-2.15364 -0.93801,-3.28306c-0.18533,-1.4885 0.07128,-3.00339 -0.03104,-4.49989c-0.22406,-3.27718 -0.48591,-6.47247 -0.48591,-9.78921c0,0 0,-0.16262 0.02945,-0.42896c-0.30728,-0.62888 -0.49846,-1.41139 -0.49846,-2.38509c0,-4.95919 4.95919,-4.95919 4.95919,-4.95919h1.87604c3.45993,0.02123 6.50448,1.05727 9.86884,1.43116c1.88587,0.20958 3.85895,-0.27951 5.74537,0.01302c2.90297,0.45017 6.1336,2.01578 8.61212,3.54552c1.23488,0.76217 1.65195,1.088 2.53105,1.44617c0.73817,-0.1194 1.55867,0.11806 2.32117,0.13025c1.31838,0.02108 2.63562,0.08845 3.95344,0.13266l0.70877,0.80543c0.00929,-0.00005 0.01858,-0.00008 0.02788,-0.00008c0.0447,0 0.08925,0.00059 0.13367,0.00177l0.20811,-0.41623l1.77994,0.88997c1.67742,0.79518 2.83747,2.50396 2.83747,4.48368c0,0.1193 -0.00421,0.23761 -0.0125,0.35481c0.08148,0.01514 0.16234,0.03419 0.24247,0.05789c1.17584,0.34787 4.1695,3.06553 5.1591,3.28306c1.0644,0.23397 2.16532,0.24934 3.24798,0.37401c0.62666,0.68721 1.15327,1.48124 1.87999,2.06162c0.54632,0.4363 1.35773,0.46878 1.87604,0.93801c1.4828,1.34241 2.10582,3.30808 3.3672,4.7948c2.99964,3.53555 6.2626,7.14963 8.20424,11.45601c0.26495,0.58762 0.21509,1.28356 0.46901,1.87604c0.92689,2.16275 1.95669,4.10136 2.26282,6.55942c0.10664,0.85623 0.16379,1.72942 0.18917,2.61179c0.03854,0.05663 0.075,0.11532 0.10925,0.1762c2.24549,3.99191 1.62332,9.6886 1.84216,14.09112c0.23581,4.74387 -0.31158,8.91905 -1.34449,13.56714c-0.84725,3.81265 -0.25395,7.05195 -3.05921,9.11193c-0.0575,1.53142 -0.80942,2.88518 -1.95001,3.75552z" fill="#00ff12" stroke="none" stroke-width="0.5"/><path d="M249.31412,191.93319c0.56757,1.19035 0.16539,2.80894 0.57659,4.07773c0.87896,2.71209 3.83518,5.07344 2.99513,8.43362c-1.79485,7.17941 -8.39187,8.67567 -13.77478,3.54809c-0.79025,-0.75276 -1.49728,-1.83035 -2.10166,-3.07308c-0.69773,1.52868 -1.56848,2.77037 -2.61677,3.36939c-1.17216,0.66981 -3.84205,0.39423 -4.93244,0.27402c-0.86752,-0.09563 -1.85651,0.57826 -2.61429,0.14524c-0.92099,-0.52628 -1.05742,-1.85772 -1.76521,-2.64781c-3.25678,-3.63546 -2.10756,-7.45031 -0.96273,-12.13224c0.02345,-0.09589 0.04796,-0.19762 0.07372,-0.30426c0.07861,-0.49915 0.20646,-0.98193 0.37841,-1.44324c0.37195,-1.25385 0.9308,-2.61904 1.84946,-3.2783c-0.06764,-0.23112 -0.13071,-0.46408 -0.18965,-0.69822c-3.6536,0.42321 -10.45484,1.43512 -13.1799,0.15837c-1.08653,-0.50906 -3.73965,-6.52454 -3.75,-6.5625c-0.13766,-0.50474 0.62575,-0.8624 0.77869,-1.36272c2.16144,-7.07041 9.36412,-7.89356 16.24161,-7.40653c0.7625,-1.65068 1.99188,-2.99447 3.90513,-3.8024c-7.27304,-4.9156 -5.19767,-15.86669 -1.05914,-22.01937c1.04909,-1.55967 1.21656,-5.36323 3.7554,-5.50427c1.17394,-0.76208 2.57443,-1.20471 4.07831,-1.20471c2.99058,0 5.57234,1.75035 6.77672,4.28248c0.38891,0.19265 0.78469,0.37141 1.18911,0.53271c1.34157,0.53506 3.15286,0.5298 4.38828,1.4766c1.1546,0.88486 2.78204,1.56741 3.2084,2.9582c2.24975,7.33877 0.90585,15.0005 -4.36987,20.53894c-0.2788,0.29268 -0.58528,0.52492 -0.91349,0.70706c0.00329,0.0038 0.00656,0.00759 0.0098,0.01137c0.86948,1.01439 1.40071,3.4137 1.45345,4.79485c6.12898,-1.08219 15.35761,1.58698 15.35761,7.79777c0,8.62754 -8.32162,7.62832 -13.67407,7.3c-0.15607,-0.00957 -0.32593,-0.0147 -0.50572,-0.01776c-0.17188,0.01178 -0.34534,0.01776 -0.52021,0.01776c-0.13582,0 -0.2708,-0.00361 -0.40485,-0.01074c0.13063,0.33687 0.23763,0.68552 0.31897,1.04393z" fill="#bd8900" stroke="none" stroke-width="0.5"/><path d="M230.3,152.6c0,-1.38071 1.11929,-2.5 2.5,-2.5c1.38071,0 2.5,1.11929 2.5,2.5c0,1.38071 -1.11929,2.5 -2.5,2.5c-1.38071,0 -2.5,-1.11929 -2.5,-2.5z" fill="#feb600" stroke="none" stroke-width="0.5"/><path d="M240.9,154.4c0,-1.38071 1.11929,-2.5 2.5,-2.5c1.38071,0 2.5,1.11929 2.5,2.5c0,1.38071 -1.11929,2.5 -2.5,2.5c-1.38071,0 -2.5,-1.11929 -2.5,-2.5z" fill="#feb600" stroke="none" stroke-width="0.5"/><path d="M245.98675,161.71987c2.08013,1.38675 0.69338,3.46688 0.69338,3.46688l-1.8097,2.43509c-0.99063,0.65953 -1.81062,1.71821 -2.97188,1.97858c-6.0399,1.35423 -10.22441,-4.07343 -12.70443,-8.62395c0,0 -1.17647,-2.20588 1.02941,-3.38235c2.20588,-1.17647 3.38235,1.02941 3.38235,1.02941c1.62572,3.13482 4.7277,8.03015 8.32369,4.95463l0.5903,-1.16491c0,0 1.38675,-2.08013 3.46688,-0.69338z" fill="#feb600" stroke="none" stroke-width="0.5"/><text transform="translate(200,140.58805) scale(0.32631,0.32631)" font-size="40" xml:space="preserve" fill="#000000" fill-rule="nonzero" stroke="none" stroke-width="1" stroke-linecap="butt" stroke-linejoin="miter" stroke-miterlimit="10" stroke-dasharray="" stroke-dashoffset="0" font-family="Sans Serif" font-weight="normal" text-anchor="start" style="mix-blend-mode: normal"><tspan x="0" dy="0">gingerbread</tspan></text><path d="M233.9,175.6c0,-1.38071 1.11929,-2.5 2.5,-2.5c1.38071,0 2.5,1.11929 2.5,2.5c0,1.38071 -1.11929,2.5 -2.5,2.5c-1.38071,0 -2.5,-1.11929 -2.5,-2.5z" fill="#000000" stroke="none" stroke-width="0.5"/><path d="M235.1,186c0,-1.38071 1.11929,-2.5 2.5,-2.5c1.38071,0 2.5,1.11929 2.5,2.5c0,1.38071 -1.11929,2.5 -2.5,2.5c-1.38071,0 -2.5,-1.11929 -2.5,-2.5z" fill="#000000" stroke="none" stroke-width="0.5"/><text transform="translate(216.2,223.8) scale(0.5,0.5)" font-size="40" xml:space="preserve" fill="#000000" fill-rule="nonzero" stroke="none" stroke-width="1" stroke-linecap="butt" stroke-linejoin="miter" stroke-miterlimit="10" stroke-dasharray="" stroke-dashoffset="0" font-family="Sans Serif" font-weight="normal" text-anchor="start" style="mix-blend-mode: normal"><tspan x="0" dy="0">rare</tspan></text></g></g></svg>