<svg version="1.1" xmlns="http://www.w3.org/2000/svg" xmlns:xlink="http://www.w3.org/1999/xlink" width="38.33205" height="40.31531" viewBox="0,0,38.33205,40.31531"><g transform="translate(-220.83397,-159.84234)"><g data-paper-data="{&quot;isPaintingLayer&quot;:true}" fill-rule="nonzero" stroke="none" stroke-linecap="butt" stroke-linejoin="miter" stroke-miterlimit="10" stroke-dasharray="" stroke-dashoffset="0" style="mix-blend-mode: normal"><path d="M220.83397,160.15905l37.99868,-0.3167l0.33337,39.99861l-37.99868,0.3167z" fill="#000000" stroke-width="0"/><path d="M250.87076,167.52934c2.06495,0.37766 1.97053,1.56352 2.00944,2.90898c0.13851,4.79092 0.41752,9.76618 0.58044,14.62317c0.03733,1.11253 0.00414,5.34534 -1.6935,5.37335c-0.15782,0.09353 -0.32507,0.16916 -0.49835,0.22589c-0.00006,0.37835 -0.10193,0.80472 -0.36151,1.27691c-1.20436,2.19077 -3.39514,0.98642 -3.39514,0.98642l-1.75262,-0.96349c-5.75208,-3.16216 -11.73676,-5.60317 -17.44938,-8.73679c0,0 -1.70839,-0.93917 -1.27857,-2.66745c-0.57035,-0.76153 -0.67833,-1.81657 -0.19017,-2.70456c0.0009,-0.00164 0.00179,-0.00327 0.00271,-0.0049c0.09935,-0.26254 0.30048,-0.51945 0.64335,-0.78108c1.03039,-0.78623 2.82105,-0.90891 4.05856,-1.34339c4.93547,-1.73287 9.91991,-5.2659 14.42777,-7.8934c1.29335,-0.75386 3.25583,-1.81877 4.57147,-0.34768c0.10425,0.01144 0.21269,0.02738 0.32553,0.04801z" fill="#ff0000" stroke-width="0.5"/></g></g></svg>