<svg version="1.1" xmlns="http://www.w3.org/2000/svg" xmlns:xlink="http://www.w3.org/1999/xlink" width="612.88669" height="487.13476" viewBox="0,0,612.88669,487.13476"><g transform="translate(80.55748,71.11057)"><g data-paper-data="{&quot;isPaintingLayer&quot;:true}" fill-rule="nonzero" stroke="none" stroke-width="0.5" stroke-linecap="butt" stroke-linejoin="miter" stroke-miterlimit="10" stroke-dasharray="" stroke-dashoffset="0" style="mix-blend-mode: normal"><path d="M294.81792,-53.44278c0,-2.5 2.5,-2.5 2.5,-2.5l3.00364,0c3.20408,0.00164 6.40817,0.00327 9.61225,0.00491c1.00018,0.00051 2.00122,0.00323 3.00302,0.00832c-17.67972,-1.17314 -35.32263,-1.0127 -53.04623,-1.01826c-14.54658,-0.01172 -28.72283,-2.72578 -43.12519,-4.19421c-19.64542,-2.003 -39.43616,-1.63998 -59.13933,-2.36945c-16.51799,-0.61155 -33.09074,-0.26143 -49.58615,-0.94698c-6.01912,-0.25016 -12.01239,-1.31178 -18.03303,-1.5015c-10.78048,-0.33971 -21.63097,0.00216 -32.41871,0.00216c-18.33333,0 -36.66667,0 -55,0c-15.92625,0 -31.63911,-0.30812 -47.46915,1.49738c-3.38108,-0.03467 -7.82597,0.85516 -10.50872,3.15055c-1.11702,0.95574 -1.66907,2.42115 -2.54237,3.60374c-0.83916,1.13636 -2.14946,2.01048 -2.59373,3.35142c-0.44427,1.34094 0.07462,2.8245 0.07957,4.23712c0.01821,5.19109 -0.09475,10.13655 -0.82182,15.27772c-2.72387,19.26064 -5.19921,38.57836 -8.5323,57.74361c-1.397,8.03275 -3.55373,16.2991 -4.25586,24.41736c-0.70208,8.11774 0.00191,16.63223 0.00044,24.78504c-0.0033,18.21042 -0.0002,36.42084 -0.0002,54.63125c0,35.00802 -0.23505,69.92707 1.42267,104.89886c0.22546,34.59148 0.07884,69.18763 0.07884,103.77982c-0.01344,13.0434 -2.98453,25.98721 -3.00301,39.07336c-0.00707,5.00526 0.03473,9.59419 0.74849,14.54514c0.18387,1.27543 0.01195,2.63556 0.4809,3.83582c1.37626,3.52248 5.72142,0.98264 7.89894,0.35985c9.93521,-2.84155 20.55355,-1.72025 30.71188,-0.55778c34.44232,3.94141 68.92701,7.32797 103.36526,11.26377c7.58091,0.86639 15.32635,1.34954 22.85012,2.61364c4.86403,0.81723 9.71508,2.35537 14.61191,2.92849c6.47147,0.75742 13.27109,0.46479 19.78574,0.69696c14.60656,0.52056 29.15744,0.84885 43.7735,0.84885c34.37176,0 68.45965,-1.52126 102.72875,-4.13775c33.78412,-2.57734 67.62588,-3.36976 101.49047,-3.36976c21.12246,0 42.33228,0.57517 63.44554,0.00092c12.57522,-0.34202 25.06044,-1.50243 37.65055,-1.50243c12.34164,0 25.38961,1.17468 37.58247,-0.74848c4.36739,-0.68886 7.48804,-0.88795 11.68702,-2.12623c1.13774,-0.33552 2.62287,0.01119 3.46077,-0.82842c0.76158,-0.76313 0.61445,-2.11174 0.54724,-3.18777c-0.19594,-3.13674 -1.41445,-6.12462 -2.08936,-9.19416c-2.11902,-9.63749 -5.30473,-18.70435 -8.53125,-28.02541c-2.16049,-6.24141 -5.1877,-12.73272 -6.62014,-19.17486c-1.07435,-4.83168 -1.09237,-10.2734 -1.6084,-15.20065c-0.62319,-5.95045 -1.6458,-12.00483 -1.8799,-17.98274c-0.63287,-16.16117 -0.0034,-32.48335 -0.0034,-48.65891c0,-11.24715 -0.83955,-22.82528 1.28483,-33.93583c1.97541,-10.33143 5.51718,-20.41839 7.78508,-30.69673c2.51746,-11.40934 3.53952,-22.63634 4.45879,-34.2612c0.92904,-6.51476 2.32973,-13.14995 2.8202,-19.71024c0.94985,-12.7048 0.16762,-25.81637 0.16762,-38.55817c0,-13.78211 0.48726,-27.49224 -1.22284,-41.17396c-2.26365,-20.03592 -1.77922,-40.04893 -1.7801,-60.20029c-0.00026,-5.89823 -0.2228,-11.8595 -0.00006,-17.75489c0.0358,-0.94759 0.75817,-2.00146 0.29581,-2.82936c-1.24274,-2.22527 -3.88203,-1.40124 -5.69351,-1.71329c-3.16052,-0.54443 -6.32347,-1.2439 -9.52951,-1.32507c-4.90659,-0.14477 -9.46327,-1.29193 -14.30745,-1.65556c-4.44781,-0.33387 -8.96749,0.2423 -13.42367,0.0057c-23.97706,-1.27304 -48.05709,-4.17903 -70.93738,-11.61988c-19.33306,-6.29034 -39.57345,-9.5537 -59.92646,-11.12071c-0.96401,0.46225 -2.03281,0.06145 -2.03281,0.06145c-0.22321,-0.08371 -0.44793,-0.17052 -0.67399,-0.25993c-11.31586,-0.78875 -22.65563,-1.07178 -33.8829,-1.07749c-3.20366,-0.00164 -6.40732,-0.00327 -9.61098,-0.00491l-3.00236,0c0,0 -2.5,0 -2.5,-2.5zM344.95068,-54.78843c21.40482,1.53856 42.71441,4.87807 63.04376,11.49257c22.45071,7.30839 46.09049,10.12059 69.61695,11.37967c4.51658,0.24172 9.09318,-0.3353 13.60335,0.0057c4.7669,0.36041 9.2206,1.50964 14.04321,1.64105c3.4189,0.10666 6.80094,0.78102 10.16788,1.38433c4.18561,0.75 6.06827,-0.79137 9.3215,4.29272c0.93372,1.45919 0.24554,3.45702 0.29581,5.18865c0.17144,5.90472 -0.0002,11.84826 0.00006,17.75466c0.00088,19.95202 -0.49569,39.77319 1.74508,59.60977c1.73532,13.8816 1.25786,27.78293 1.25786,41.76469c0,12.86748 0.77774,26.10022 -0.18153,38.93094c-0.49501,6.62107 -1.89574,13.31323 -2.83666,19.88774c-0.92755,11.80643 -1.99211,23.2203 -4.55022,34.80786c-2.25727,10.22479 -5.78723,20.26176 -7.75224,30.5388c-2.06276,10.78828 -1.19586,22.07643 -1.19586,32.99682c0,16.09001 -0.6187,32.32204 -0.0034,48.39815c0.22538,5.88871 1.24559,11.86075 1.8595,17.7227c0.49606,4.7366 0.48333,9.99021 1.51639,14.63617c1.39024,6.25232 4.36699,12.56574 6.46428,18.62458c3.85311,11.13122 7.30406,21.94138 9.76339,33.4706c0.85518,4.00906 2.54127,8.12332 -0.74633,11.96955c-1.29065,1.50996 -3.67999,1.49975 -5.54824,2.17459c-2.59067,0.93579 -5.36066,1.36066 -8.10273,1.62215c-3.27018,0.31186 -6.22942,1.24362 -9.51952,1.5015c-10.9218,0.85605 -22.27138,0.00764 -33.22838,0.00764c-12.54413,0 -24.98492,1.15979 -37.51461,1.50058c-21.15869,0.57548 -42.41362,0.00092 -63.58148,0.00092c-33.73755,0 -67.45254,0.78334 -101.10983,3.35525c-34.39565,2.62615 -68.61069,4.15226 -103.10939,4.15226c-14.67529,0 -29.28585,-0.32935 -43.95158,-0.85202c-6.65023,-0.23701 -13.58224,0.04555 -20.18889,-0.72769c-4.96541,-0.58115 -9.87466,-2.12354 -14.80551,-2.95499c-7.4528,-1.25671 -15.13259,-1.72724 -22.64302,-2.58558c-34.43848,-3.93583 -68.92344,-7.32242 -103.36599,-11.26385c-7.82382,-0.89532 -16.41522,-2.07301 -24.28235,-0.90663c-6.56822,0.9738 -13.64398,6.70011 -18.21577,-1.5945c-0.87079,-1.57988 -0.66372,-3.54655 -0.96408,-5.32534c-0.57499,-3.40517 -0.80696,-6.87507 -0.80954,-10.32845c-0.01106,-14.77068 3.01921,-29.37922 3.003,-44.06907c0,-34.54738 0.14086,-69.09842 -0.07702,-103.64513c-1.6672,-35.01599 -1.42448,-69.98122 -1.42448,-105.03355c0.00001,-18.21072 -0.00309,-36.42144 0.0002,-54.63216c0.0015,-8.29781 -0.6965,-16.95183 0.01816,-25.21496c0.71468,-8.26337 2.8894,-16.6679 4.3112,-24.84323c3.32439,-19.11522 5.77047,-38.38244 8.50799,-57.58968c0.70499,-4.94642 0.66997,-9.63556 0.77241,-14.62212c0.03947,-1.92128 -0.43045,-3.93826 0.17391,-5.76244c0.60437,-1.82418 2.17501,-3.1692 3.30113,-4.72636c1.09206,-1.51007 1.92437,-3.2768 3.35249,-4.47404c3.56472,-2.9884 8.95368,-4.28574 13.45057,-4.32459c15.91605,-1.8582 31.74222,-1.50562 47.75607,-1.50562c18.33333,0 36.66667,0 55,0c10.85664,0 21.77709,-0.34518 32.62633,0.00216c6.02141,0.19277 12.01369,1.25134 18.03303,1.5015c16.48749,0.68522 33.05322,0.33482 49.56352,0.94609c19.81135,0.73348 39.70811,0.37781 59.4615,2.39182c14.23125,1.45099 28.24507,4.1714 42.61959,4.16842c18.4228,0.00578 36.759,-0.16311 55.13909,1.15064c6.19208,0.44259 12.82283,0.67013 18.9041,1.91993c3.6657,0.75336 7.45732,2.64491 11.01531,4.0888z" fill="#00ffa9"/><path d="M297.33315,-50.9904l3.00294,0.00019c3.20366,0.00164 6.40912,0.00391 9.61278,0.00555c11.22727,0.00571 22.57287,0.29137 33.88873,1.08011c0.22607,0.08941 0.45091,0.17629 0.67412,0.25999c0,0 1.0691,0.40096 2.03311,-0.06129c20.35302,1.567 40.60205,4.83631 59.93511,11.12665c22.88029,7.44085 46.96699,10.35376 70.94406,11.62681c4.45618,0.2366 8.97664,-0.33858 13.42444,-0.0047c4.84418,0.36363 9.40171,1.51196 14.3083,1.65673c3.20604,0.08117 6.36953,0.78141 9.53005,1.32584c1.81148,0.31205 4.45114,-0.51144 5.69388,1.71383c0.46236,0.82791 -0.25984,1.88204 -0.29564,2.82963c-0.22274,5.89539 0.00095,11.85851 0.00121,17.75673c0.00089,20.15136 -0.47991,40.17187 1.78374,60.20779c1.71009,13.68172 1.22474,27.39792 1.22474,41.18003c0,12.7418 0.78334,25.85953 -0.16651,38.56434c-0.49047,6.56029 -1.89089,13.19874 -2.81993,19.7135c-0.91927,11.62487 -1.94139,22.85773 -4.45884,34.26707c-2.2679,10.27834 -5.81034,20.3707 -7.78575,30.70213c-2.12438,11.11055 -1.28617,22.69426 -1.28617,33.94142c0,16.17556 -0.63218,32.50475 0.0007,48.66592c0.2341,5.97791 1.25563,12.03445 1.87881,17.98489c0.51603,4.92725 0.5331,10.37064 1.60746,15.20232c1.43245,6.44214 4.45866,12.93509 6.61915,19.17649c3.22652,9.32106 6.41079,18.39007 8.5298,28.02755c0.67491,3.06954 1.89293,6.05809 2.08887,9.19484c0.06722,1.07604 0.21411,2.42495 -0.54747,3.18808c-0.8379,0.83961 -2.32325,0.49319 -3.46099,0.82871c-4.19899,1.23828 -7.32037,1.43831 -11.68776,2.12717c-12.19286,1.92316 -25.24316,0.75118 -37.58479,0.75118c-12.59011,0 -25.07837,1.16341 -37.65358,1.50543c-21.11326,0.57424 -42.32991,0.0043 -63.45237,0.0043c-33.86459,0 -67.72367,0.79932 -101.50778,3.37666c-34.26909,2.61648 -68.37817,4.13728 -102.74994,4.13728c-14.61606,0 -29.17482,-0.33089 -43.78139,-0.85145c-6.51465,-0.23218 -13.31741,0.05899 -19.78889,-0.69843c-4.89683,-0.57312 -9.75021,-2.11253 -14.61424,-2.92976c-7.52377,-1.2641 -15.2724,-1.74926 -22.85331,-2.61565c-34.43825,-3.9358 -68.93298,-7.33144 -103.3753,-11.27285c-10.15832,-1.16247 -20.77831,-2.28583 -30.71352,0.55571c-2.17753,0.62279 -6.52309,3.16209 -7.89935,-0.36039c-0.46895,-1.20026 -0.29729,-2.56076 -0.48117,-3.83619c-0.71376,-4.95096 -0.75652,-9.54127 -0.74945,-14.54653c0.01848,-13.08615 2.98722,-26.03384 3.00066,-39.07724c0,-34.59219 0.14146,-69.20258 -0.084,-103.79406c-1.65771,-34.97179 -1.42305,-69.9081 -1.42305,-104.91612c0.00001,-18.21042 -0.00108,-36.42917 0.00222,-54.63958c0.00148,-8.15281 -0.70125,-16.67068 0.00083,-24.78842c0.70213,-8.11825 2.86038,-16.38792 4.25738,-24.42067c3.33309,-19.16525 5.8125,-38.48967 8.53638,-57.75031c0.72707,-5.14117 0.8411,-10.08805 0.82289,-15.27914c-0.00496,-1.41261 -0.52356,-2.89653 -0.0793,-4.23747c0.44427,-1.34094 1.75494,-2.21551 2.59409,-3.35188c0.8733,-1.1826 1.42573,-2.64847 2.54275,-3.60421c2.68275,-2.29539 7.12846,-3.18619 10.50954,-3.15152c15.83004,-1.8055 31.54635,-1.50095 47.4726,-1.50095c18.33333,0 36.67201,-0.00435 55.00534,-0.00435c10.78774,0 21.64231,-0.34446 32.42279,-0.00475c6.02064,0.18972 12.0164,1.25002 18.03552,1.50017c16.49541,0.68555 33.07653,0.33216 49.59452,0.94371c19.70317,0.72948 39.50586,0.36452 59.15128,2.36752c14.40235,1.46843 28.58788,4.183 43.13447,4.19471c17.7236,0.00556 35.37699,-0.15215 53.05671,1.021c-1.00181,-0.00508 -2.03792,0.08584 -3.0381,0.08533c-3.20408,-0.00164 -6.40639,-0.00266 -9.61048,-0.0043l-3.00307,0.00018c0,0 -2.47048,-0.09554 -2.47048,2.40446c0,2.5 2.50064,2.5002 2.50064,2.5002z" data-paper-data="{&quot;noHover&quot;:false,&quot;origItem&quot;:[&quot;Path&quot;,{&quot;applyMatrix&quot;:true,&quot;segments&quot;:[[[294.81792,-53.44278],[0,2.5],[0,-2.5]],[297.31792,-55.94278],[[300.32156,-55.94278],[0,0],[3.20408,0.00164]],[[309.93382,-55.93787],[-3.20408,-0.00164],[1.00018,0.00051]],[[312.93684,-55.92955],[-1.00181,-0.00508],[-17.67972,-1.17314]],[[259.89061,-56.94781],[17.7236,0.00556],[-14.54658,-0.01172]],[[216.76542,-61.14202],[14.40235,1.46843],[-19.64542,-2.003]],[[157.62609,-63.51147],[19.70317,0.72948],[-16.51799,-0.61155]],[[108.03994,-64.45845],[16.49541,0.68555],[-6.01912,-0.25016]],[[90.0069,-65.95995],[6.02064,0.18972],[-10.78048,-0.33971]],[[57.58819,-65.95779],[10.78774,0],[-18.33333,0]],[[2.58819,-65.95779],[18.33333,0],[-15.92625,0]],[[-44.88096,-64.46041],[15.83004,-1.8055],[-3.38108,-0.03467]],[[-55.38968,-61.30986],[2.68275,-2.29539],[-1.11702,0.95574]],[[-57.93205,-57.70611],[0.8733,-1.1826],[-0.83916,1.13636]],[[-60.52578,-54.35469],[0.44427,-1.34094],[-0.44427,1.34094]],[[-60.44621,-50.11758],[-0.00496,-1.41261],[0.01821,5.19109]],[[-61.26803,-34.83985],[0.72707,-5.14117],[-2.72387,19.26064]],[[-69.80033,22.90376],[3.33309,-19.16525],[-1.397,8.03275]],[[-74.05618,47.32111],[0.70213,-8.11825],[-0.70208,8.11774]],[[-74.05575,72.10615],[0.00148,-8.15281],[-0.0033,18.21042]],[[-74.05595,126.7374],[0.00001,-18.21042],[0,35.00802]],[[-72.63329,231.63626],[-1.65771,-34.97179],[0.22546,34.59148]],[[-72.55445,335.41608],[0,-34.59219],[-0.01344,13.0434]],[[-75.55746,374.48944],[0.01848,-13.08615],[-0.00707,5.00526]],[[-74.80897,389.03458],[-0.71376,-4.95096],[0.18387,1.27543]],[[-74.32807,392.87041],[-0.46895,-1.20026],[1.37626,3.52248]],[[-66.42913,393.23026],[-2.17753,0.62279],[9.93521,-2.84155]],[[-35.71725,392.67248],[-10.15832,-1.16247],[34.44232,3.94141]],[[67.64801,403.93624],[-34.43825,-3.9358],[7.58091,0.86639]],[[90.49813,406.54988],[-7.52377,-1.2641],[4.86403,0.81723]],[[105.11004,409.47837],[-4.89683,-0.57312],[6.47147,0.75742]],[[124.89578,410.17534],[-6.51465,-0.23218],[14.60656,0.52056]],[[168.66927,411.02419],[-14.61606,0],[34.37176,0]],[[271.39802,406.88644],[-34.26909,2.61648],[33.78412,-2.57734]],[[372.88849,403.51668],[-33.86459,0],[21.12246,0]],[[436.33404,403.51761],[-21.11326,0.57424],[12.57522,-0.34202]],[[473.98459,402.01518],[-12.59011,0],[12.34164,0]],[[511.56706,401.2667],[-12.19286,1.92316],[4.36739,-0.68886]],[[523.25408,399.14047],[-4.19899,1.23828],[1.13774,-0.33552]],[[526.71485,398.31205],[-0.8379,0.83961],[0.76158,-0.76313]],[[527.26209,395.12428],[0.06722,1.07604],[-0.19594,-3.13674]],[[525.17273,385.93011],[0.67491,3.06954],[-2.11902,-9.63749]],[[516.64147,357.90471],[3.22652,9.32106],[-2.16049,-6.24141]],[[510.02133,338.72985],[1.43245,6.44214],[-1.07435,-4.83168]],[[508.41293,323.5292],[0.51603,4.92725],[-0.62319,-5.95045]],[[506.53304,305.54646],[0.2341,5.97791],[-0.63287,-16.16117]],[[506.52963,256.88755],[0,16.17556],[0,-11.24715]],[[507.81446,222.95172],[-2.12438,11.11055],[1.97541,-10.33143]],[[515.59955,192.255],[-2.2679,10.27834],[2.51746,-11.40934]],[[520.05833,157.99379],[-0.91927,11.62487],[0.92904,-6.51476]],[[522.87853,138.28355],[-0.49047,6.56029],[0.94985,-12.7048]],[[523.04615,99.72539],[0,12.7418],[0,-13.78211]],[[521.82331,58.55143],[1.71009,13.68172],[-2.26365,-20.03592]],[[520.04321,-1.64885],[0.00089,20.15136],[-0.00026,-5.89823]],[[520.04315,-19.40374],[-0.22274,5.89539],[0.0358,-0.94759]],[[520.33896,-22.2331],[0.46236,0.82791],[-1.24274,-2.22527]],[[514.64545,-23.94639],[1.81148,0.31205],[-3.16052,-0.54443]],[[505.11594,-25.27146],[3.20604,0.08117],[-4.90659,-0.14477]],[[490.80849,-26.92702],[4.84418,0.36363],[-4.44781,-0.33387]],[[477.38482,-26.92132],[4.45618,0.2366],[-23.97706,-1.27304]],[[406.44743,-38.5412],[22.88029,7.44085],[-19.33306,-6.29034]],[[346.52097,-49.66191],[20.35302,1.567],[-0.96401,0.46225]],[[344.48816,-49.60045],[0,0],[-0.22321,-0.08371]],[[343.81417,-49.86038],[0.22607,0.08941],[-11.31586,-0.78875]],[[309.93126,-50.93787],[11.22727,0.00571],[-3.20366,-0.00164]],[[300.32029,-50.94278],[3.20366,0.00164],[0,0]],[297.31792,-50.94278]],&quot;closed&quot;:true}]}" fill="#005fff"/></g></g></svg>