<svg version="1.1" xmlns="http://www.w3.org/2000/svg" xmlns:xlink="http://www.w3.org/1999/xlink" width="77.83956" height="79.26619" viewBox="0,0,77.83956,79.26619"><g transform="translate(-201.0802,-140.36689)"><g data-paper-data="{&quot;isPaintingLayer&quot;:true}" stroke="none" stroke-linecap="butt" stroke-linejoin="miter" stroke-miterlimit="10" stroke-dasharray="" stroke-dashoffset="0" style="mix-blend-mode: normal"><path d="M277.44931,185.14889c-0.43908,0.65861 -1.17087,1.17087 -1.68313,1.82949c-1.17087,1.53677 -1.17087,2.92718 -0.51226,4.68348c1.46359,3.80533 0.51226,8.1961 -2.56128,10.90373c-1.46359,1.31723 -3.43943,2.1222 -5.3421,2.34174c-2.63446,0.29272 -2.4881,0.29272 -4.68348,2.41492c-1.82949,1.90267 -2.19538,5.12256 -4.09805,6.95205c-1.17087,1.17087 -3.07354,3.14672 -7.68384,2.34174c-2.4881,-0.51226 -4.31759,-1.24405 -6.73251,-1.75631c-3.58579,-0.73179 -3.14672,-0.3659 -5.708,1.75631c-3.43943,2.78082 -8.48881,4.46395 -12.07461,1.31723c-1.90267,-1.68313 -2.854,-3.73215 -4.31759,-5.708c-2.19538,-3.00036 -4.68348,-2.78082 -8.04974,-3.00036c-3.80533,-0.21954 -6.36661,-3.58579 -6.36661,-7.53748c-0.07318,-2.56128 0.29272,-5.3421 -1.17087,-7.68384c-1.09769,-1.75631 -2.19538,-3.07354 -3.43943,-4.68348c-3.21989,-4.02487 -1.90267,-7.97656 0.07318,-12.14779c1.46359,-3.07354 -2.1222,-4.6103 -1.31723,-7.61066c0.51226,-1.90267 6.07389,-4.53712 6.43979,-9.51333c0.14636,-1.90267 -0.43908,-7.97656 3.73215,-7.53748c1.24405,0.14636 2.92718,0.21954 4.02487,-0.51226c1.39041,-0.95133 1.39041,-1.39041 1.68313,-2.92718c0.87815,-4.68348 3.80533,-7.0984 8.63517,-5.63482c1.82949,0.58544 3.21989,1.46359 5.12256,1.24405c1.97584,-0.21954 2.92718,-1.68313 4.53712,-2.63446c1.75631,-1.09769 4.31759,-2.04902 6.43979,-1.53677c2.04902,0.51226 2.34174,2.1222 3.51261,3.65897c2.41492,3.14672 5.3421,0.43908 8.26928,0.07318c3.58579,-0.43908 6.58615,1.60995 7.31794,4.68348c0.29272,1.17087 0.65861,1.97584 1.46359,2.854c1.09769,1.17087 1.60995,1.24405 3.07354,1.31723c1.75631,0.07318 4.17123,0.87815 5.41528,2.1222c3.51261,3.65897 0.29272,8.48881 0.73179,12.87958c0.29272,3.29307 3.00036,4.17123 4.82984,6.43979c1.17087,1.39041 1.82949,3.21989 1.90267,5.04938c0.07318,1.97584 -0.43908,3.95169 -1.46359,5.56164z" fill="#eb1ec9" fill-rule="evenodd" stroke-width="1"/><path d="M218.72918,180c0,-11.74755 9.52327,-21.27082 21.27082,-21.27082c11.74755,0 21.27082,9.52327 21.27082,21.27082c0,11.74755 -9.52327,21.27082 -21.27082,21.27082c-11.74755,0 -21.27082,-9.52327 -21.27082,-21.27082z" fill="#f9d20d" fill-rule="evenodd" stroke-width="1"/><path d="" fill="#00ff66" fill-rule="nonzero" stroke-width="0.5"/></g></g></svg>