<svg version="1.1" xmlns="http://www.w3.org/2000/svg" xmlns:xlink="http://www.w3.org/1999/xlink" width="662.31346" height="423.27978" viewBox="0,0,662.31346,423.27978"><g transform="translate(136.02139,29.75744)"><g data-paper-data="{&quot;isPaintingLayer&quot;:true}" fill-rule="nonzero" stroke="none" stroke-linecap="butt" stroke-linejoin="miter" stroke-miterlimit="10" stroke-dasharray="" stroke-dashoffset="0" style="mix-blend-mode: normal"><path d="M-20.26777,101.76777c-1.76777,-1.76777 0,-3.53553 0,-3.53553l2.76777,-1.73223c1.86752,0.02319 3.75162,-0.35652 5.52123,-0.95373c2.74609,-0.18903 5.47019,-0.47172 8.1838,-0.7996c-0.48193,-10.22341 -0.20504,-20.52634 -0.20504,-30.74667c0,-16.16667 0,-32.33333 0,-48.5c-4.16667,0 -8.33333,0 -12.5,0c-13.24778,0 -27.26984,1.30087 -40.34297,-0.85601c-6.28339,-1.04723 -12.6169,-2.44746 -18.94603,-3.16075c-4.95321,-0.55822 -10.27063,-0.06823 -15.15932,-1.02784c-4.00319,-0.7858 -7.91512,-3.49585 -11.95132,-3.98755c-1.31611,-0.16033 -2.67098,0.22893 -3.97752,0.00354c-0.27973,-0.04826 -9.4319,-2.91739 -9.91333,-3.06794c-4.79151,-1.49837 -9.58914,-2.58647 -14.3242,-4.26379l-2.96855,-0.70864c0,0 -2.43102,-0.58323 -1.84778,-3.01425c0.58323,-2.43102 3.01425,-1.84778 3.01425,-1.84778l3.22239,0.77664c4.75763,1.68694 9.57853,2.7812 14.39526,4.28542c3.0618,0.95617 6.01261,2.36829 9.17627,2.89756c1.32245,0.22124 2.69386,-0.17703 4.02248,0.00354c4.15396,0.56455 8.00978,3.21103 12.11513,4.01688c4.74708,0.93182 9.9619,0.42447 14.77423,0.96773c6.41129,0.72376 12.82513,2.13444 19.19003,3.19526c12.76616,2.15102 26.57592,0.78798 39.52097,0.78798c4.16667,0 8.33333,0 12.5,0c0,-1.84609 0,-3.69217 0,-5.53826c-0.74484,-0.80458 -1.37805,-1.85905 -1.89273,-3.23728c-0.13606,-0.36435 -0.10727,-5.99268 -0.10727,-6.72446c0,-2.48113 0,-4.96226 0,-7.44339c-2.71977,0.22597 -5.43561,0.52854 -8.14645,0.91827c0,0 -2.47487,0.35355 -2.82843,-2.12132c-0.35355,-2.47487 2.12132,-2.82843 2.12132,-2.82843c2.94698,-0.41847 5.89853,-0.73749 8.85355,-0.96983c0,-2.1851 0,-4.37019 0,-6.55529v-1c0,0 0,-2.5 2.5,-2.5c2.5,0 2.5,2.5 2.5,2.5c0,2.08091 0,5.16181 0,7.24272c24.90749,-1.16769 50.01703,3.29651 74.67432,5.76224c12.98709,1.29871 26.18587,1.64636 39.11709,3.34683c3.28396,0.43185 6.48453,1.41827 9.77839,1.7667c9.28328,0.98198 18.73502,-0.10066 28.03899,0.38388c7.33307,0.3819 14.56738,2.01015 21.89121,1.99763c9.33333,0 18.66667,0 28,0c3.4756,0 8.13689,0.77464 11.52723,0.04511c8.37852,-1.80289 12.96226,-9.6631 20.89839,-11.97823c1.04615,-0.30518 2.18979,0.10366 3.26892,-0.04815c2.37167,-0.33363 4.53405,-1.64779 6.905,-1.98645c4.57577,-0.65359 9.78243,-0.03228 14.40046,-0.03228c4.66667,0 9.33333,0 14,0c0.9973,0 7.20916,-0.01008 7.47277,0.04511c1.70308,0.35658 3.18689,1.42585 4.85858,1.90865c2.66051,0.76839 5.5535,0.41208 8.23314,1.1108c1.71434,0.44702 3.285,1.32938 4.94527,1.94768c1.45621,0.5423 2.95717,0.96082 4.43275,1.44821c6.75658,-2.38557 13.54138,-4.65656 20.45594,-6.387c11.12909,-2.78517 23.12358,-4.23082 34.49044,-5.74743c17.61175,-2.34823 35.23992,-4.69017 53.02199,-5.32443c16.31446,-0.58192 32.76265,-0.00159 49.08912,-0.00159c8.33328,0 16.66673,-0.01515 25,0c2.62965,0.00478 8.90653,-0.53125 10.97051,1.96147c1.18279,1.42847 0.4147,3.68749 0.52949,5.53853c0.2663,4.29434 0,8.69878 0,13c0,8.57033 -0.46318,17.29037 -0.00483,25.84466c0.29206,5.45083 1.00485,10.63238 1.00466,16.12607c0.2856,12.36153 1.54346,24.50308 2.98524,36.75648c0.50355,4.27954 0.393,8.64804 0.98908,12.9142c0.66134,4.73321 2.5084,9.34215 3.01194,14.09521c0.80538,7.60217 -0.54,15.44277 0.00625,23.06782c0.21532,3.00558 0.94748,5.95161 1.41744,8.92802c1.74113,11.02716 4.02509,21.97478 5.70133,33.00785c0.74787,4.9225 1.02047,9.9323 1.85351,14.84061c2.98729,17.60123 9.10944,34.54565 12.27818,52.08939c4.56272,25.39002 0.94278,53.11641 -5.32195,77.95375c-1.96997,7.81022 -5.04013,15.50401 -7.53321,23.16525c-5.15285,15.83472 -9.31403,32.13862 -14.96396,47.77938c-1.11641,3.09058 -2.01323,6.25675 -3.09238,9.36053c-0.71276,2.05 -0.77476,4.57193 -2.33898,6.07649c-0.70337,0.67654 -9.01052,0.49427 -9.49233,0.49427c-8.95918,0 -17.57576,0.09468 -26.43828,-1.26878c-10.92987,-1.69846 -22.50451,-0.73122 -33.56172,-0.73122c-22.0337,0 -44.06746,0.01435 -66.10115,-0.00235c-10.1376,-0.00768 -19.94391,-1.38338 -30.03394,-2.0013c-6.22207,-0.38104 -12.65481,0.56076 -18.84261,-0.17178c-6.57053,-0.77785 -12.92591,-3.24615 -19.56139,-3.91676c-11.43939,-1.15611 -23.26318,-2.89898 -34.76112,-2.93104c-11.06719,-1.46409 -22.1969,-2.00257 -33.25062,-3.38811c-12.52446,-1.56989 -24.99475,-3.60322 -37.60451,-4.59348c-9.15121,-0.71866 -18.66125,0.00483 -27.84466,0.00483c-33.66667,0 -67.33333,0 -101,0c-14.33333,0 -28.66667,0 -43,0c-4.46968,0 -9.84254,1.54639 -12.3097,-3.54329c-1.30258,-2.68718 -0.1903,-5.97047 -0.1903,-8.95671c0,-5.57645 -0.58017,-11.57674 -0.00149,-17.11638c-0.53607,-0.1715 -1.06843,-0.38159 -1.59689,-0.63784c-0.78333,-0.37983 -5.23403,-3.55523 -6.15644,-4.08351c-3.25352,-1.86336 -4.65867,-1.65172 -6.77329,-4.7005c-1.67536,-2.41548 -3.04851,-5.03639 -4.33898,-7.67762c-3.48417,-7.13114 -1.78984,-13.16381 -0.52598,-20.50741c1.29817,-7.543 2.911,-15.05229 3.75383,-22.66422c3.7798,-34.04238 2.63924,-68.40514 2.63924,-102.61252c0,-17.66667 0,-35.33333 0,-53c0,-9.05663 -1.08944,-18.79174 1.07464,-27.60634c0,0 0.00629,-0.02515 0.02014,-0.06968c-0.86234,0.10961 -1.7306,0.16781 -2.59478,0.17601l0.76777,0.26777c0,0 -1.76777,1.76777 -3.53553,0zM22.09954,10.46772c-1.00771,-0.12596 -2.02976,-0.02167 -3.04867,0.03228c1.08343,0 2.16685,0 3.25028,0c-0.0667,-0.01295 -0.13388,-0.02381 -0.20161,-0.03228z" fill="#000000" stroke-width="0.5"/><text transform="translate(129.26442,72.95679) scale(0.42323,0.71198)" font-size="40" xml:space="preserve" fill="#ff0000" fill-rule="nonzero" stroke="none" stroke-width="1" stroke-linecap="butt" stroke-linejoin="miter" stroke-miterlimit="10" stroke-dasharray="" stroke-dashoffset="0" font-family="Sans Serif" font-weight="normal" text-anchor="start" style="mix-blend-mode: normal"><tspan x="0" dy="0">you have been banned </tspan></text><text transform="translate(23.5,109) scale(0.5,0.5)" font-size="40" xml:space="preserve" fill="#ff0000" fill-rule="nonzero" stroke="none" stroke-width="1" stroke-linecap="butt" stroke-linejoin="miter" stroke-miterlimit="10" stroke-dasharray="" stroke-dashoffset="0" font-family="Sans Serif" font-weight="normal" text-anchor="start" style="mix-blend-mode: normal"><tspan x="0" dy="0">if you think this was a mistake contact </tspan><tspan x="0" dy="48px">support number 716 303-4631!</tspan></text><text transform="translate(94.5,261) scale(0.75,0.75)" font-size="40" xml:space="preserve" fill="#ff0000" fill-rule="nonzero" stroke="none" stroke-width="1" stroke-linecap="butt" stroke-linejoin="miter" stroke-miterlimit="10" stroke-dasharray="" stroke-dashoffset="0" font-family="Sans Serif" font-weight="normal" text-anchor="start" style="mix-blend-mode: normal"><tspan x="0" dy="0">time left:forever</tspan></text></g></g></svg>