<svg version="1.1" xmlns="http://www.w3.org/2000/svg" xmlns:xlink="http://www.w3.org/1999/xlink" width="54.37533" height="55.41526" viewBox="0,0,54.37533,55.41526"><g transform="translate(-203.261,-122.18663)"><g data-paper-data="{&quot;isPaintingLayer&quot;:true}" fill="#ff0000" fill-rule="nonzero" stroke="none" stroke-width="0.5" stroke-linecap="butt" stroke-linejoin="miter" stroke-miterlimit="10" stroke-dasharray="" stroke-dashoffset="0" style="mix-blend-mode: normal"><path d="M224.74885,142.92857l-0.29026,-0.14537c-4.0706,-1.79405 -6.19034,-1.04621 -10.44115,0.05248c0,0 -1.77393,0.45532 -2.67487,-0.93177c-1.46874,3.32344 -2.66315,6.72646 -3.12328,10.3144l0.10118,-0.51299c0,0 0.82049,2.36153 -1.54104,3.18201c-2.36153,0.82049 -3.18201,-1.54104 -3.18201,-1.54104l-0.33642,-1.77247c1.15631,-8.79011 6.13721,-16.32659 9.57824,-24.39156c0,0 0.79421,-1.8607 2.62757,-1.51995c0.08271,-0.63251 0.43333,-1.32501 1.41598,-1.7937c2.25647,-1.07626 3.33273,1.18022 3.33273,1.18022c3.70209,7.81557 9.90941,14.20182 13.66706,22.07035l0.90929,1.65852c0,0 1.19756,2.19451 -0.99695,3.39206c-2.19451,1.19756 -3.39206,-0.99695 -3.39206,-0.99695l-1.03323,-1.90112c-1.00774,-2.11561 -2.1898,-4.12332 -3.45251,-6.08001c-0.65499,-0.01455 -1.16828,-0.26313 -1.16828,-0.26313zM217.11236,129.89388c-1.18157,2.67252 -2.55315,5.31258 -3.86736,7.97686c2.40044,-0.62973 5.51592,-1.54191 8.0329,-1.46611c-1.46751,-2.12483 -2.89865,-4.2692 -4.16554,-6.51075z"/><path d="M253.83333,135.5c-2.5,0 -2.5,-2.5 -2.5,-2.5l0.01931,-0.35658c-0.14517,-1.28208 -0.23896,-4.83925 -2.03704,-5.29274c-0.34078,-0.08595 -4.13525,-0.17148 -4.2183,0.37638c-0.38903,2.56645 0.44461,5.89212 0.56626,8.48174c0.0979,2.08411 -0.35748,4.16188 -0.70059,6.21988c-0.18887,1.13287 0.14821,2.39348 -0.3516,3.42754c-0.04062,0.08405 -0.08226,0.16751 -0.12484,0.25041l0.05184,0.01728l-1.3151,3.94531c-0.31417,1.02156 -1.26534,1.76412 -2.38994,1.76412c-1.38071,0 -2.5,-1.11929 -2.5,-2.5l0,-2.89469c-0.46949,-4.13885 -0.90814,-8.11893 -1.92536,-12.16563c0,0 -0.60634,-2.42536 1.81902,-3.0317c0.99457,-0.24864 1.68325,0.01252 2.14967,0.40718c-0.04243,-0.66434 -0.06366,-1.32583 -0.04334,-1.98183c0.04198,-1.3551 -0.38944,-2.85754 0.23603,-4.06039c2.47202,-4.75399 10.68774,-4.21586 13.59183,-0.44688c1.85321,2.40513 1.78957,4.15235 2.15283,6.86385l0.01931,0.97675c0,0 0,2.5 -2.5,2.5z"/><path d="M238.83167,164.12861c0.0823,-0.02034 0.17896,-0.03133 0.28569,-0.03535c0.14473,-0.01333 0.28779,-0.00878 0.42671,0.01203c0.28879,0.02182 0.60359,0.06545 0.89151,0.10157c-0.08524,-1.29979 -0.17743,-2.55412 -0.52545,-3.54617c-0.03234,-0.08767 -0.05821,-0.17902 -0.07694,-0.2736c-0.19184,-0.96874 0.43796,-1.90958 1.4067,-2.10142c0.23189,-0.04592 0.46218,-0.04476 0.68098,-0.00315c0.12449,-0.00614 0.53915,-1.43153 0.86791,-1.66131c-4.12021,-1.26258 -8.37155,-1.62992 -12.74315,-0.52674c-1.57102,0.39645 -2.93296,1.37818 -4.40806,2.04852c-0.25666,0.11664 -2.6196,0.83647 -3.84215,1.20678c-0.32742,1.55853 -1.96591,1.35057 -1.96591,1.35057c-3.39455,-0.43639 -8.28869,-0.67096 -11.37639,1.24153c-2.21741,1.37345 -0.87557,4.51425 -0.50314,6.43002c0.06203,0.31906 0.34152,2.40909 0.78183,2.79832c2.7652,2.44445 8.18743,2.75332 11.64006,2.39999c3.08596,-0.56077 5.96034,0.41464 9.10259,0.41863c3.93425,0.005 7.86524,-0.63308 11.77745,-0.6323c0.82971,0.00017 1.64798,0.23691 2.47769,0.23848c3.40678,0.00645 10.69787,0.90592 10.2886,-4.67314c-0.10157,-1.38457 -0.25378,-2.77642 -0.59478,-4.12218c-0.14788,-0.5836 -1.59103,-3.25346 -1.7886,-3.63087c-1.33736,-1.55033 -2.45251,-2.05766 -4.13178,-2.75314c0.20494,0.39086 0.36857,0.81816 0.48482,1.26795c0.28746,1.11223 0.32865,2.45325 -1.26776,2.80304c-0.54668,0.11978 -1.09765,-0.79669 -1.59179,-0.53395c-0.65594,0.34877 -0.0197,1.42191 0.09711,2.21882c2.1281,0.04532 4.26381,0.33208 4.46968,1.37168c0.38443,1.94127 -2.1112,2.40257 -4.54455,2.44821c-0.23897,2.26575 -0.96216,4.33886 -3.04781,2.2453c-0.62943,-0.63182 -1.00032,-1.46479 -1.23141,-2.39549c-0.7644,0.00069 -2.6975,-0.02746 -2.8755,-0.72168c-0.2326,-0.23926 -0.40098,-0.5463 -0.47063,-0.89802c-0.17059,-0.86142 0.30851,-1.70079 1.09789,-2.01107c0.06363,-0.03543 0.13286,-0.06314 0.20859,-0.08186zM218.63411,156.98403l1.41674,-0.84282c3.16585,-0.96255 5.94531,-2.69 9.10713,-3.51107c6.34192,-1.64691 12.66144,-0.53161 18.54448,1.9945c3.06309,1.31526 4.72343,2.04329 6.88233,4.52252c1.3133,2.45788 2.09273,4.1824 2.48325,6.9025c0.37645,2.62209 0.98148,2.92403 0.1538,5.60428c-2.18997,7.09167 -10.48432,5.2992 -15.97016,5.27884c-4.69915,-0.01744 -9.38194,0.96991 -14.11492,0.57638c-2.37765,-0.1977 -3.98815,-0.89703 -6.2458,-0.40058c-4.69321,0.4289 -11.19936,-0.0777 -14.81337,-3.54155c-1.1152,-1.06886 -1.3526,-3.09385 -1.63573,-4.50041c-0.76293,-3.79016 -1.63952,-7.39747 2.0531,-10.11725c0.63927,-0.47085 1.49109,-0.5463 2.24152,-0.80556c3.30065,-1.14031 6.51288,-1.42404 9.89763,-1.15976z"/><path d="M223.68649,163.77833c0,0.28799 -0.05964,0.56206 -0.16724,0.81052l0.00239,0.00279l0.00558,0.00112l0.01333,0.02095l0.33869,0.39514l0.10207,0.20414l0.03187,0.14343l0.07888,0.12396l0.01799,0.05396l0.0364,0.06066l0.25182,0.39572l0.01799,0.05396l0.03017,0.05028l-0.00603,0.02212l0.04098,0.12294l0.18186,0.45465l0.05224,0.38308l0.09377,0.37508v1.63311l-0.06095,0.2438v0.25131l-0.10207,0.40828l-0.0222,0.04162l-0.01453,0.05812l0.04107,0.1506l-0.13495,0.22492l-0.06362,0.25447l-0.13553,0.07745l-0.2072,0.34534l-0.61242,0.61242l-0.12599,0.0756l-0.09265,0.11404l-0.40828,0.30621l-0.15361,0.06468l-0.05053,0.08843l-0.39257,0.09814l-0.37295,0.15703l-0.09348,-0.04042l-0.16169,0.04042h-1.93932l-0.14254,-0.03564l-0.14615,0.01512l-0.57087,-0.08155l-0.16113,0l-0.16169,-0.04042l-0.09348,0.04042l-0.37295,-0.15703l-0.39257,-0.09814l-0.05053,-0.08843l-0.15361,-0.06468l-0.40828,-0.30621l-0.20414,-0.05103l-0.03999,-0.06999l-0.08048,-0.00447l-0.6847,-0.79882l-0.12182,-0.24364l-0.19577,-0.26102l-0.12734,-0.30244l-0.17618,-0.27685l-0.30621,-0.91862l-0.00989,-0.12862l-0.05522,-0.11658l-0.10207,-0.51035l0.00967,-0.20309l-0.04931,-0.19725v-1.73518l0.07959,-0.31836l0.02517,-0.32719l0.09938,-0.29814v-0.68942l0.07959,-0.31836l0.02517,-0.32719l0.20414,-0.61242l0.14639,-0.23004l0.09171,-0.25678l0.40828,-0.61242l0.63309,-0.57553l0.04475,-0.07832l0.0571,-0.01428l0.04355,-0.03959l0.08999,0.00621l0.83005,-0.20751h1.12276l0.19725,0.04931l0.20309,-0.00967l0.51035,0.10207l0.06494,0.03076l0.07184,0.00153l1.10181,0.30049l0.55169,0.13792h0.0549c0.34795,0 0.67556,0.08705 0.96225,0.24056l0.05844,0.01461l0.01538,0.02691c0.60168,0.3551 1.00531,1.01006 1.00531,1.7593zM220.02723,165.55462l-0.0197,-0.01051l-0.02232,-0.00047l-0.78978,-0.21539v0.08319l-0.07959,0.31836l-0.02517,0.32719l-0.09938,0.29814l0,1.20177l0.0375,0.18751l0.16126,0.48378l0.10745,0.14326l0.03293,0.0782l0.11286,0.06772l0.40757,0.05822l0.87562,0l0,-0.72963l-0.05813,-0.14533l-0.00829,-0.06082l-0.03296,-0.05179l-0.01799,-0.05396l-0.0364,-0.06066l-0.25182,-0.39572l-0.01799,-0.05396l-0.03017,-0.05028l0.00603,-0.02212l-0.01407,-0.04222l-0.03719,-0.07438l-0.22823,-1.02705l0.14859,-0.22288z"/><path d="M235.61346,164.33235c1.01962,2.35569 -1.06871,2.99381 -3.26985,2.92695c-0.47425,2.23646 -1.12788,4.33838 -2.42261,4.33838c-2.38602,0 -2.31882,-2.79413 -1.8007,-5.458c-0.63027,-0.34747 -1.05724,-1.01834 -1.05724,-1.78893c0,-1.11291 0.89058,-2.01782 1.99795,-2.04093c0.0507,-0.20492 0.09058,-0.3812 0.11548,-0.52281c0.12144,-0.69054 -0.23244,-3.00216 0.41418,-3.37166l1.7593,-1.00531c0.31656,0 0.61629,0.07205 0.88369,0.20066c2.25248,0.41287 5.18012,0.47294 4.73013,3.78005c-0.10629,0.78117 -1.24156,2.26634 -2.04139,2.04139c-0.56064,-0.15768 -1.2847,-1.40092 -1.51698,-0.86685c-0.03428,0.07882 -0.06759,0.16486 -0.10008,0.25745c1.11984,0.30982 2.01936,0.84248 2.30812,1.50962z"/></g></g></svg>