<svg version="1.1" xmlns="http://www.w3.org/2000/svg" xmlns:xlink="http://www.w3.org/1999/xlink" width="46.99567" height="41.19237" viewBox="0,0,46.99567,41.19237"><g transform="translate(-213.0625,-160.99513)"><g data-paper-data="{&quot;isPaintingLayer&quot;:true}" fill-rule="nonzero" stroke="none" stroke-width="0.5" stroke-linecap="butt" stroke-linejoin="miter" stroke-miterlimit="10" stroke-dasharray="" stroke-dashoffset="0" style="mix-blend-mode: normal"><path d="M252.91005,199.92957c-0.02987,0.06503 -0.09226,0.13293 -0.22255,0.13293c-0.25,0 -0.25,-0.25 -0.25,-0.25l0.24333,-0.37491c0.26518,-0.00551 0.624,-0.05293 1.04042,-0.1178c-0.07662,-0.46103 -0.15487,-0.89713 -0.1652,-0.98493c-0.38346,-3.25943 -0.7147,-6.49885 -1.07638,-9.75393c-0.3687,-3.31832 -1.66785,-6.52349 -1.66655,-9.87573c-0.38326,-2.6539 -0.78636,-5.19256 -1.33714,-7.79748c-0.14515,0.28217 -0.33853,0.55127 -0.58759,0.80358c-1.49651,2.85117 -5.23406,5.13998 -8.30657,5.78683c-3.29133,0.69291 -6.38992,1.31438 -9.76933,1.31438c-3.52396,0 -5.96279,-0.77514 -9.14016,-2.16798c-0.4045,-0.40163 -0.80504,-0.81829 -1.18023,-1.25128c0.03979,1.02058 0.07038,2.03684 0.07038,3.04426c-0.00006,3.21021 0.375,6.39164 0.375,9.625c0,3.36916 0.5662,6.96594 0.29066,10.27249c-0.02569,0.30663 -0.04423,1.32798 -0.38759,1.77432c0.20594,-0.05202 0.42665,-0.09748 0.56091,-0.11372c0.05487,-0.05048 0.14581,-0.0952 0.27283,-0.03169c0.00355,0.00178 0.00702,0.00358 0.0104,0.00541c0.37013,-0.0273 0.73734,-0.03132 1.10926,-0.06524c1.47452,-0.13449 3.04355,-0.3381 4.51853,-0.34156c3.29167,0 6.58333,0 9.875,0c3.37998,0 6.75996,0 10.13994,0c1.26242,0 2.8587,-0.25766 4.06488,0.13808c0.45895,0.15058 2.01087,1.09972 2.47314,0.83306c0.02972,-0.01714 -0.00231,-0.29867 -0.05544,-0.65562c-0.29402,0.02082 -0.59342,0.03899 -0.89996,0.05154zM259.28648,199.34294c-0.77309,-1.92746 -0.82985,-3.95628 -0.86696,-6.03577c-0.05108,-3.2459 -1.99551,-6.22399 -2.3548,-9.46143c-0.50192,-3.18436 -1.44858,-5.89742 -1.51841,-9.16272c-0.06419,-3.31516 -1.06091,-6.55679 -3.05687,-9.21798c-0.99863,-1.26283 -2.17713,-2.17203 -3.51887,-2.73113c0.1581,0.89598 0.3669,1.77065 0.59517,2.63801c0.78585,1.46833 1.46273,3.13694 1.21828,4.59781c0.002,0.00888 0.004,0.01775 0.006,0.02663c0.64703,2.91197 1.10538,5.72254 1.52186,8.67344c0.00128,3.34394 1.29682,6.54459 1.66475,9.85592c0.36159,3.25431 0.69264,6.49206 1.07601,9.75072c0.01758,0.14939 0.10875,0.53188 0.1912,0.95909c1.70243,-0.27928 4.0061,-0.66594 5.04265,0.10741zM244.4375,161.5625c0.05241,0 0.10468,0.00036 0.15679,0.00108c-0.03179,-0.06286 -0.03179,-0.12608 -0.03179,-0.12608l0.07322,-0.42678c0.67626,-0.09292 1.21529,0.24016 1.65614,0.71347c2.21377,0.40099 4.10082,1.5475 5.59371,3.43577c2.06497,2.75339 3.08097,6.08507 3.16062,9.51237c0.06949,3.24891 1.01561,5.93495 1.51409,9.10692c0.36308,3.26388 2.29433,6.24033 2.35916,9.519c0.03736,2.09359 0.08402,4.14061 0.91965,6.07109l0.19635,0.45384c0.0146,0.03175 0.02274,0.06708 0.02274,0.10432c0,0.13807 -0.11193,0.25 -0.25,0.25c-0.04777,0 -0.09241,-0.0134 -0.13037,-0.03664l-0.32816,-0.19298c-1.76351,-0.40958 -3.3105,-0.24545 -5.00528,-0.11039c0.06156,0.46416 0.06822,0.87867 -0.0848,1.00387c-0.75163,0.61493 -2.278,-0.4143 -3.02686,-0.66694c-1.13583,-0.38318 -2.71242,-0.11192 -3.90525,-0.11192c-3.37998,0 -6.75996,0 -10.13994,0c-3.29167,0 -6.58333,0 -9.875,0c-1.7615,-0.00477 -3.59441,0.27743 -5.36117,0.37462c-0.0562,0.00309 -0.1548,0.02112 -0.27909,0.04615l-0.1033,0.16689c-1.88362,0.13887 -2.99039,-0.00029 -4.30906,1.20161l-0.09634,0.19269c-0.04009,0.08456 -0.12623,0.14304 -0.22603,0.14304c-0.11246,0 -0.20758,-0.07426 -0.23899,-0.17641l-0.12318,-0.36953l0.00599,-0.002l-0.01213,-0.01962c-0.21976,-1.5115 -0.10324,-3.00345 -0.37777,-4.51336c-0.57307,-3.24831 -1.98264,-6.36909 -2.50306,-9.52346c-0.00019,-3.09863 -0.62585,-6.1536 -0.62585,-9.27062c0,-2.79695 1.57775,-6.06352 2.79719,-8.52118c1.97143,-1.99454 2.97225,-4.02617 5.82664,-4.52358c1.65135,-1.07132 3.64683,-1.52245 5.82542,-2.17602c3.04307,-0.91015 6.37903,-1.19719 9.5236,-1.59027c1.87331,-0.23238 5.17828,-0.5748 7.30333,0.08089c0.05265,-0.01984 0.09881,-0.01984 0.09881,-0.01984zM245.51593,162.45781c-0.14531,0.20343 -0.34874,0.05812 -0.34874,0.05812c-1.72817,-1.23441 -5.96537,-0.78353 -8.06982,-0.51835c-3.11459,0.38931 -6.42935,0.66635 -9.44195,1.57304c-1.87564,0.56269 -3.62073,0.95706 -5.11174,1.764c0.00878,0.02299 0.015,0.04955 0.01779,0.08023c0.02263,0.24897 -0.22634,0.27161 -0.22634,0.27161c-0.16285,0.0148 -0.31965,0.03441 -0.47084,0.05855c-0.89343,0.6025 -1.67689,1.40744 -2.31889,2.56304c-1.19334,2.11106 -0.68976,3.94852 0.38288,5.55335c-0.05928,-1.39141 -0.11578,-2.78671 -0.11578,-4.17392v-0.25c0,0 0,0 0,0c0,-0.13807 0.11193,-0.25 0.25,-0.25c0.11246,0 0.20758,0.07426 0.23899,0.17641l0.12318,0.36953c0,0 0.06793,0.20379 -0.11105,0.29653c0.00975,1.51543 0.08152,3.03871 0.1455,4.55511c0.4616,0.58008 0.97977,1.12781 1.49354,1.6454c3.11328,1.2977 5.41923,2.08202 8.85984,2.08202c3.34496,0 6.4082,-0.61773 9.66632,-1.30365c3.00282,-0.63217 6.52131,-2.84101 8.00778,-5.59514c0.43105,-0.42507 0.67836,-0.91034 0.78822,-1.43125c-0.33992,-1.51987 -0.79164,-2.99254 -1.18783,-4.48531c-0.48926,-0.89045 -1.01527,-1.69749 -1.36522,-2.30831c-0.15704,-0.26258 -0.62843,-0.67447 -1.04047,-1.05195c-0.07263,-0.00893 -0.14562,-0.01705 -0.21897,-0.02437c0.0292,0.02312 0.18586,0.16013 0.0536,0.34529zM245.05517,161.49418c-0.00553,0.0248 -0.01523,0.05478 -0.03224,0.08365c0.03373,0.00179 0.06739,0.00373 0.10099,0.00582c-0.02625,-0.03153 -0.04933,-0.06143 -0.06875,-0.08947zM247.15323,162.93616c0.1531,0.26867 0.33239,0.56707 0.52443,0.88844c-0.08828,-0.40339 -0.16825,-0.80997 -0.23675,-1.221c0,0 -0.00491,-0.02948 -0.00115,-0.06975c-0.21775,-0.07368 -0.43948,-0.1387 -0.66514,-0.19508c0.13693,0.20037 0.26247,0.40438 0.37862,0.59739zM216.26531,170.08368c-1.18029,2.33482 -2.70281,5.56028 -2.70281,8.22882c0,3.10316 0.62434,6.14441 0.62415,9.22938c0.52822,3.13495 1.9266,6.24364 2.49694,9.47654c0.25638,1.41009 0.17404,2.8019 0.33696,4.21018c0.21813,-0.27094 0.63643,-0.54294 0.79529,-0.63451c0.61542,-0.35471 1.47931,-0.47187 2.29597,-0.4649c0.21625,-0.59263 0.59993,-1.61684 0.61807,-1.83574c0.27435,-3.29216 -0.29239,-6.87544 -0.29239,-10.23097c0,-3.23363 -0.37495,-6.41425 -0.375,-9.625c0,-1.21811 -0.04478,-2.44978 -0.09644,-3.68656c-1.45759,-1.89468 -2.27906,-4.09096 -0.85774,-6.6857c0.45058,-0.81104 0.96578,-1.45855 1.5366,-1.98864c-1.88734,0.75805 -2.76872,2.41672 -4.3796,4.00707z" fill="#000000"/><path d="M245.42122,162.14098c0.07334,0.00732 0.22884,-0.04106 0.30148,-0.03213c0.41204,0.37748 0.88605,0.7937 1.04309,1.05628c0.34995,0.61082 0.87954,1.42627 1.3688,2.31671c0.39619,1.49278 0.8503,2.98067 1.19023,4.50054c-0.10986,0.52091 -0.3574,1.01111 -0.78845,1.43618c-1.48647,2.75413 -5.02096,4.99498 -8.02378,5.62715c-3.25812,0.68592 -6.37335,1.31333 -9.71831,1.31333c-3.44061,0 -5.7728,-0.80801 -8.88608,-2.10572c-0.51377,-0.51759 -1.03485,-1.07223 -1.49646,-1.65231c-0.06398,-1.5164 -0.13837,-3.05554 -0.14812,-4.57097c0.17898,-0.09274 0.11106,-0.29762 0.11106,-0.29762l-0.12313,-0.37086c-0.03142,-0.10216 -0.02667,-0.17118 -0.13913,-0.17118c-0.13807,0 -0.24995,0.111 -0.24995,0.24908c0,0 0,0 0,0l0.00003,0.24912c0,1.38721 -0.04172,2.79457 0.01756,4.18598c-1.07264,-1.60483 -1.57765,-3.46125 -0.38431,-5.57231c0.642,-1.1556 1.42792,-1.97123 2.32135,-2.57372c0.1512,-0.02414 0.30827,-0.04454 0.47113,-0.05934c0,0 0.24945,-0.02389 0.22682,-0.27286c-0.00279,-0.03069 -0.00892,-0.0575 -0.01769,-0.08048c1.49102,-0.80695 3.24715,-1.21795 5.12279,-1.78064c3.0126,-0.90669 6.38035,-1.19507 9.49495,-1.58438c2.10445,-0.26519 6.36539,-0.69726 8.09356,0.53715c0,0 0.12023,0.20078 0.26554,-0.00266c0.13226,-0.18516 -0.02376,-0.32122 -0.05296,-0.34434z" data-paper-data="{&quot;noHover&quot;:false,&quot;origItem&quot;:[&quot;Path&quot;,{&quot;applyMatrix&quot;:true,&quot;segments&quot;:[[[245.51593,162.45781],[0.13226,-0.18516],[-0.14531,0.20343]],[[245.16719,162.51593],[0,0],[-1.72817,-1.23441]],[[237.09737,161.99759],[2.10445,-0.26519],[-3.11459,0.38931]],[[227.65542,163.57063],[3.0126,-0.90669],[-1.87564,0.56269]],[[222.54368,165.33463],[1.49102,-0.80695],[0.00878,0.02299]],[[222.56147,165.41487],[-0.00279,-0.03069],[0.02263,0.24897]],[[222.33513,165.68647],[0,0],[-0.16285,0.0148]],[[221.86429,165.74502],[0.1512,-0.02414],[-0.89343,0.6025]],[[219.5454,168.30807],[0.642,-1.1556],[-1.19334,2.11106]],[[219.92828,173.86142],[-1.07264,-1.60483],[-0.05928,-1.39141]],[[219.8125,169.6875],[0,1.38721],[0,0]],[[219.8125,169.4375],[0,0],[0,0]],[[219.8125,169.4375],[0,0],[0,-0.13807]],[[220.0625,169.1875],[-0.13807,0],[0.11246,0]],[[220.30149,169.36391],[-0.03142,-0.10216],[0,0]],[220.42467,169.73344],[[220.31362,170.02997],[0.17898,-0.09274],[0.00975,1.51543]],[[220.45912,174.58508],[-0.06398,-1.5164],[0.4616,0.58008]],[[221.95266,176.23048],[-0.51377,-0.51759],[3.11328,1.2977]],[[230.8125,178.3125],[-3.44061,0],[3.34496,0]],[[240.47882,177.00885],[-3.25812,0.68592],[3.00282,-0.63217]],[[248.4866,171.4137],[-1.48647,2.75413],[0.43105,-0.42507]],[[249.27482,169.98246],[-0.10986,0.52091],[-0.33992,-1.51987]],[[248.08699,165.49714],[0.39619,1.49278],[-0.48926,-0.89045]],[[246.72177,163.18884],[0.34995,0.61082],[-0.15704,-0.26258]],[[245.6813,162.13689],[0.41204,0.37748],[-0.07263,-0.00893]],[[245.46233,162.11252],[0.07334,0.00732],[0.0292,0.02312]]],&quot;closed&quot;:true}]}" fill="#ffffff"/><path d="M254.24552,199.2855c-0.08244,-0.42721 -0.17408,-0.80968 -0.19166,-0.95908c-0.38337,-3.25866 -0.71999,-6.49658 -1.08158,-9.7509c-0.36793,-3.31133 -1.69409,-6.59753 -1.69537,-9.94148c-0.41648,-2.9509 -0.85629,-5.77295 -1.50332,-8.68492c-0.002,-0.00888 -0.00398,-0.01776 -0.00599,-0.02664c0.24445,-1.46088 -0.40064,-3.03467 -1.1865,-4.503c-0.22827,-0.86736 -0.46721,-1.83737 -0.62531,-2.73335c1.34174,0.5591 2.5282,1.46654 3.52683,2.72936c1.99596,2.66119 3.00663,5.90287 3.07082,9.21803c0.06984,3.26531 1.04212,6.06561 1.54404,9.24997c0.35929,3.23744 2.28913,6.22434 2.34022,9.47024c0.03711,2.07949 0.09045,4.10951 0.86354,6.03696c-1.03655,-0.77335 -3.3533,-0.38449 -5.05573,-0.10521z" data-paper-data="{&quot;noHover&quot;:false,&quot;origItem&quot;:[&quot;Path&quot;,{&quot;applyMatrix&quot;:true,&quot;segments&quot;:[[[259.28648,199.34294],[-1.03655,-0.77335],[-0.77309,-1.92746]],[[258.41952,193.30717],[0.03711,2.07949],[-0.05108,-3.2459]],[[256.06472,183.84575],[0.35929,3.23744],[-0.50192,-3.18436]],[[254.54631,174.68302],[0.06984,3.26531],[-0.06419,-3.31516]],[[251.48943,165.46504],[1.99596,2.66119],[-0.99863,-1.26283]],[[247.97056,162.73391],[1.34174,0.5591],[0.1581,0.89598]],[[248.56574,165.37192],[-0.22827,-0.86736],[0.78585,1.46833]],[[249.78401,169.96973],[0.24445,-1.46088],[0.002,0.00888]],[[249.79001,169.99636],[-0.002,-0.00888],[0.64703,2.91197]],[[251.31187,178.6698],[-0.41648,-2.9509],[0.00128,3.34394]],[[252.97662,188.52572],[-0.36793,-3.31133],[0.36159,3.25431]],[[254.05263,198.27644],[-0.38337,-3.25866],[0.01758,0.14939]],[[254.24383,199.23553],[-0.08244,-0.42721],[1.70243,-0.27928]]],&quot;closed&quot;:true}]}" fill="#ffffff"/><path d="M220.65457,166.02755c-0.57081,0.53009 -1.10181,1.27628 -1.55238,2.08732c-1.42132,2.59474 -0.5788,4.69367 0.87879,6.58835c0.05166,1.23678 0.10568,2.4724 0.10568,3.6905c0.00005,3.21075 0.38052,6.47537 0.38052,9.70901c0,3.35553 0.54882,6.94716 0.27447,10.23933c-0.01815,0.21889 -0.40484,1.24374 -0.6211,1.83637c-0.81666,-0.00697 -1.68744,0.11093 -2.30286,0.46563c-0.15887,0.09157 -0.57949,0.36359 -0.79762,0.63454c-0.16292,-1.40829 -0.08199,-2.80012 -0.33837,-4.21022c-0.57034,-3.2329 -1.99737,-6.35195 -2.52559,-9.4869c0.00019,-3.08497 -0.62169,-6.2072 -0.62169,-9.31037c0,-2.66854 1.54721,-5.90251 2.7275,-8.23733c1.61088,-1.59035 2.50531,-3.24819 4.39264,-4.00624z" data-paper-data="{&quot;noHover&quot;:false,&quot;origItem&quot;:[&quot;Path&quot;,{&quot;applyMatrix&quot;:true,&quot;segments&quot;:[[[216.26531,170.08368],[1.61088,-1.59035],[-1.18029,2.33482]],[[213.5625,178.3125],[0,-2.66854],[0,3.10316]],[[214.18665,187.54188],[0.00019,-3.08497],[0.52822,3.13495]],[[216.68358,197.01842],[-0.57034,-3.2329],[0.25638,1.41009]],[[217.02055,201.22861],[-0.16292,-1.40829],[0.21813,-0.27094]],[[217.81584,200.5941],[-0.15887,0.09157],[0.61542,-0.35471]],[[220.11181,200.1292],[-0.81666,-0.00697],[0.21625,-0.59263]],[[220.72989,198.29347],[-0.01815,0.21889],[0.27435,-3.29216]],[[220.4375,188.0625],[0,3.35553],[0,-3.23363]],[[220.0625,178.4375],[0.00005,3.21075],[0,-1.21811]],[[219.96606,174.75094],[0.05166,1.23678],[-1.45759,-1.89468]],[[219.10832,168.06525],[-1.42132,2.59474],[0.45058,-0.81104]],[[220.64491,166.07661],[-0.57081,0.53009],[-1.88734,0.75805]]],&quot;closed&quot;:true}]}" fill="#ffffff"/><path d="M220.44962,175.36689c0.37519,0.43298 0.7751,0.8507 1.17959,1.25233c3.17737,1.39284 5.62549,2.15647 9.14945,2.15647c3.37941,0 6.53088,-0.63089 9.82221,-1.3238c3.07251,-0.64685 6.82304,-2.92782 8.31955,-5.77899c0.24906,-0.25231 0.44232,-0.52152 0.58746,-0.80368c0.55078,2.60492 0.96641,5.15915 1.34967,7.81304c-0.0013,3.35224 1.30258,6.58947 1.67129,9.90779c0.36168,3.25508 0.68339,6.51586 1.06685,9.77529c0.02321,0.19725 0.38704,2.1554 0.30717,2.20148c-0.46227,0.26665 -2.01593,-0.68062 -2.47488,-0.8312c-1.20617,-0.39574 -2.80854,-0.13281 -4.07096,-0.13281c-3.37998,0 -6.78953,0.00969 -10.16951,0.00969c-3.29167,0 -6.61241,-0.00932 -9.90408,-0.00932c-1.47498,0.00347 -3.05059,0.20146 -4.5251,0.33595c-0.46273,0.0422 -0.91964,0.03657 -1.38248,0.08863c-0.1329,0.01495 -0.36092,0.06102 -0.57284,0.11455c0.34336,-0.44634 0.36021,-1.46972 0.3859,-1.77635c0.27555,-3.30655 -0.30091,-6.92724 -0.30091,-10.2964c0,-3.23336 -0.37133,-6.44198 -0.37127,-9.65218c0,-1.00742 -0.02732,-2.02991 -0.06711,-3.05049z" data-paper-data="{&quot;noHover&quot;:false,&quot;origItem&quot;:[&quot;Path&quot;,{&quot;applyMatrix&quot;:true,&quot;segments&quot;:[[[441.125,356.875],[0,-2.01484],[-0.00011,6.42041]],[[441.875,376.125],[0,-6.46672],[0,6.73831]],[[442.45632,396.66998],[0.55109,-6.61309],[-0.05138,0.61326]],[[441.68114,400.21861],[0.68671,-0.89268],[0.42384,-0.10705]],[[442.8259,399.98849],[-0.2658,0.0299],[0.92569,-0.10413]],[[445.58795,399.80812],[-0.92546,0.08441],[2.94903,-0.26897]],[[454.625,399.125],[-2.94996,0.00693],[6.58333,0]],[[474.375,399.125],[-6.58333,0],[6.75996,0]],[[494.65487,399.125],[-6.75996,0],[2.52485,0]],[[502.78462,399.40116],[-2.41234,-0.79149],[0.9179,0.30116]],[[507.7309,401.06729],[-0.92453,0.5333],[0.15974,-0.09214]],[[507.11211,396.66972],[0.04641,0.3945],[-0.76692,-6.51886]],[[504.95935,377.16187],[0.72335,6.51016],[-0.73741,-6.63665]],[[501.62626,357.41041],[-0.0026,6.70448],[-0.76652,-5.30779]],[[498.95197,341.81544],[1.10156,5.20985],[-0.29029,0.56433]],[[497.7768,343.42259],[0.49812,-0.50461],[-2.99302,5.70235]],[[481.16365,354.99624],[6.14503,-1.29369],[-6.58266,1.38582]],[[461.625,357.625],[6.75881,0],[-7.04792,0]],[[443.34469,353.28903],[6.35474,2.78568],[-0.80899,-0.80326]],[[440.98423,350.78648],[0.75037,0.86597],[0.07957,2.04116]]],&quot;closed&quot;:true}]}" fill="#ffffff"/></g></g></svg>