<svg version="1.1" xmlns="http://www.w3.org/2000/svg" xmlns:xlink="http://www.w3.org/1999/xlink" width="200" height="185" viewBox="0,0,200,185"><g transform="translate(-175.01952,-89.51952)"><g data-paper-data="{&quot;isPaintingLayer&quot;:true}" fill-rule="nonzero" stroke="none" stroke-linecap="butt" stroke-linejoin="miter" stroke-miterlimit="10" stroke-dasharray="" stroke-dashoffset="0" style="mix-blend-mode: normal"><path d="M375.01952,182.01952c0,51.08634 -44.77153,92.5 -100,92.5c-55.22847,0 -100,-41.41366 -100,-92.5c0,-51.08634 44.77153,-92.5 100,-92.5c55.22847,0 100,41.41366 100,92.5z" fill="#ff0000" stroke-width="0"/><path d="M307.16667,177.84906c0,11.74388 -10.29745,21.26414 -23,21.26414c-12.70255,0 -23,-9.52029 -23,-21.26414c0,-11.74388 10.29745,-21.26415 23,-21.26415c12.70255,0 23,9.52029 23,21.26415z" fill="#ffffff" stroke-width="0"/><text transform="translate(218.5,237.75001) scale(0.43499,0.43499)" font-size="40" xml:space="preserve" fill="#000000" fill-rule="nonzero" stroke="none" stroke-width="1" stroke-linecap="butt" stroke-linejoin="miter" stroke-miterlimit="10" stroke-dasharray="" stroke-dashoffset="0" font-family="Sans Serif" font-weight="normal" text-anchor="start" style="mix-blend-mode: normal"><tspan x="0" dy="0">Blookstaition</tspan></text><path d="M179,145c0,-2.5 2.5,-2.5 2.5,-2.5h3c2.26278,0.02148 4.54602,0.40299 6.69897,1.0997c3.81331,0.953 7.71388,2.53892 11.64472,2.91598c1.66029,0.15926 3.3447,-0.15577 5.00371,0.0163c2.75116,0.28534 5.30833,1.65853 8.05305,2.0003c7.58701,0.94472 15.92928,-0.03228 23.59954,-0.03228c5.33345,0 13.8132,-1.26177 17.20419,4.32036c0.72514,1.19371 0.23832,2.78413 0.29581,4.17964c0.15062,3.65573 0,7.34052 0,11c-0.01393,2.45868 -0.74642,4.86187 -1.01873,7.30546c-0.1881,1.68789 0.20338,3.41057 -0.01355,5.095c-0.30592,2.3754 -1.64769,4.53406 -1.98645,6.905c-0.71625,5.01291 0.01873,10.61812 0.01873,15.69454c0,3.00712 0.77503,10.7124 -0.73223,12.76777c-0.68539,0.93463 -7.63801,0.73224 -8.76777,0.73223c-6.41184,-0.00003 -13.02181,0.31631 -19.40429,-0.37044c-4.65365,-0.50073 -8.89207,-1.64012 -13.59571,-1.62956c-9.24022,0 -18.20935,-2.5311 -27.30546,-4.01873c-2.13878,-0.34979 -4.73842,0.59987 -6.46231,-0.7135c-0.92859,-0.70746 -0.73724,-7.61971 -0.73223,-8.76777c0.00943,-2.16103 0.66426,-4.27097 1.03228,-6.40046c1.3563,-7.848 -1.20861,-16.01439 0.65234,-23.80601c-0.68463,-0.73927 -0.68463,-1.79354 -0.68463,-1.79354l0.07464,-2.60634c1.59972,-6.26802 0.92536,-12.93739 0.92536,-19.39366c0,0 0,-0.43923 0.1841,-0.94947c-0.11509,-0.28881 -0.1841,-0.63516 -0.1841,-1.05053z" fill="#87a6d7" stroke-width="0.5"/><text transform="translate(219.5,137) scale(0.5,0.5)" font-size="40" xml:space="preserve" fill="#87a6d7" fill-rule="nonzero" stroke="none" stroke-width="1" stroke-linecap="butt" stroke-linejoin="miter" stroke-miterlimit="10" stroke-dasharray="" stroke-dashoffset="0" font-family="Sans Serif" font-weight="normal" text-anchor="start" style="mix-blend-mode: normal"><tspan x="0" dy="0">old blue</tspan></text><text transform="translate(249.5,258) scale(0.5,0.5)" font-size="40" xml:space="preserve" fill="#87a6d7" fill-rule="nonzero" stroke="none" stroke-width="1" stroke-linecap="butt" stroke-linejoin="miter" stroke-miterlimit="10" stroke-dasharray="" stroke-dashoffset="0" font-family="Sans Serif" font-weight="normal" text-anchor="start" style="mix-blend-mode: normal"><tspan x="0" dy="0">epic</tspan></text></g></g></svg>