<svg version="1.1" xmlns="http://www.w3.org/2000/svg" xmlns:xlink="http://www.w3.org/1999/xlink" width="200" height="185" viewBox="0,0,200,185"><g transform="translate(-128.5,-40)"><g data-paper-data="{&quot;isPaintingLayer&quot;:true}" fill-rule="nonzero" stroke="none" stroke-linecap="butt" stroke-linejoin="miter" stroke-miterlimit="10" stroke-dasharray="" stroke-dashoffset="0" style="mix-blend-mode: normal"><path d="M328.5,132.5c0,51.08634 -44.77153,92.5 -100,92.5c-55.22847,0 -100,-41.41366 -100,-92.5c0,-51.08634 44.77153,-92.5 100,-92.5c55.22847,0 100,41.41366 100,92.5z" fill="#00ff52" stroke-width="0"/><path d="M160.25613,111.21727l2.74387,-1.71727c18.35032,0 36.65084,1 55,1c5.4475,0 14.76991,-1.77897 19.054,2.44761c0.5727,0.56501 4.03486,9.64222 4.40089,10.57962c0.13643,10.50285 0.04766,21.00792 0.16388,31.51162c0.01773,1.60274 0.00949,3.20593 0.04946,4.80827c0.0563,2.25698 1.41503,4.84142 0.23932,6.76882c-0.86559,1.41901 -3.25195,0.73633 -4.90755,0.88406c-3.32014,0.29626 -6.66667,0 -10,0c-14.33333,0 -28.66667,0 -43,0c-8.275,0 -16.74374,0.52147 -25,0c-2.26887,-0.1433 -5.00671,0.67925 -6.77946,-0.744c-1.37086,-1.10059 -0.72336,-3.47503 -0.66408,-5.23203c0.01926,-0.57102 1.86816,-9.05264 1.96188,-9.83959c1.72305,-14.46821 0.77878,-29.35379 1.99029,-43.892c0,0 0.20761,-2.49136 2.69898,-2.28375c2.49136,0.20761 2.28375,2.69898 2.28375,2.69898c-0.08358,1.00293 -0.1618,2.00616 -0.23523,3.00966z" fill="#ff0000" stroke-width="0.5"/><text transform="translate(185,91) scale(0.5,0.5)" font-size="40" xml:space="preserve" fill="#ff0000" fill-rule="nonzero" stroke="none" stroke-width="1" stroke-linecap="butt" stroke-linejoin="miter" stroke-miterlimit="10" stroke-dasharray="" stroke-dashoffset="0" font-family="Sans Serif" font-weight="normal" text-anchor="start" style="mix-blend-mode: normal"><tspan x="0" dy="0">Red </tspan></text><text transform="translate(178,189) scale(0.5,0.5)" font-size="40" xml:space="preserve" fill="#ff0000" fill-rule="nonzero" stroke="none" stroke-width="1" stroke-linecap="butt" stroke-linejoin="miter" stroke-miterlimit="10" stroke-dasharray="" stroke-dashoffset="0" font-family="Sans Serif" font-weight="normal" text-anchor="start" style="mix-blend-mode: normal"><tspan x="0" dy="0">Uncommon</tspan></text><text transform="translate(166.5,75) scale(0.5,0.5)" font-size="40" xml:space="preserve" fill="#000000" fill-rule="nonzero" stroke="none" stroke-width="1" stroke-linecap="butt" stroke-linejoin="miter" stroke-miterlimit="10" stroke-dasharray="" stroke-dashoffset="0" font-family="Sans Serif" font-weight="normal" text-anchor="start" style="mix-blend-mode: normal"><tspan x="0" dy="0">Blookstaition</tspan></text><path d="M266.16667,136.5566c0,6.38254 -5.59644,11.5566 -12.5,11.5566c-6.90356,0 -12.5,-5.17407 -12.5,-11.5566c0,-6.38254 5.59644,-11.5566 12.5,-11.5566c6.90356,0 12.5,5.17407 12.5,11.5566z" fill="#ffffff" stroke-width="0"/></g></g></svg>