<svg version="1.1" xmlns="http://www.w3.org/2000/svg" xmlns:xlink="http://www.w3.org/1999/xlink" width="40" height="38" viewBox="0,0,40,38"><g transform="translate(-220,-161)"><g data-paper-data="{&quot;isPaintingLayer&quot;:true}" fill-rule="nonzero" stroke="none" stroke-linecap="butt" stroke-linejoin="miter" stroke-miterlimit="10" stroke-dasharray="" stroke-dashoffset="0" style="mix-blend-mode: normal"><path d="M220,199v-38h40v38z" fill="#000000" stroke-width="0"/><path d="M227.83569,177.85171c-0.61875,-2.00594 0.47666,-2.4699 1.65205,-3.12582c4.18535,-2.33559 8.4693,-4.88093 12.70198,-7.26869c0.96952,-0.54694 4.73915,-2.47247 5.54807,-0.97969c0.15585,0.09678 0.30017,0.21019 0.43052,0.33768c0.33561,-0.17469 0.76083,-0.28126 1.29953,-0.26911c2.49936,0.05638 2.44299,2.55574 2.44299,2.55574l-0.0451,1.99949c-0.14802,6.5623 0.451,12.99783 0.31007,19.51195c0,0 -0.04396,1.94903 -1.77538,2.36602c-0.41202,0.85759 -1.29792,1.44065 -2.31099,1.4178c-0.00187,-0.00004 -0.00373,-0.00008 -0.0056,-0.00014c-0.27875,0.03314 -0.59951,-0.0266 -0.98992,-0.20987c-1.17325,-0.55078 -2.10909,-2.08235 -3.06601,-2.97929c-3.81647,-3.57718 -9.25222,-6.36638 -13.66469,-9.15109c-1.26598,-0.79896 -3.1169,-2.04775 -2.41976,-3.8941c-0.038,-0.09775 -0.07395,-0.20129 -0.10777,-0.3109z" fill="#ff0000" stroke-width="0.5"/></g></g></svg>