<svg version="1.1" xmlns="http://www.w3.org/2000/svg" xmlns:xlink="http://www.w3.org/1999/xlink" width="65.53426" height="66.73672" viewBox="0,0,65.53426,66.73672"><g transform="translate(-207.23287,-146.63164)"><g data-paper-data="{&quot;isPaintingLayer&quot;:true}" fill-rule="nonzero" stroke="none" stroke-linecap="butt" stroke-linejoin="miter" stroke-miterlimit="10" stroke-dasharray="" stroke-dashoffset="0" style="mix-blend-mode: normal"><path d="M272.76713,180c0,18.42883 -14.67034,33.36836 -32.76713,33.36836c-18.09679,0 -32.76713,-14.93953 -32.76713,-33.36836c0,-18.42883 14.67034,-33.36836 32.76713,-33.36836c18.09679,0 32.76713,14.93953 32.76713,33.36836z" fill="#9966ff" stroke-width="0"/><path d="M267.55692,199.29651c-1.5,2 -3.5,0.5 -3.5,0.5l-0.71514,-0.53669c-2.72615,-1.98266 -5.37715,-4.00968 -8.28967,-5.71013c-5.29181,-3.96438 -10.64047,-7.82222 -15.94709,-11.72742c-1.47071,2.15148 -2.93592,4.32553 -4.62068,6.26453c-3.41833,3.93417 -7.50368,7.30135 -11.01112,11.20059c-0.62199,0.68419 -1.24398,1.36838 -1.86597,2.05258l-0.26826,0.27226c0,0 -1.76777,1.76777 -3.53553,0c-1.76777,-1.76777 0,-3.53553 0,-3.53553l0.10409,-0.10009c0.61919,-0.68111 1.23838,-1.36221 1.85757,-2.04332c3.49068,-3.87635 7.558,-7.23443 10.95776,-11.14064c1.59586,-1.8336 2.98256,-3.89603 4.37156,-5.94043c-6.98022,-5.20823 -13.84329,-10.56723 -20.36063,-16.43284c0,0 -1.85824,-1.67241 -0.18582,-3.53065c1.67241,-1.85824 3.53065,-0.18582 3.53065,-0.18582c6.37602,5.73842 13.08944,10.97982 19.91658,16.0741c4.69542,-6.20506 9.67899,-12.03867 14.92056,-17.76695c0,0 1.68931,-1.84289 3.5322,-0.15357c1.84289,1.68931 0.15357,3.5322 0.15357,3.5322c-5.13483,5.59238 -9.99702,11.29683 -14.58805,17.36393c5.26011,3.87059 10.56131,7.69498 15.80289,11.6307c2.97447,1.73357 5.6837,3.80917 8.46625,5.83283l0.77428,0.58037c0,0 2,1.5 0.5,3.5z" fill="#000000" stroke-width="0.5"/></g></g></svg>