<svg version="1.1" xmlns="http://www.w3.org/2000/svg" xmlns:xlink="http://www.w3.org/1999/xlink" width="33.60609" height="28.74781" viewBox="0,0,33.60609,28.74781"><g transform="translate(-228.9635,-161.17568)"><g data-paper-data="{&quot;isPaintingLayer&quot;:true}" fill-rule="nonzero" stroke="none" stroke-linecap="butt" stroke-linejoin="miter" stroke-miterlimit="10" stroke-dasharray="" stroke-dashoffset="0" style="mix-blend-mode: normal"><path d="M233.02782,171.77845c0.27133,-0.29045 0.55773,-0.5665 0.85794,-0.8269z" fill="#ffffff" stroke-width="NaN"/><path d="M262.56959,161.17568v0z" fill="#ffffff" stroke-width="0"/><path d="" fill="#00ff66" stroke-width="0.5"/><path d="" fill="#00ff66" stroke-width="0.5"/><path d="M235.05554,187.40792c0,-0.95499 0.3648,-1.54518 0.8157,-1.90992c-1.0245,-0.99198 -1.97835,-2.06208 -2.88625,-3.15686c-0.77214,-0.93107 -1.96957,-1.57524 -2.4325,-2.69273c-0.46482,-1.12206 -0.12687,-2.42575 -0.1903,-3.63862c0,0 0,-2.68191 0,-2.68191c0,-0.33211 0.06476,-0.64909 0.18234,-0.93901c-0.19894,-0.15507 -0.39418,-0.30881 -0.58503,-0.4612c0,0 -1.95217,-1.56174 -0.39043,-3.51391c1.56174,-1.95217 3.51391,-0.39043 3.51391,-0.39043c3.5392,2.83638 10.7878,7.45199 12.7441,12.7238c0.03652,0.03617 0.0724,0.07314 0.10759,0.11096c3.48511,3.74538 4.30263,5.83202 -0.71764,8.85954c-0.28601,0.17248 -3.05317,0.1947 -4.86627,0.19402c-0.15931,0.01473 -0.32987,0.01713 -0.50574,-0.00075c-0.43808,-0.00109 -0.77815,-0.00297 -0.94853,-0.00297h-1.34096c0,0 -2.5,0 -2.5,-2.5z" fill="#9966ff" stroke-width="0.5"/></g></g></svg>