<svg version="1.1" xmlns="http://www.w3.org/2000/svg" xmlns:xlink="http://www.w3.org/1999/xlink" width="575.93456" height="458.6538" viewBox="0,0,575.93456,458.6538"><g transform="translate(47.79662,33.42315)"><g data-paper-data="{&quot;isPaintingLayer&quot;:true}" fill="#00ffa9" fill-rule="nonzero" stroke="none" stroke-width="0.5" stroke-linecap="butt" stroke-linejoin="miter" stroke-miterlimit="10" stroke-dasharray="" stroke-dashoffset="0" style="mix-blend-mode: normal"><path d="M305.03163,-16.89522c2.46119,0.26789 5.12733,-0.21606 7.69296,-0.74432c-4.52884,-0.08992 -9.05634,-0.25982 -13.50083,-0.26975c-0.1689,0.0563 -0.33781,0.1126 -0.50671,0.1689c2.07459,0.42828 4.20799,0.61588 6.31459,0.84517zM284.44365,-19.85635c0.38709,-0.85864 1.24573,-1.28797 1.24573,-1.28797l3.54665,-1.69856c3.19426,-0.04206 6.38885,-0.06688 9.58339,-0.06688c9.51486,0 19.44968,0.80676 28.93223,-0.07868c7.50812,-0.70107 14.93883,-2.46937 22.48026,-2.91988c3.3084,-0.19764 6.63774,0.25025 9.94288,0.00407c10.86484,-0.80927 21.45359,-4.37663 32.33719,-4.67733c3.23114,-0.06964 6.40548,-0.86642 9.6056,-1.31847c2.92563,-0.41328 5.90934,-0.01873 8.86402,-0.01873c6.66667,0 13.33333,0 20,0c21.15325,0 42.30616,0.02509 63.45912,-0.08044c7.99951,-1.15251 15.5211,-1.42106 23.59794,-1.42106c2.37699,0 8.19249,-0.08999 9.27607,0.73303c1.33108,1.01101 0.62132,3.29324 0.72848,4.9613c0.05975,0.93005 -0.19656,9.52092 -0.31126,10.32838c-0.23204,1.63358 -0.93021,3.17401 -1.20602,4.80077c-0.80539,4.75035 0.34977,10.13127 0.00689,14.95256c-0.18425,2.59073 -1.23354,5.06199 -1.50565,7.64497c-0.66978,6.35794 -1.48946,12.98278 -1.49768,19.38539c-0.49001,2.50458 -1.22078,4.97093 -1.5015,7.50751c-0.33033,2.98478 0.21074,6.01341 0,9.00901c-0.1797,2.55435 -1.15014,4.99721 -1.50419,7.53327c-0.56892,4.07519 0.04544,8.40353 -0.25288,12.50882c-0.12465,1.71536 -1.08736,8.09496 -1.2386,9.89693c-1.21603,14.48796 -0.78568,29.15989 -2.28949,43.64871c-0.69169,6.66427 -1.23374,13.39471 -2.31249,20.01097c-0.78732,4.82885 -2.43238,9.68771 -2.91279,14.55373c-0.63483,6.43001 0.0121,13.28835 0.0121,19.75437c0,15.67568 0,31.35135 0,47.02703c-0.00252,9.34612 1.19627,18.61802 1.50018,27.95168c0.10712,3.28998 -0.2517,6.59253 -0.00719,9.87516c0.22408,3.00842 1.09868,5.93538 1.49326,8.92621c0.97833,7.41554 1.25561,15.25279 1.51688,22.72833c0.32667,9.34693 0.00138,18.76197 0.00138,28.11623c-0.00004,12.87183 1.13019,25.61984 1.50046,38.47155c0.2378,8.25366 0.03909,16.54975 0.08755,24.80815c0.04909,8.36539 0.29358,16.27535 1.47715,24.56035c0.65051,4.5536 0.85297,8.5387 2.87396,12.68167c-0.22179,1.78172 0.6852,4.16206 -0.66536,5.34515c-1.58335,1.38702 -4.17318,0.57517 -6.27227,0.73223c-5.93723,0.44426 -12.07741,0 -18.03303,0c-5.00725,0 -10.21483,0.36684 -15.2062,-0.00852c-8.99809,-0.67668 -17.87182,-2.61947 -26.95458,-2.99664c-9.92556,-0.41217 -19.96088,0.00215 -29.89628,0.00215c-33.53353,0 -67.06707,0 -100.6006,0c-25.85957,-0.00002 -51.90004,0.88291 -77.74135,-0.07829c-7.46556,-0.27769 -14.90382,-1.42809 -22.37877,-1.42321c-33.60263,0 -67.20649,0.08237 -100.80898,-0.01186c-8.3332,-0.02337 -16.82618,0.42463 -25.14269,-0.0746c-6.66087,-0.39984 -13.37681,-1.56951 -20.00531,-2.34946c-8.02311,-0.94404 -16.31354,-1.03983 -24.26756,-2.39304c-10.92171,-1.8581 -21.84093,-4.10651 -32.78217,-5.98863c-15.92638,-5.11116 -32.07378,-8.52911 -48.39042,-12.18131c-4.52353,-1.01252 -8.82753,-0.73911 -13.33115,-1.73864c-2.16154,-0.47973 -4.83823,-0.13147 -6.42852,-1.67204c-0.78368,-0.75918 -0.59245,-9.24333 -0.59245,-10.12945c0,-7.67768 0,-15.35536 0,-23.03303c0,-33.1982 0,-66.3964 0,-99.59459c0,-16.70061 -0.59118,-33.52446 0.07857,-50.21115c0.2671,-6.6546 1.12768,-13.2847 1.42452,-19.93803c0.41368,-9.27227 -0.00159,-18.66119 -0.00159,-27.94392c0,-7.53588 0.5676,-15.3058 0.00852,-22.81182c-0.22614,-3.03602 -1.17212,-5.98245 -1.5015,-9.00901c-0.6266,-5.75752 -0.00852,-11.93597 -0.00852,-17.72872c0,-15.08931 0.90089,-30.0418 2.26807,-45.07272c2.24401,-24.67078 4.55668,-49.3135 7.64157,-73.8946c0.76552,-6.09985 0.35529,-12.0366 0.60087,-18.16482c0.05784,-1.44332 -0.4632,-3.13976 0.37337,-4.31733c1.0145,-1.42803 3.03683,-1.74686 4.55525,-2.6203c16.36368,-0.35509 32.76514,-0.06688 49.13294,-0.06688c8.81264,0 17.9385,-0.65208 26.72272,0.00852c3.83437,0.28835 7.43726,1.50732 11.31032,1.49298c9.19912,0 18.68143,-0.66711 27.85175,0.02815c3.32266,0.25191 6.56338,1.2329 9.88638,1.48025c6.63584,0.49394 13.38342,-0.49751 20.02063,0.00162c3.03585,0.2283 5.97749,1.22146 9.00901,1.5015c2.99027,0.27623 6.01446,-0.2252 9.00901,0c3.03687,0.22838 5.98521,1.1659 9.01208,1.50176c2.5221,0.27985 5.07514,0.00766 7.6127,0.0172c13.68968,2.03436 27.39955,1.47553 41.23208,1.47553c18.01802,0 36.03604,0 54.05405,0c1.80015,0.01076 3.62147,-0.24319 5.40046,0.03228c1.56408,0.2422 2.95442,1.18173 4.5045,1.5015c3.79531,0.78294 8.74954,-0.03228 12.61756,-0.03228c3.62195,0 7.62296,-0.32677 11.25235,0.01217c2.54101,0.2373 4.97093,1.22078 7.50751,1.5015c0.13288,0.01471 0.26379,0.02739 0.39289,0.03823z"/></g></g></svg>