<svg version="1.1" xmlns="http://www.w3.org/2000/svg" xmlns:xlink="http://www.w3.org/1999/xlink" width="129.68794" height="124.52854" viewBox="0,0,129.68794,124.52854"><g transform="translate(-175.15603,-117.90123)"><g data-paper-data="{&quot;isPaintingLayer&quot;:true}" fill-rule="nonzero" stroke-linecap="butt" stroke-linejoin="miter" stroke-miterlimit="10" stroke-dasharray="" stroke-dashoffset="0" style="mix-blend-mode: normal"><path d="M176.91832,180.1655c0,-33.41432 28.24263,-60.50198 63.08168,-60.50198c34.83905,0 63.08168,27.08766 63.08168,60.50198c0,33.41432 -28.24263,60.50198 -63.08168,60.50198c-34.83905,0 -63.08168,-27.08766 -63.08168,-60.50198z" data-paper-data="{&quot;zoomLevel&quot;:0.70492}" fill="#ff0000" stroke="#050308" stroke-width="3.52458"/><path d="M296.05195,205.98896c-0.06247,0.10981 -0.12313,0.22015 -0.18137,0.33121c-1.42245,2.71241 -1.79301,5.82571 -3.49626,8.4705c-2.056,3.19253 -5.40207,5.57466 -8.28364,8.23047c-4.15997,3.83405 -7.62357,8.19662 -12.98326,10.52795c-3.52551,1.53351 -7.21689,2.53581 -10.72132,4.04762c-0.00341,0.00147 -0.00682,0.00294 -0.01024,0.00442c-1.52104,1.4189 -3.22397,2.54195 -5.33302,2.30129l-0.6819,0.13638c-2.63941,0.94469 -5.37279,1.69255 -7.06012,1.46323c-1.47043,-0.19985 -2.60418,-0.8842 -3.36609,-1.82049c-0.71266,0.10654 -1.40468,0.05612 -2.05368,-0.26961c-2.01843,-1.01304 -1.92622,-4.09898 -2.61916,-6.24843c-0.08472,-0.2628 0.0652,-3.28431 0.03715,-3.61515c-0.1537,-1.81331 -1.33646,-3.82327 -1.79238,-5.61505c0.08294,-0.22451 0.38533,-0.47694 0.24883,-0.67354c-0.40748,-0.58692 -1.36862,-0.70459 -1.65889,-1.35748c-0.4945,-1.11227 -0.34178,-2.41077 -0.54964,-3.61014c-0.14418,-0.83195 -0.50617,-1.63762 -0.50617,-2.48196c0,-1.04663 0.93885,-2.09087 0.60167,-3.08169c-0.22524,-0.66188 -0.78852,-1.19305 -0.93801,-1.87604c-0.16702,-0.76304 -0.13266,-4.36599 -0.13266,-5.36047c0,-3.10078 -0.20865,-5.9501 -0.45653,-9.02862c-0.27768,-3.44851 0.57303,-7.19767 0.01713,-10.59763c-0.44702,-2.73409 -0.72924,-5.6964 -1.39948,-8.37736c0.02099,-1.68436 -0.63155,-3.30953 -0.91114,-4.97065c-0.43058,-2.55822 -0.06403,-5.70059 -0.06403,-8.29851c0,-2.65108 -0.07832,-5.32333 0,-7.97315c0.01654,-0.55973 0.2856,-1.13599 0.13266,-1.67467c-0.28642,-1.00886 -1.16095,-1.79459 -1.40703,-2.81405c-0.59303,-2.45689 -0.13231,-5.45311 -0.55374,-7.95569c-0.189,-1.12234 -0.79739,-2.15364 -0.93801,-3.28306c-0.18533,-1.4885 0.07128,-3.00339 -0.03104,-4.49989c-0.22406,-3.27718 -0.48591,-6.47247 -0.48591,-9.78921c0,0 0,-0.16262 0.02945,-0.42896c-0.30728,-0.62888 -0.49846,-1.41139 -0.49846,-2.38509c0,-4.95919 4.95919,-4.95919 4.95919,-4.95919h1.87604c3.45993,0.02123 6.50448,1.05727 9.86884,1.43116c1.88587,0.20958 3.85895,-0.27951 5.74537,0.01302c2.90297,0.45017 6.1336,2.01578 8.61212,3.54552c1.23488,0.76217 1.65195,1.088 2.53105,1.44617c0.73817,-0.1194 1.55867,0.11806 2.32117,0.13025c1.31838,0.02108 2.63562,0.08845 3.95344,0.13266l0.70877,0.80543c0.00929,-0.00005 0.01858,-0.00008 0.02788,-0.00008c0.0447,0 0.08925,0.00059 0.13367,0.00177l0.20811,-0.41623l1.77994,0.88997c1.67742,0.79518 2.83747,2.50396 2.83747,4.48368c0,0.1193 -0.00421,0.23761 -0.0125,0.35481c0.08148,0.01514 0.16234,0.03419 0.24247,0.05789c1.17584,0.34787 4.1695,3.06553 5.1591,3.28306c1.0644,0.23397 2.16532,0.24934 3.24798,0.37401c0.62666,0.68721 1.15327,1.48124 1.87999,2.06162c0.54632,0.4363 1.35773,0.46878 1.87604,0.93801c1.4828,1.34241 2.10582,3.30808 3.3672,4.7948c2.99964,3.53555 6.2626,7.14963 8.20424,11.45601c0.26495,0.58762 0.21509,1.28356 0.46901,1.87604c0.92689,2.16275 1.95669,4.10136 2.26282,6.55942c0.10664,0.85623 0.16379,1.72942 0.18917,2.61179c0.03854,0.05663 0.075,0.11532 0.10925,0.1762c2.24549,3.99191 1.62332,9.6886 1.84216,14.09112c0.23581,4.74387 -0.31158,8.91905 -1.34449,13.56714c-0.84725,3.81265 -0.25395,7.05195 -3.05921,9.11193c-0.0575,1.53142 -0.80942,2.88518 -1.95001,3.75552z" fill="#00ff12" stroke="none" stroke-width="0.5"/><path d="M272.7847,192.09727c2.23607,1.11803 1.11803,3.3541 1.11803,3.3541l-0.46227,0.75763c-0.85139,3.80893 -0.4866,8.49398 -2.12072,12.05643c-0.57079,1.24435 -1.05984,2.7326 -2.22419,3.45266c-1.4884,0.92046 -3.42267,0.73187 -5.13401,1.0978c-2.67657,0.19273 -5.3915,0.99269 -8.03351,0.52265c-3.28168,-0.58383 -6.29477,-2.30836 -9.58214,-2.8592c-6.18433,-1.03626 -12.53057,-0.59876 -18.79417,-1.68652c-3.43282,-0.59616 -6.85709,-0.6971 -9.40656,-3.44997c-1.47752,-1.5954 -1.75355,-4.00609 -2.2499,-6.12316c-0.65998,-2.81501 -1.94478,-5.4601 -2.65396,-8.28001c0,0 -0.60634,-2.42536 1.81902,-3.0317c2.42536,-0.60634 3.0317,1.81902 3.0317,1.81902c0.71095,2.86267 2.00356,5.52453 2.67938,8.38665c0.46179,1.95572 -0.22451,2.41612 1.08343,3.87684c1.9482,2.17576 8.61852,2.18577 11.14367,2.53164c4.64099,0.63567 9.39131,0.21032 13.98894,0.99854c3.282,0.56267 6.30451,2.21698 9.57213,2.85791c2.23496,0.43838 4.54037,-0.36689 6.81222,-0.52779c0.95533,-0.07851 1.98801,0.14914 2.86599,-0.23553c1.07665,-0.47171 0.77508,-2.23134 0.96831,-3.3908c0.50992,-3.05981 0.68041,-6.05515 1.35345,-9.10012l0.87107,-1.90904c0,0 1.11803,-2.23607 3.3541,-1.11803z" fill="#ca7f46" stroke="none" stroke-width="0.5"/><path d="M213.24623,186.37623c-0.69243,-1.04031 0.00107,-2.5293 -0.32915,-3.73456c-0.58141,-2.12208 -5.07425,-5.34057 -0.09673,-7.84586c1.42423,-0.71685 8.06747,3.18906 10.49012,5.29533c0.4074,-0.61495 0.95708,-1.1605 1.44864,-1.70709c2.28584,-2.54174 4.16864,-4.95502 8.15855,-3.70955c0.535,0.167 4.46225,4.78954 4.90795,5.28419c0.52195,0.57927 1.22955,1.04222 1.76746,1.6084c0.1372,-0.38921 0.29197,-0.77379 0.4203,-1.16533c0.65118,-1.51421 2.45466,-6.45112 4.42472,-6.22464c2.41938,0.27813 5.26208,4.75983 7.08586,6.81607c0.07212,0.08131 0.14997,0.15847 0.23142,0.23298c0.22684,-0.69863 0.57084,-1.38232 0.79846,-2.07555c0.47669,-1.45177 0.12466,-3.73266 1.53562,-4.31922c6.90971,-2.87253 5.08191,4.35195 7.47487,6.55181c1.97707,1.81754 6.32504,-1.13102 7.55339,-1.8422l0.4959,1.24275c0.05036,-0.01027 0.10075,-0.02029 0.15118,-0.03007c-0.09429,-1.07038 0.5198,-1.98893 3.16576,-2.47621c3.85203,-0.70938 9.00668,2.59201 13.13882,2.5568l0.06803,0.02595l0.00128,-0.02307l4.97589,0.27644c1.32392,0.06375 2.37774,1.15734 2.37774,2.49706c0,1.37253 -1.10607,2.48673 -2.4755,2.49988l-4.98877,0.05594l-0.0023,-0.20527c-1.04476,0.18483 -2.09708,0.27073 -3.15677,0.20199c-2.85768,-0.18539 -6.44,-1.01715 -9.68641,-0.9324c-0.00108,0.00136 -0.00216,0.00272 -0.00324,0.00407c0.34295,0.34025 0.60775,0.83803 0.64855,1.56628c0.0559,0.45759 0.01694,1.02268 -0.32127,1.54198c-0.13436,0.22938 -0.30088,0.41328 -0.48152,0.56072c-1.2186,5.81009 -2.81667,12.04315 -5.98418,16.88786l1.4591,1.87494c0,0 0,2.5 -2.5,2.5c-0.72451,0 -1.23906,-0.20997 -1.60448,-0.5082c-7.80418,-0.9027 -15.8626,-1.24275 -23.31476,-3.22809c-2.9032,-0.77345 -6.22035,0.04791 -9.05576,-0.68079c-0.91655,-0.23555 -1.58714,-1.07068 -2.48223,-1.37787c-2.94796,-1.01175 -5.18127,-0.58283 -8.11644,-2.2011c0,0 -1.71831,-0.98189 -1.22363,-2.72727c-1.06868,-2.0276 -0.39875,-4.18463 -0.91566,-6.32734c-0.34194,-0.11244 -0.69837,-0.32513 -1.0548,-0.68156c-0.81656,-0.81656 -0.87876,-1.63311 -0.70927,-2.27544c-0.26204,-0.30148 -0.52702,-0.59641 -0.77685,-0.89186c0,0 -0.42302,-0.50762 -0.57312,-1.21839c-1.06293,-0.46313 -2.30281,-0.73509 -2.92676,-1.67251z" fill="#9c6337" stroke="none" stroke-width="0.5"/><text transform="translate(194.33333,156.54742) scale(0.38099,0.38099)" font-size="40" xml:space="preserve" fill="#000000" fill-rule="nonzero" stroke="none" stroke-width="1" stroke-linecap="butt" stroke-linejoin="miter" stroke-miterlimit="10" stroke-dasharray="" stroke-dashoffset="0" font-family="Sans Serif" font-weight="normal" text-anchor="start" style="mix-blend-mode: normal"><tspan x="0" dy="0">resess cookie</tspan></text><text transform="translate(225.33333,230) scale(0.5,0.5)" font-size="40" xml:space="preserve" fill="#000000" fill-rule="nonzero" stroke="none" stroke-width="1" stroke-linecap="butt" stroke-linejoin="miter" stroke-miterlimit="10" stroke-dasharray="" stroke-dashoffset="0" font-family="Sans Serif" font-weight="normal" text-anchor="start" style="mix-blend-mode: normal"><tspan x="0" dy="0">epic</tspan></text></g></g></svg>