<svg version="1.1" xmlns="http://www.w3.org/2000/svg" xmlns:xlink="http://www.w3.org/1999/xlink" width="325.59044" height="302.44918" viewBox="0,0,325.59044,302.44918"><g transform="translate(-78.66664,0.52186)"><g data-paper-data="{&quot;isPaintingLayer&quot;:true}" fill-rule="nonzero" stroke="none" stroke-linecap="butt" stroke-linejoin="miter" stroke-miterlimit="10" stroke-dasharray="" stroke-dashoffset="0" style="mix-blend-mode: normal"><path d="M81,146.33333c0,-2.5 2.5,-2.5 2.5,-2.5h2.66666c19.35074,0 38.64657,0.33333 58,0.33333c22.77778,0 45.55556,0 68.33334,0c5.57728,0 11.28016,0.34858 16.84465,0.00484c4.3448,-0.2684 8.43282,-1.00484 12.82201,-1.00484c2.38959,0 10.06174,1.44995 11.45024,-1.65649c0.07597,-0.16996 0.04977,-4.82335 0.04976,-4.84351c-0.00208,-3.94066 -0.00191,-7.88135 0.00483,-11.82201c0.27698,-1.33819 -0.01066,-2.93793 0.83095,-4.01458c2.35062,-3.00704 10.91904,-2.63607 14.27035,-2.31515c16.24223,1.55537 33.00347,0.65173 49.39387,0.65173c5.90987,0 11.76595,0.33334 17.66666,0.33334c7.63419,0 14.28797,-0.20006 21.35376,2.8844c2.80055,1.22253 3.44297,0.61218 5.91887,2.69964c3.6429,3.07139 3.47396,7.34058 4.77351,11.48241c0.582,1.85488 1.18692,3.72732 1.41444,5.65801c1.42422,5.64712 2.26217,11.28635 3.33025,16.98316c0.06822,0.36388 0.69272,5.3719 1.26227,5.39824c1.26484,0.05847 2.75311,-0.9539 3.81545,-1.30836c2.11041,-0.70415 4.23654,-1.43038 6.43508,-1.77099c4.70547,-0.729 13.4262,1.67602 16.36757,5.64623c2.26895,3.06258 1.49061,7.01229 1.39859,10.51648c-0.8666,1.3332 -1.35629,3.00858 -2.59978,3.99961c-3.84208,3.06207 -9.17579,0.26699 -13.03805,-0.58754c-1.06308,-0.23521 -2.18351,-0.10173 -3.25109,-0.31559c-2.32457,-0.46568 -4.85087,-1.82432 -7.28246,-0.61018c-1.96811,0.98272 -2.29452,6.3663 -2.40324,8.31318c-0.47186,8.44915 0.09939,17.02311 -0.07892,25.48633c-0.69521,1.18582 -1.0296,2.67753 -2.08563,3.55747c-5.79865,4.83178 -9.89188,-2.4296 -12.44386,-6.53007c-1.16905,-1.87841 -3.08384,-3.2499 -4.11709,-5.20631c-0.94162,-1.78291 -1.16515,-3.86065 -1.72793,-5.7968c-0.13756,-0.47323 0.19728,-1.20181 -0.22139,-1.46177c-0.36955,-0.22946 -0.73037,0.51349 -1.15518,0.60702c-1.48552,0.3271 -3.01499,0.40768 -4.51792,0.64216c-4.1327,0.64477 -3.96689,3.8079 -4.70545,7.08293c-1.09581,4.85917 -3.25803,10.02058 -5.4852,14.46678c-0.92048,2.42514 -2.23329,4.68261 -3.34502,7.02626c-2.01243,4.24242 -2.98704,10.23874 -7.97781,12.27602c-1.16067,0.47379 -2.51025,0.1833 -3.73239,0.46257c-2.5624,0.58553 -5.32015,1.21913 -7.86908,1.96569c-3.62675,1.06225 -8.35319,1.90728 -12.18764,1.09487c-1.6112,-0.34137 -3.80325,-0.19036 -4.67991,-1.58462c-0.04054,-0.06447 -0.07209,-0.14189 -0.09532,-0.23085c-0.78093,0.27994 -1.5826,0.53733 -2.43211,0.73771c-3.34317,0.78856 -5.76022,-0.34647 -9.02791,0.06731c0,0 -2.48471,0.27608 -2.76079,-2.20863c-0.16678,-1.50102 0.67397,-2.19603 1.36581,-2.51106l0.30086,-2.70776l0.05378,0.00598c0.00027,-0.11813 0.00362,-0.23645 0.01034,-0.355c0.05141,-0.90701 0.52538,-1.7105 0.97807,-2.52468c-0.90103,-4.40117 -2.94532,-8.52968 -3.98894,-12.93547c-0.37266,-1.57326 0.59819,-3.53435 -0.35941,-4.83705c-0.23363,-0.31782 -0.78685,0.06512 -1.18126,0.07024c-1.42775,0.01854 -2.89842,0.08861 -4.24722,0.55718c-3.03201,3.97452 -6.20029,7.80488 -10.35476,10.68171c-4.03082,2.79121 -8.63345,4.78306 -12.62644,7.63814c-5.13195,3.66947 -9.13084,7.99468 -15.73234,9.10942c-5.12631,0.86563 -11.21886,0.03228 -16.40045,0.03228c-6.09629,-0.01036 -12.21094,0.3379 -18.33334,0.33334c-1.70436,-0.00127 -5.61206,0.18644 -7.05342,-0.75321c-2.3148,-1.50907 -2.22861,-5.14106 -4.63339,-6.64486c-1.16461,-0.72827 -4.21336,-1.05838 -5.21469,-1.43679c-2.52538,-0.95437 -4.6172,-2.97957 -7.33322,-3.56387c-5.98929,-1.28849 -11.99328,-1.90163 -17.96599,-3.42323c-1.91324,-0.94805 -3.79794,-1.9655 -5.59718,-3.11528c-0.57073,-0.36471 -1.03043,-1.21948 -1.69945,-1.11381c-0.60133,0.09497 -0.50677,1.16134 -0.98518,1.53782c-0.95912,0.75476 -2.03831,1.41831 -3.20915,1.76282c-2.49766,0.73492 -6.21081,0.5991 -8.81966,0.74559c-2.73741,0.15371 -5.25288,1.15508 -8,1.33333c-10.25551,0.66543 -20.31189,-0.89434 -30.43142,-2.01045c-3.60543,-0.42169 -6.72415,-1.80984 -10.41846,-1.33678c-2.00639,0.25692 -4.87923,1.89244 -6.88267,0.68732c-2.98543,-1.79582 -2.44909,-6.5045 -2.29035,-9.70021c-0.14472,0.02059 -0.29973,0.03162 -0.46577,0.03162c-2.5,0 -2.5,-2.5 -2.5,-2.5c0,-3.88889 0,-10.44445 0,-14.33334c0.00584,-8.39452 2.54069,-16.44324 3.00383,-24.80491c0.48394,-8.73725 0.34964,-17.71347 0.3314,-26.48306c-0.53221,-0.34783 -1.00189,-0.96175 -1.00189,-2.04536zM260.79477,121.69504c-2.40695,1.82611 -3.96144,4.71733 -3.96144,7.97162c0,4.92817 3.5649,9.02372 8.25663,9.84856c0.56614,0.09953 1.14869,0.15144 1.74337,0.15144c3.03686,0.55122 5.90703,1.13491 8.85197,1.96299c9.51077,2.67432 19.03676,3.23637 29.07788,3.37034c2.44036,0.03256 5.18365,1.2945 7.73682,1.33333c6.14449,0.09346 12.29146,-0.1136 18.43561,0c7.21959,0.13349 8.21245,1.34404 19.23106,0.66667c5.26604,-0.32373 10,-3.16274 10,-10c0,-14.12864 -18.49803,-9.40456 -25.57464,-10.36809c-6.79,-0.92451 -14.41531,-0.28651 -20.86097,-0.29857c-2.6324,-0.00493 -4.94618,-1.27555 -7.56439,-1.33333c-4.11011,-0.09072 -8.22344,0.10024 -12.33333,0c-9.212,-0.22468 -23.55559,-8.8334 -32,-4.08333c-0.38743,0.21793 -0.7307,0.48034 -1.03856,0.77838zM208.48581,188.66666c-3.26653,-2.17768 -9.81333,4.82173 -10.73581,6.66667c-2.55273,5.10547 -1.39931,15.04706 3.03016,18.84374c2.40185,2.05873 5.04207,1.88522 8.02844,2.82995c1.52738,0.48318 3.77793,1.11529 5.38478,0.71358c7.81143,-1.95285 14.37566,-11.5401 9.72329,-19.72061c-0.44806,-0.78785 -1.78134,-0.65208 -2.36077,-1.34902c-0.63062,-2.61952 -2.29237,-4.83732 -4.5318,-6.19997c-0.26581,-0.20279 -0.55022,-0.38261 -0.85743,-0.53435c-0.23616,-0.11665 -0.5823,-0.23063 -0.96712,-0.33596c-0.81523,-0.29137 -1.67934,-0.47991 -2.57672,-0.54999c-0.69413,-0.1642 -1.51516,-0.7597 -2.10864,-0.36405zM301.41667,186.33333c-3.03451,0 -5.75333,1.35162 -7.58728,3.48566c-4.01196,1.30091 -6.91272,5.06887 -6.91272,9.51434c0,3.77128 2.08762,7.05496 5.17028,8.75847c1.83439,2.18551 4.58647,3.57486 7.66305,3.57486c3.32184,0 6.26537,-1.61969 8.08395,-4.1124c3.39741,-1.59772 5.74938,-5.05132 5.74938,-9.05426c0,-3.31421 -1.61226,-6.25186 -4.09527,-8.07141c-1.81955,-2.48299 -4.75719,-4.09526 -8.0714,-4.09526z" fill="#000000" stroke-width="0.5"/><path d="M254.76713,138.58722l-2.29414,1.87767c-1.78109,0.77575 -3.62351,1.43312 -5.50821,1.90429c-1.17813,0.49634 -2.39335,0.90331 -3.63748,1.23305l-0.56701,1.13403c-0.40086,0.84561 -1.26228,1.43041 -2.26029,1.43041c-1.07182,0 -1.9861,-0.67449 -2.34154,-1.62218c-7.27365,0.79911 -15.10057,-0.28591 -22.06992,-1.16249c-1.5203,1.03999 -2.44302,0.71019 -3.35174,-0.36766c-6.06619,-0.38879 -11.801,1.28297 -17.63046,2.74435c0,0 -1.09218,0.27305 -1.99394,-0.28024c-2.11239,-0.24404 -2.11239,-2.47845 -2.11239,-2.47845c0.00346,-3.11186 -0.14503,-7.1175 0.78538,-10.09457c1.7326,-5.54384 8.67071,-9.66171 14.35629,-7.98835c4.40772,1.29727 5.61863,6.25716 7.56252,9.90327c0.16262,0.30502 0.67675,0.99682 1.0361,1.76536c0.11556,-0.47458 0.25299,-0.94445 0.39916,-1.40899c0.57723,-1.83448 1.46696,-3.55603 2.15415,-5.35221c0.76851,-1.03512 1.30937,-2.28698 2.30553,-3.10536c3.89492,-3.19985 10.68829,-2.34489 14.45305,0.32106c3.00196,2.12578 4.69613,5.56519 6.11587,8.98571c0.23964,-1.17939 0.60737,-2.3703 0.89148,-3.56825c0.29026,-1.22387 0.2086,-2.62039 0.91562,-3.6607c0.9374,-1.37929 2.14276,-3.01122 3.79106,-3.2647c4.52071,-0.69521 5.28923,4.04845 8.30747,5.63044l0.54435,0.26787c0,0 2.23607,1.11803 1.11803,3.3541c-0.12193,0.24385 -0.25715,0.44781 -0.40132,0.61769c1.13309,1.76757 -0.56762,3.18483 -0.56762,3.18483z" fill="#f6f958" stroke-width="0.5"/><path d="M359,145.33333c0,2.5 -2.5,2.5 -2.5,2.5l-0.02325,-0.01931c-6.71993,0.8284 -13.69548,0.35718 -20.46543,0.34781c-2.73478,-0.33713 -5.44765,-1.00118 -8.15011,-1.34723c-6.96793,-0.89226 -14.08806,0.34591 -21.01075,0.35201c-3.17636,0.0028 -6.23071,-0.98034 -9.32258,-1.35201c-2.84839,-0.34239 -5.84859,0.42071 -8.69304,-0.00339c-0.78619,-0.11722 -3.45914,-0.90161 -5.43504,-1.49453c-0.45965,0.53166 -1.00523,0.85559 -1.67123,0.83951c-2.19143,-0.05291 -3.04173,-0.96441 -3.56284,-2.10378l-0.93061,-0.39913c-2.60963,-0.97944 -5.38408,-2.19599 -8.05565,-2.90698c-1.84158,-0.49011 -3.83647,-0.39989 -5.61156,-1.09323c-1.56596,-0.61166 -3.03937,-1.50255 -4.67425,-1.89439c0,0 -1.44695,-0.36174 -1.82622,-1.64402c-0.19048,-0.29866 -0.331,-0.68152 -0.38549,-1.17192c-0.27608,-2.48471 2.20863,-2.76079 2.20863,-2.76079c4.13502,-0.45437 8.83818,-0.97165 12.84424,0.48624c1.6624,0.60498 3.13513,1.64487 4.74997,2.36728c0.68862,0.30806 3.18639,1.53101 4.57169,2.97471c0.04369,-0.09141 0.08525,-0.18304 0.12355,-0.27507c1.18965,-2.85791 1.1953,-3.45078 4.01364,-5.2c5.42267,-3.36563 11.27709,-0.72211 16.26373,1.89759c1.75781,2.35982 4.28561,4.42453 5.67742,7.02575c0.22375,0.41817 -0.1278,1.19505 0.30463,1.3898c0.34739,0.15645 0.28978,-0.70479 0.42827,-1.05973c0.24685,-0.63265 0.41712,-1.29901 0.72772,-1.90293c0.52459,-1.02 0.95758,-2.14074 1.76893,-2.9515c1.28724,-1.2863 4.82192,-3.07161 6.68956,-3.394c5.25266,-0.90669 12.7159,0.96167 17.14777,3.70096c1.0804,0.66778 3.71082,2.20426 4.48839,3.87338c0.35257,-0.66711 0.80326,-1.28763 1.32183,-1.82689c2.02402,-2.10478 3.4999,-2.35897 6.07813,-3.34117c6.23173,-1.48213 9.08729,0.28691 11.97934,5.93558l0.83441,2.76456c0,0 0.15537,0.54378 0.05967,1.18797c0.02374,0.15411 0.03652,0.32008 0.03652,0.49884z" fill="#f6f958" stroke-width="0.5"/><path d="M372.59146,163.64339c0.38494,-1.02654 1.48006,-1.46459 1.48006,-1.46459c5.99791,-2.34307 13.60425,-3.3669 20.0373,-2.40292c3.18926,0.4779 7.29749,1.9811 9.05488,4.97177c1.66966,2.84137 1.05445,8.87199 0.57412,11.99869c-0.19493,1.26891 -0.18922,2.70744 -0.96857,3.72762c-2.20719,2.88925 -6.15929,2.52649 -9.27292,2.51387c-3.79461,0.75892 -7.63668,0.52112 -11.49634,0.51217c-1.79021,-0.00415 -4.68337,0.17983 -6.25234,-0.83629c-1.21443,-0.78651 -2.26576,-1.95545 -2.83791,-3.28439c-0.48216,-1.11991 -0.03026,-2.44137 -0.14964,-3.6548c-0.34596,-3.51647 -2.99696,-8.77178 -0.16864,-12.08112zM395.20357,170.3303c-0.00906,-0.00114 -0.01812,-0.00228 -0.02717,-0.00343c0.03068,0.05621 0.06089,0.11279 0.09058,0.16971c-0.02082,-0.05533 -0.04197,-0.1108 -0.06341,-0.16628z" fill="#cfcfcf" stroke-width="0.5"/><text transform="translate(193.47944,53.80046) scale(1.82833,1.24879)" font-size="40" xml:space="preserve" fill="#000000" fill-rule="nonzero" stroke="none" stroke-width="1" stroke-linecap="butt" stroke-linejoin="miter" stroke-miterlimit="10" stroke-dasharray="" stroke-dashoffset="0" font-family="Sans Serif" font-weight="normal" text-anchor="start" style="mix-blend-mode: normal"><tspan x="0" dy="0">p-</tspan><tspan x="0" dy="46.150000000000006px">90</tspan></text><text transform="translate(159.66967,290.24363) scale(0.9347,0.9347)" font-size="40" xml:space="preserve" fill="#000000" fill-rule="nonzero" stroke="none" stroke-width="1" stroke-linecap="butt" stroke-linejoin="miter" stroke-miterlimit="10" stroke-dasharray="" stroke-dashoffset="0" font-family="Sans Serif" font-weight="normal" text-anchor="start" style="mix-blend-mode: normal"><tspan x="0" dy="0">epic find!</tspan></text></g></g></svg>